<svg width="469" height="280" viewBox="0 0 469 280" fill="none" xmlns="http://www.w3.org/2000/svg">
<g clip-path="url(#clip0_428_39617)">
<circle cx="349" cy="140" r="8.5" stroke="url(#paint0_linear_428_39617)"/>
<circle cx="349" cy="140" r="29.5" stroke="url(#paint1_linear_428_39617)"/>
<circle cx="349" cy="140" r="51.5" stroke="url(#paint2_linear_428_39617)"/>
<circle cx="349" cy="140" r="76.5" stroke="url(#paint3_linear_428_39617)"/>
<circle cx="349" cy="140" r="106.5" stroke="url(#paint4_linear_428_39617)"/>
<circle cx="349" cy="140" r="139.5" stroke="url(#paint5_linear_428_39617)"/>
<path d="M24.3424 254.21C25.0107 254.973 26.1707 255.049 26.9332 254.381C27.6957 253.712 27.772 252.552 27.1036 251.79L24.3424 254.21ZM95.1895 129.703L95.8257 131.426L95.8259 131.426L95.1895 129.703ZM224.437 84.4495L224.187 82.6306L224.186 82.6307L224.437 84.4495ZM345.376 142.266C346.388 142.329 347.259 141.559 347.322 140.547C347.385 139.535 346.616 138.664 345.604 138.601L345.376 142.266ZM319.574 109.197C318.839 108.499 317.677 108.529 316.979 109.265C316.281 110 316.311 111.162 317.046 111.86L319.574 109.197ZM314.439 155.444C313.49 155.799 313.007 156.856 313.362 157.806C313.717 158.756 314.775 159.238 315.724 158.884L314.439 155.444ZM25.723 253C27.1036 251.79 27.1037 251.79 27.1037 251.79C27.1034 251.79 27.1031 251.789 27.1026 251.789C27.1015 251.787 27.0997 251.785 27.0971 251.782C27.0921 251.777 27.0841 251.767 27.0732 251.755C27.0516 251.73 27.0186 251.692 26.9747 251.641C26.887 251.539 26.756 251.387 26.5856 251.186C26.2449 250.783 25.7471 250.189 25.125 249.425C23.8805 247.897 22.1399 245.695 20.1637 243.008C16.2042 237.624 11.3312 230.334 7.60004 222.641C3.84537 214.899 1.36564 206.986 1.91093 200.277C2.18035 196.962 3.185 193.976 5.11564 191.421C7.04778 188.864 9.99117 186.629 14.314 184.955L12.988 181.531C8.1516 183.404 4.60279 186.009 2.18616 189.207C-0.231982 192.407 -1.4327 196.09 -1.7489 199.98C-2.37484 207.681 0.453242 216.32 4.2962 224.243C8.16264 232.216 13.1771 239.705 17.2056 245.183C19.2235 247.927 21.002 250.178 22.2782 251.744C22.9164 252.528 23.4293 253.141 23.7842 253.559C23.9617 253.769 24.0996 253.93 24.194 254.039C24.2412 254.094 24.2775 254.136 24.3024 254.164C24.3149 254.179 24.3245 254.19 24.3311 254.197C24.3345 254.201 24.3371 254.204 24.339 254.206C24.3399 254.207 24.3408 254.208 24.3412 254.209C24.3419 254.21 24.3424 254.21 25.723 253ZM14.314 184.955C22.664 181.721 31.7003 184.27 41.8614 190.279C52.0226 196.289 62.7865 205.435 74.5029 214.685C97.6545 232.963 124.468 251.637 155.132 242.725L154.107 239.199C125.482 247.519 100.129 230.239 76.7782 211.803C65.2433 202.696 54.1717 193.294 43.7306 187.119C33.2893 180.944 22.9565 177.671 12.988 181.531L14.314 184.955ZM155.132 242.725C162.856 240.481 168.537 236.674 172.369 231.678C176.196 226.689 178.077 220.648 178.435 214.097C179.145 201.06 173.841 185.777 165.39 171.759C156.921 157.711 145.15 144.695 132.607 136.209C120.119 127.761 106.492 123.57 94.5531 127.981L95.8259 131.426C106.128 127.619 118.46 131.071 130.549 139.251C142.584 147.392 154.006 159.988 162.246 173.655C170.504 187.353 175.423 201.889 174.768 213.897C174.443 219.869 172.744 225.156 169.456 229.443C166.174 233.722 161.206 237.136 154.107 239.199L155.132 242.725ZM94.5533 127.981C88.6886 130.148 84.753 133.389 82.682 137.544C80.6177 141.685 80.5517 146.441 81.8343 151.358C84.3785 161.113 92.3819 172.123 102.536 182.122C112.738 192.168 125.33 201.407 137.379 207.57C143.404 210.652 149.339 212.988 154.806 214.258C160.252 215.523 165.372 215.762 169.684 214.493L168.647 210.971C165.173 211.993 160.752 211.87 155.636 210.681C150.542 209.498 144.895 207.29 139.051 204.301C127.362 198.322 115.07 189.311 105.113 179.506C95.1086 169.655 87.6787 159.217 85.3873 150.431C84.252 146.079 84.4175 142.293 85.9682 139.182C87.5121 136.085 90.5748 133.365 95.8257 131.426L94.5533 127.981ZM169.684 214.493C186.441 209.562 191.602 193.536 192.765 178.228C193.351 170.503 192.945 162.742 192.4 156.248C192.128 153.003 191.819 150.046 191.582 147.586C191.341 145.091 191.18 143.158 191.18 141.851H187.508C187.508 143.367 187.69 145.48 187.927 147.939C188.168 150.435 188.472 153.341 188.741 156.554C189.28 162.977 189.668 170.512 189.103 177.95C187.963 192.968 183.035 206.737 168.647 210.971L169.684 214.493ZM191.18 141.851C191.18 140.348 191.021 138.402 190.847 136.247C190.67 134.06 190.471 131.585 190.37 128.915C190.167 123.567 190.363 117.526 191.888 111.69C193.408 105.874 196.238 100.297 201.297 95.8013C206.357 91.3043 213.78 87.7697 224.687 86.2683L224.186 82.6307C212.722 84.2089 204.572 87.9778 198.858 93.0567C193.142 98.1367 189.996 104.408 188.335 110.761C186.68 117.094 186.492 123.542 186.7 129.054C186.805 131.813 187.01 134.36 187.187 136.543C187.366 138.759 187.508 140.531 187.508 141.851H191.18ZM224.687 86.2683C246.164 83.3177 262.76 95.9059 281.021 110.357C299.076 124.645 318.598 140.599 345.376 142.266L345.604 138.601C320.163 137.017 301.53 121.905 283.3 107.478C265.274 93.2125 247.453 79.4341 224.187 82.6306L224.687 86.2683ZM318.31 110.529C317.046 111.86 317.047 111.86 317.047 111.861C317.047 111.861 317.047 111.861 317.048 111.862C317.048 111.862 317.05 111.864 317.051 111.865C317.055 111.868 317.06 111.873 317.066 111.879C317.079 111.892 317.099 111.91 317.125 111.935C317.176 111.984 317.253 112.057 317.354 112.152C317.554 112.343 317.849 112.623 318.226 112.981C318.979 113.696 320.058 114.722 321.363 115.965C323.973 118.449 327.486 121.798 331.098 125.254C338.359 132.202 345.918 139.49 347.454 141.162L350.158 138.678C348.518 136.892 340.829 129.484 333.637 122.601C330.022 119.142 326.506 115.791 323.895 113.305C322.589 112.062 321.509 111.035 320.755 110.319C320.378 109.961 320.083 109.681 319.882 109.49C319.782 109.394 319.705 109.321 319.653 109.272C319.627 109.247 319.607 109.229 319.594 109.216C319.588 109.21 319.583 109.205 319.579 109.202C319.578 109.2 319.576 109.199 319.576 109.198C319.575 109.198 319.575 109.198 319.575 109.198C319.574 109.197 319.574 109.197 318.31 110.529ZM347.454 141.162C347.144 140.824 347.123 140.363 347.207 140.109C347.244 139.996 347.248 140.077 346.968 140.358C346.436 140.893 345.424 141.618 343.943 142.493C341.03 144.213 336.798 146.224 332.397 148.158C328.012 150.085 323.522 151.906 320.124 153.248C318.426 153.919 317.003 154.468 316.005 154.85C315.506 155.041 315.114 155.19 314.847 155.291C314.713 155.341 314.611 155.38 314.542 155.405C314.508 155.418 314.482 155.428 314.465 155.434C314.456 155.438 314.45 155.44 314.445 155.442C314.443 155.442 314.442 155.443 314.441 155.443C314.44 155.444 314.44 155.444 314.44 155.444C314.439 155.444 314.439 155.444 315.082 157.164C315.724 158.884 315.725 158.884 315.725 158.883C315.725 158.883 315.726 158.883 315.726 158.883C315.728 158.882 315.73 158.882 315.732 158.881C315.737 158.879 315.744 158.876 315.753 158.873C315.771 158.866 315.798 158.856 315.833 158.843C315.904 158.816 316.008 158.777 316.144 158.726C316.416 158.623 316.813 158.472 317.317 158.279C318.325 157.894 319.76 157.339 321.472 156.663C324.894 155.312 329.43 153.472 333.873 151.52C338.3 149.575 342.698 147.492 345.81 145.654C347.342 144.75 348.692 143.831 349.57 142.95C349.994 142.523 350.466 141.953 350.695 141.258C350.97 140.422 350.865 139.448 350.158 138.678L347.454 141.162Z" fill="url(#paint6_linear_428_39617)"/>
</g>
<defs>
<linearGradient id="paint0_linear_428_39617" x1="340" y1="140" x2="358" y2="140" gradientUnits="userSpaceOnUse">
<stop stop-color="#08E6FD"/>
<stop offset="0.5" stop-color="#00A5FD"/>
<stop offset="1" stop-color="#001EEE"/>
</linearGradient>
<linearGradient id="paint1_linear_428_39617" x1="319" y1="140" x2="379" y2="140" gradientUnits="userSpaceOnUse">
<stop stop-color="#08E6FD"/>
<stop offset="0.5" stop-color="#00A5FD"/>
<stop offset="1" stop-color="#001EEE"/>
</linearGradient>
<linearGradient id="paint2_linear_428_39617" x1="297" y1="140" x2="401" y2="140" gradientUnits="userSpaceOnUse">
<stop stop-color="#08E6FD"/>
<stop offset="0.5" stop-color="#00A5FD"/>
<stop offset="1" stop-color="#001EEE"/>
</linearGradient>
<linearGradient id="paint3_linear_428_39617" x1="272" y1="140" x2="426" y2="140" gradientUnits="userSpaceOnUse">
<stop stop-color="#08E6FD"/>
<stop offset="0.5" stop-color="#00A5FD"/>
<stop offset="1" stop-color="#001EEE"/>
</linearGradient>
<linearGradient id="paint4_linear_428_39617" x1="242" y1="140" x2="456" y2="140" gradientUnits="userSpaceOnUse">
<stop stop-color="#08E6FD"/>
<stop offset="0.5" stop-color="#00A5FD"/>
<stop offset="1" stop-color="#001EEE"/>
</linearGradient>
<linearGradient id="paint5_linear_428_39617" x1="209" y1="140" x2="489" y2="140" gradientUnits="userSpaceOnUse">
<stop stop-color="#08E6FD"/>
<stop offset="0.5" stop-color="#00A5FD"/>
<stop offset="1" stop-color="#001EEE"/>
</linearGradient>
<linearGradient id="paint6_linear_428_39617" x1="0" y1="168.5" x2="349" y2="168.5" gradientUnits="userSpaceOnUse">
<stop stop-color="#08E6FD"/>
<stop offset="0.5" stop-color="#00A5FD"/>
<stop offset="1" stop-color="#001EEE"/>
</linearGradient>
<clipPath id="clip0_428_39617">
<rect width="489" height="280" fill="white"/>
</clipPath>
</defs>
</svg>
