<svg width="82" height="78" viewBox="0 0 82 78" fill="none" xmlns="http://www.w3.org/2000/svg">
<ellipse cx="41" cy="39" rx="41" ry="39" fill="#1BC5E2" fill-opacity="0.5"/>
<g clip-path="url(#clip0_413_3240)">
<path d="M42.6316 37.3499C39.3683 36.2683 37.7916 35.5899 37.7916 33.8666C37.7916 31.9966 39.8266 31.3183 41.1099 31.3183C43.5116 31.3183 44.3916 33.1333 44.5933 33.7749L47.4899 32.5466C47.2149 31.7216 45.9866 29.0266 42.8333 28.4399V26.1666H39.1666V28.4766C34.6199 29.5033 34.6016 33.7199 34.6016 33.9033C34.6016 38.0649 38.7266 39.2383 40.7433 39.9716C43.6399 40.9983 44.9233 41.9333 44.9233 43.6933C44.9233 45.7649 42.9983 46.6449 41.2933 46.6449C37.9566 46.6449 37.0033 43.2166 36.8933 42.8133L33.8499 44.0416C35.0049 48.0566 38.0299 49.1383 39.1666 49.4683V51.8333H42.8333V49.5599C43.5666 49.3949 48.1499 48.4783 48.1499 43.6566C48.1499 41.1083 47.0316 38.8716 42.6316 37.3499ZM24.4999 55.4999H20.8333V44.4999H31.8333V48.1666H27.2866C30.2383 52.5849 35.2799 55.4999 40.9999 55.4999C50.1116 55.4999 57.4999 48.1116 57.4999 38.9999H61.1666C61.1666 50.1466 52.1466 59.1666 40.9999 59.1666C34.1799 59.1666 28.1483 55.7749 24.4999 50.6049V55.4999ZM20.8333 38.9999C20.8333 27.8533 29.8533 18.8333 40.9999 18.8333C47.8199 18.8333 53.8516 22.2249 57.4999 27.3949V22.4999H61.1666V33.4999H50.1666V29.8333H54.7133C51.7616 25.4149 46.7199 22.4999 40.9999 22.4999C31.8883 22.4999 24.4999 29.8883 24.4999 38.9999H20.8333Z" fill="#036A7C"/>
</g>
<defs>
<clipPath id="clip0_413_3240">
<rect width="44" height="44" fill="white" transform="translate(19 17)"/>
</clipPath>
</defs>
</svg>
