<svg width="82" height="78" viewBox="0 0 82 78" fill="none" xmlns="http://www.w3.org/2000/svg">
<ellipse cx="41" cy="39" rx="41" ry="39" fill="#BBE4EB" fill-opacity="0.5"/>
<path d="M54.4286 51.9798H55.4286V50.9798V26.9941V25.9941H54.4286H26.5714H25.5714V26.9941V50.9798V51.9798H26.5714H54.4286ZM42.2857 38.9869V39.9869H43.2857H48.5338L40.5 45.7514L32.4662 39.9869H37.7143H38.7143V38.9869V31.9917H42.2857V38.9869ZM22 56.9762V20.9976C22 20.3056 22.3937 19.5793 23.2196 18.9868C24.0425 18.3964 25.2265 18 26.5714 18H54.4286C55.7735 18 56.9575 18.3964 57.7804 18.9868C58.6063 19.5793 59 20.3056 59 20.9976V56.9762C59 57.6682 58.6063 58.3945 57.7804 58.987C56.9575 59.5775 55.7735 59.9738 54.4286 59.9738H26.5714C25.2265 59.9738 24.0425 59.5775 23.2196 58.987C22.3937 58.3945 22 57.6682 22 56.9762Z" stroke="#005464" stroke-width="2"/>
</svg>
