<svg width="82" height="78" viewBox="0 0 82 78" fill="none" xmlns="http://www.w3.org/2000/svg">
<ellipse cx="41" cy="39" rx="41" ry="39" fill="#5766AD" fill-opacity="0.5"/>
<g clip-path="url(#clip0_413_3267)">
<path d="M58.4575 40.6542C58.5525 39.9667 58.6 39.2563 58.6 38.5C58.6 37.7667 58.5525 37.0333 58.4338 36.3458L63.255 32.725C63.6825 32.4042 63.8013 31.7854 63.54 31.3271L58.98 23.7188C58.695 23.2146 58.1013 23.0542 57.5788 23.2146L51.9025 25.4146C50.715 24.5437 49.4563 23.8104 48.055 23.2604L47.2 17.4396C47.105 16.8896 46.63 16.5 46.06 16.5H36.94C36.37 16.5 35.9188 16.8896 35.8238 17.4396L34.9688 23.2604C33.5675 23.8104 32.285 24.5667 31.1213 25.4146L25.445 23.2146C24.9225 23.0312 24.3288 23.2146 24.0438 23.7188L19.5075 31.3271C19.2225 31.8083 19.3175 32.4042 19.7925 32.725L24.6138 36.3458C24.495 37.0333 24.4 37.7896 24.4 38.5C24.4 39.2104 24.4475 39.9667 24.5663 40.6542L19.745 44.275C19.3175 44.5958 19.1988 45.2146 19.46 45.6729L24.02 53.2813C24.305 53.7854 24.8988 53.9458 25.4213 53.7854L31.0975 51.5854C32.285 52.4562 33.5438 53.1896 34.945 53.7396L35.8 59.5604C35.9188 60.1104 36.37 60.5 36.94 60.5H46.06C46.63 60.5 47.105 60.1104 47.1763 59.5604L48.0313 53.7396C49.4325 53.1896 50.715 52.4562 51.8788 51.5854L57.555 53.7854C58.0775 53.9688 58.6713 53.7854 58.9563 53.2813L63.5163 45.6729C63.8013 45.1688 63.6825 44.5958 63.2313 44.275L58.4575 40.6542ZM41.5 46.75C36.7975 46.75 32.95 43.0375 32.95 38.5C32.95 33.9625 36.7975 30.25 41.5 30.25C46.2025 30.25 50.05 33.9625 50.05 38.5C50.05 43.0375 46.2025 46.75 41.5 46.75Z" fill="#363E69"/>
</g>
<defs>
<clipPath id="clip0_413_3267">
<rect width="57" height="55" fill="white" transform="translate(13 11)"/>
</clipPath>
</defs>
</svg>
