<svg width="82" height="78" viewBox="0 0 82 78" fill="none" xmlns="http://www.w3.org/2000/svg">
<ellipse cx="41" cy="39" rx="41" ry="39" fill="#42828E"/>
<g clip-path="url(#clip0_413_3257)">
<path d="M43 58.2918V57.2918H42H40.625C28.2041 57.2918 18.25 47.9831 18.25 36.6877C18.25 25.3923 28.2041 16.0835 40.625 16.0835C53.0459 16.0835 63 25.3923 63 36.6877C63 47.2354 55.2877 58.3361 43 64.3465V58.2918ZM43.375 52.9377H44.375V51.9377V46.8543V45.8543H43.375H37.875H36.875V46.8543V51.9377V52.9377H37.875H43.375ZM43.375 44.0418H44.375V43.0418C44.375 40.7406 45.9737 39.4464 48.1288 37.7035C50.1612 36.0599 52.625 34.0384 52.625 30.3335C52.625 24.0914 47.1791 19.1668 40.625 19.1668C34.0709 19.1668 28.625 24.0914 28.625 30.3335V31.3335H29.625H35.125H36.125V30.3335C36.125 28.1627 38.0766 26.2502 40.625 26.2502C43.1734 26.2502 45.125 28.1627 45.125 30.3335C45.125 31.279 44.7619 31.9529 44.1239 32.5999C43.6046 33.1265 42.9706 33.576 42.2228 34.1062C41.9652 34.2888 41.6941 34.481 41.4095 34.6892C40.3516 35.4633 39.2017 36.4029 38.3274 37.7384C37.4404 39.0934 36.875 40.7954 36.875 43.0418V44.0418H37.875H43.375Z" stroke="#04D7FF" stroke-width="2"/>
</g>
<defs>
<clipPath id="clip0_413_3257">
<rect width="66" height="61" fill="white" transform="translate(8 13)"/>
</clipPath>
</defs>
</svg>
