<svg width="82" height="78" viewBox="0 0 82 78" fill="none" xmlns="http://www.w3.org/2000/svg">
<path d="M82 39C82 60.5391 63.6437 78 41 78C18.3563 78 0 60.5391 0 39C0 17.4609 18.3563 0 41 0C63.6437 0 82 17.4609 82 39Z" fill="#90B6B9" fill-opacity="0.5"/>
<path d="M41.0001 62.3334C37.7723 62.3334 34.739 61.7209 31.9001 60.4959C29.0612 59.2709 26.5917 57.6084 24.4917 55.5084C22.3917 53.4084 20.7292 50.939 19.5042 48.1001C18.2792 45.2612 17.6667 42.2279 17.6667 39.0001C17.6667 35.7723 18.2792 32.739 19.5042 29.9001C20.7292 27.0612 22.3917 24.5917 24.4917 22.4917C26.5917 20.3917 29.0612 18.7292 31.9001 17.5042C34.739 16.2792 37.7723 15.6667 41.0001 15.6667C44.2279 15.6667 47.2612 16.2792 50.1001 17.5042C52.939 18.7292 55.4084 20.3917 57.5084 22.4917C59.6084 24.5917 61.2709 27.0612 62.4959 29.9001C63.7209 32.739 64.3334 35.7723 64.3334 39.0001C64.3334 42.2279 63.7209 45.2612 62.4959 48.1001C61.2709 50.939 59.6084 53.4084 57.5084 55.5084C55.4084 57.6084 52.939 59.2709 50.1001 60.4959C47.2612 61.7209 44.2279 62.3334 41.0001 62.3334ZM41.0001 57.6667C46.2112 57.6667 50.6251 55.8584 54.2417 52.2417C57.8584 48.6251 59.6667 44.2112 59.6667 39.0001C59.6667 38.7279 59.657 38.4459 59.6376 38.1542C59.6181 37.8626 59.6084 37.6195 59.6084 37.4251C59.414 38.5529 58.889 39.4862 58.0334 40.2251C57.1779 40.964 56.1667 41.3334 55.0001 41.3334H50.3334C49.0501 41.3334 47.9515 40.8765 47.0376 39.9626C46.1237 39.0487 45.6667 37.9501 45.6667 36.6667V34.3334H36.3334V29.6667C36.3334 28.3834 36.7904 27.2848 37.7042 26.3709C38.6181 25.457 39.7167 25.0001 41.0001 25.0001H43.3334C43.3334 24.1056 43.5765 23.3181 44.0626 22.6376C44.5487 21.957 45.1417 21.4029 45.8417 20.9751C45.064 20.7806 44.2765 20.6251 43.4792 20.5084C42.682 20.3917 41.8556 20.3334 41.0001 20.3334C35.789 20.3334 31.3751 22.1417 27.7584 25.7584C24.1417 29.3751 22.3334 33.789 22.3334 39.0001H34.0001C36.5667 39.0001 38.764 39.914 40.5917 41.7417C42.4195 43.5695 43.3334 45.7667 43.3334 48.3334V50.6667H36.3334V57.0834C37.1112 57.2779 37.8792 57.4237 38.6376 57.5209C39.3959 57.6181 40.1834 57.6667 41.0001 57.6667Z" fill="#4D8A8D"/>
</svg>
