<svg width="604" height="403" viewBox="0 0 604 403" fill="none" xmlns="http://www.w3.org/2000/svg">
<path d="M527.121 308.135C525.203 308.143 523.326 307.581 521.728 306.521C520.129 305.462 518.881 303.951 518.142 302.182C517.402 300.412 517.205 298.463 517.574 296.581C517.943 294.699 518.863 292.969 520.216 291.61C521.569 290.251 523.295 289.325 525.176 288.947C527.056 288.57 529.006 288.76 530.779 289.492C532.552 290.224 534.067 291.466 535.133 293.06C536.2 294.654 536.769 296.529 536.769 298.446C536.767 301.008 535.751 303.465 533.943 305.281C532.135 307.096 529.683 308.122 527.121 308.135ZM527.121 293.952C526.232 293.95 525.362 294.213 524.622 294.706C523.882 295.198 523.304 295.9 522.963 296.721C522.622 297.542 522.531 298.446 522.704 299.318C522.876 300.191 523.304 300.992 523.932 301.622C524.56 302.251 525.361 302.68 526.233 302.854C527.105 303.028 528.009 302.939 528.831 302.599C529.653 302.259 530.355 301.683 530.849 300.944C531.343 300.205 531.607 299.336 531.607 298.446C531.605 297.256 531.132 296.116 530.291 295.274C529.451 294.431 528.311 293.956 527.121 293.952Z" fill="#EBEBEB"/>
<path d="M527.121 354.212C525.203 354.22 523.326 353.658 521.728 352.599C520.129 351.539 518.881 350.029 518.142 348.259C517.402 346.489 517.205 344.54 517.574 342.658C517.943 340.776 518.863 339.046 520.216 337.687C521.569 336.328 523.295 335.402 525.176 335.025C527.056 334.647 529.006 334.837 530.779 335.569C532.552 336.301 534.067 337.543 535.133 339.137C536.2 340.731 536.769 342.606 536.769 344.524C536.767 347.085 535.751 349.542 533.943 351.358C532.135 353.173 529.683 354.199 527.121 354.212ZM527.121 340.037C526.234 340.037 525.366 340.3 524.628 340.793C523.891 341.286 523.316 341.987 522.976 342.807C522.637 343.626 522.548 344.529 522.721 345.399C522.894 346.269 523.321 347.068 523.949 347.696C524.576 348.323 525.375 348.751 526.246 348.924C527.116 349.097 528.018 349.008 528.838 348.668C529.658 348.329 530.358 347.754 530.851 347.016C531.344 346.278 531.607 345.411 531.607 344.524C531.605 343.334 531.132 342.194 530.291 341.354C529.45 340.513 528.31 340.039 527.121 340.037Z" fill="#EBEBEB"/>
<path d="M566.396 354.212C564.479 354.22 562.601 353.658 561.003 352.599C559.404 351.539 558.156 350.029 557.417 348.259C556.678 346.489 556.48 344.54 556.849 342.658C557.219 340.776 558.138 339.046 559.491 337.687C560.845 336.328 562.571 335.402 564.451 335.025C566.332 334.647 568.282 334.837 570.054 335.569C571.827 336.301 573.342 337.543 574.409 339.137C575.475 340.731 576.044 342.606 576.044 344.524C576.04 347.085 575.024 349.541 573.216 351.355C571.409 353.17 568.958 354.197 566.396 354.212ZM566.396 340.037C565.509 340.039 564.643 340.303 563.906 340.797C563.169 341.291 562.596 341.992 562.257 342.812C561.919 343.632 561.831 344.534 562.005 345.404C562.179 346.273 562.607 347.072 563.235 347.699C563.863 348.325 564.662 348.752 565.532 348.924C566.402 349.097 567.304 349.007 568.123 348.668C568.942 348.328 569.643 347.753 570.135 347.015C570.628 346.278 570.891 345.411 570.891 344.524C570.891 343.934 570.774 343.35 570.548 342.805C570.323 342.26 569.991 341.765 569.574 341.348C569.156 340.932 568.661 340.601 568.116 340.376C567.57 340.151 566.986 340.036 566.396 340.037Z" fill="#EBEBEB"/>
<path d="M529.477 305.658H524.275V338.212H529.477V305.658Z" fill="#EBEBEB"/>
<path d="M569.918 339.451H564.724V312.364C564.72 309.354 563.522 306.469 561.394 304.341C559.266 302.213 556.381 301.016 553.371 301.011H546.602V295.81H553.371C557.759 295.816 561.965 297.562 565.067 300.666C568.169 303.769 569.913 307.976 569.918 312.364V339.451Z" fill="#EBEBEB"/>
<path d="M550.301 288.887V307.387L540.211 298.446L550.301 288.887Z" fill="#EBEBEB"/>
<path d="M72.1528 94.5034H32.0332V161.075H72.1528V94.5034Z" fill="#F5F5F5"/>
<path d="M117.049 94.5034H73.6973V161.075H117.049V94.5034Z" fill="#F5F5F5"/>
<path d="M117.049 165.73H73.6973V230.05H117.049V165.73Z" fill="#F5F5F5"/>
<path d="M122.596 93.3541H168.247V34.3003H169.791V93.3541H206.943V32.9897H122.596V93.3541Z" fill="#F5F5F5"/>
<path d="M206.944 94.5034H169.791V161.075H206.944V94.5034Z" fill="#F5F5F5"/>
<path d="M206.944 165.73H169.791V230.05H206.944V165.73Z" fill="#F5F5F5"/>
<path d="M72.1528 165.73H32.0332V230.05H72.1528V165.73Z" fill="#F5F5F5"/>
<path d="M168.247 165.73H122.596V230.05H168.247V165.73Z" fill="#F5F5F5"/>
<path d="M72.1528 231.2H32.0332V289.16H72.1528V231.2Z" fill="#F5F5F5"/>
<path d="M206.944 231.2H169.791V289.16H206.944V231.2Z" fill="#F5F5F5"/>
<path d="M72.1528 93.3541V34.3003H73.6965V93.3541H117.04V32.9897H32.0332V93.3541H72.1528Z" fill="#F5F5F5"/>
<path d="M168.247 231.2H122.596V289.16H168.247V231.2Z" fill="#F5F5F5"/>
<path d="M117.049 231.2H73.6973V289.16H117.049V231.2Z" fill="#F5F5F5"/>
<path d="M168.247 94.5034H122.596V161.075H168.247V94.5034Z" fill="#F5F5F5"/>
<path d="M378.478 91.7783H340.135V155.399H378.478V91.7783Z" fill="#F5F5F5"/>
<path d="M421.371 91.7783H379.949V155.399H421.371V91.7783Z" fill="#F5F5F5"/>
<path d="M421.371 159.837H379.949V221.303H421.371V159.837Z" fill="#F5F5F5"/>
<path d="M426.676 90.6767H470.301V34.2359H471.78V90.6767H507.285V32.9897H426.676V90.6767Z" fill="#F5F5F5"/>
<path d="M507.286 91.7783H471.781V155.399H507.286V91.7783Z" fill="#F5F5F5"/>
<path d="M507.286 159.837H471.781V221.303H507.286V159.837Z" fill="#F5F5F5"/>
<path d="M378.478 159.837H340.135V221.303H378.478V159.837Z" fill="#F5F5F5"/>
<path d="M470.301 159.837H426.676V221.303H470.301V159.837Z" fill="#F5F5F5"/>
<path d="M378.469 90.6767V34.2359H379.941V90.6767H421.371V32.9897H340.135V90.6767H378.469Z" fill="#F5F5F5"/>
<path d="M470.301 91.7783H426.676V155.399H470.301V91.7783Z" fill="#F5F5F5"/>
<path d="M306.077 127.122L295.183 122.194C289.291 125.279 282.463 126.068 276.022 124.406C269.582 122.745 263.988 118.752 260.324 113.201C256.66 107.65 255.187 100.936 256.19 94.361C257.194 87.7859 260.603 81.8175 265.756 77.6124C270.909 73.4073 277.44 71.265 284.083 71.6006C290.726 71.9363 297.008 74.726 301.711 79.4291C306.414 84.1322 309.204 90.4138 309.54 97.0566C309.876 103.699 307.733 110.23 303.528 115.384L306.077 127.122ZM295.151 121.189L304.799 125.562L302.54 115.167L302.676 114.998C306.655 110.219 308.782 104.169 308.67 97.952C308.558 91.735 306.214 85.7654 302.067 81.1329C297.919 76.5005 292.243 73.5139 286.076 72.7185C279.909 71.923 273.662 73.3716 268.474 76.7999C263.287 80.2282 259.505 85.4076 257.819 91.3927C256.133 97.3779 256.656 103.77 259.291 109.402C261.927 115.034 266.5 119.53 272.175 122.07C277.851 124.611 284.25 125.025 290.206 123.239C291.844 122.747 293.431 122.095 294.942 121.293L295.151 121.189Z" fill="#E0E0E0"/>
<path d="M285.008 108.505C288.251 95.8459 280.618 82.9545 267.959 79.7112C255.3 76.468 242.409 84.1011 239.165 96.7602C235.922 109.419 243.555 122.311 256.214 125.554C268.874 128.797 281.765 121.164 285.008 108.505Z" fill="#E0E0E0"/>
<path d="M244.836 115.721L242.416 128.223L253.6 122.837L244.836 115.721Z" fill="#E0E0E0"/>
<path d="M252.256 105.808C254.014 105.808 255.44 104.383 255.44 102.624C255.44 100.866 254.014 99.4404 252.256 99.4404C250.498 99.4404 249.072 100.866 249.072 102.624C249.072 104.383 250.498 105.808 252.256 105.808Z" fill="white"/>
<path d="M264.211 102.624C264.211 103.26 264.023 103.882 263.669 104.411C263.316 104.94 262.814 105.352 262.226 105.595C261.638 105.839 260.992 105.903 260.368 105.778C259.744 105.654 259.171 105.348 258.721 104.898C258.271 104.448 257.965 103.875 257.841 103.252C257.717 102.628 257.781 101.981 258.024 101.393C258.267 100.806 258.68 100.304 259.209 99.9502C259.737 99.5968 260.359 99.4082 260.995 99.4082C261.848 99.4082 262.666 99.747 263.269 100.35C263.872 100.953 264.211 101.771 264.211 102.624Z" fill="white"/>
<path d="M269.744 105.808C271.503 105.808 272.928 104.383 272.928 102.624C272.928 100.866 271.503 99.4404 269.744 99.4404C267.986 99.4404 266.561 100.866 266.561 102.624C266.561 104.383 267.986 105.808 269.744 105.808Z" fill="white"/>
<path d="M250.246 369.713C250.246 369.834 199.409 369.922 136.705 369.922C74.0012 369.922 23.1562 369.834 23.1562 369.713C23.1562 369.592 73.9851 369.504 136.705 369.504C199.425 369.504 250.246 369.6 250.246 369.713Z" fill="#263238"/>
<path d="M580.844 245.632C580.844 245.744 542.509 245.841 495.226 245.841C447.942 245.841 409.6 245.744 409.6 245.632C409.6 245.519 447.926 245.423 495.226 245.423C542.525 245.423 580.844 245.471 580.844 245.632Z" fill="#263238"/>
<path d="M457.34 99.7695L449.557 94.64C448.971 87.2371 445.636 80.3214 440.209 75.2521C434.783 70.1828 427.656 67.3264 420.231 67.2445C412.805 67.1626 405.617 69.8609 400.08 74.8093C394.543 79.7576 391.056 86.5981 390.306 93.9862C389.556 101.374 391.597 108.776 396.027 114.736C400.457 120.696 406.955 124.784 414.246 126.196C421.537 127.608 429.092 126.242 435.427 122.367C441.761 118.491 446.417 112.387 448.48 105.253L457.34 99.7695Z" fill="white"/>
<path d="M457.341 99.7695L456.746 100.123L455.025 101.168L448.432 105.188L448.569 105.269C448.57 105.257 448.569 105.244 448.565 105.233C448.561 105.221 448.554 105.21 448.546 105.201C448.538 105.192 448.528 105.185 448.516 105.18C448.505 105.175 448.493 105.172 448.481 105.172C448.461 105.172 448.441 105.178 448.425 105.189C448.409 105.201 448.398 105.218 448.392 105.237C446.995 109.994 444.434 114.327 440.939 117.843C439.862 118.931 438.701 119.931 437.466 120.834C436.132 121.781 434.729 122.628 433.269 123.367C427.496 126.28 420.927 127.217 414.57 126.035C408.212 124.852 402.419 121.616 398.08 116.822C393.741 112.028 391.096 105.942 390.551 99.4987C390.005 93.0556 391.591 86.6117 395.063 81.1569C397.548 77.2973 400.881 74.0553 404.807 71.6777C408.511 69.4587 412.659 68.086 416.956 67.6577C424.598 66.8968 432.238 69.1209 438.278 73.8646L439.259 74.6686C439.586 74.9136 439.895 75.1823 440.183 75.4726C440.77 76.0515 441.341 76.6304 441.904 77.1932C442.911 78.3581 443.85 79.5795 444.718 80.8514C447.424 84.9721 449.057 89.7035 449.469 94.6159C449.468 94.6295 449.472 94.643 449.479 94.6546C449.486 94.6661 449.497 94.6751 449.51 94.6802L455.307 98.4349L456.81 99.4077L457.341 99.7374C457.341 99.7374 457.188 99.6248 456.858 99.4077L455.395 98.4188L449.606 94.5355V94.5998C449.242 89.6596 447.641 84.8903 444.951 80.7308C444.076 79.4443 443.132 78.207 442.121 77.0243L440.392 75.2797C440.11 74.9765 439.807 74.6944 439.484 74.4355L438.495 73.6315C435.622 71.3482 432.351 69.6172 428.847 68.5261C424.991 67.3147 420.93 66.8936 416.907 67.2879C412.554 67.6983 408.347 69.0714 404.59 71.3079C400.606 73.7067 397.225 76.9883 394.709 80.8996C392.073 85.0067 390.493 89.7021 390.11 94.5676C390.04 95.168 390.011 95.7723 390.022 96.3766V98.1776L390.174 99.9705C390.209 100.565 390.284 101.156 390.4 101.739C390.512 102.326 390.617 102.905 390.721 103.484C390.826 104.063 391.027 104.626 391.179 105.197C391.332 105.767 391.485 106.33 391.686 106.885L392.337 108.493C394.073 112.711 396.768 116.466 400.208 119.459C404.693 123.396 410.257 125.895 416.178 126.635C422.099 127.374 428.106 126.32 433.422 123.608C434.894 122.855 436.307 121.992 437.651 121.027C438.896 120.112 440.066 119.099 441.148 117.996C444.657 114.435 447.212 110.047 448.577 105.237H448.392C448.392 105.261 448.401 105.284 448.417 105.302C448.434 105.32 448.456 105.331 448.481 105.333H448.537L455.13 101.177L456.802 100.115L457.341 99.7695Z" fill="#263238"/>
<path d="M414.069 92.1474C413.366 92.1474 412.679 91.9388 412.094 91.5479C411.51 91.1571 411.054 90.6016 410.785 89.9518C410.517 89.302 410.447 88.587 410.584 87.8975C410.722 87.2079 411.062 86.5747 411.559 86.078C412.057 85.5814 412.691 85.2436 413.381 85.1073C414.071 84.9711 414.786 85.0427 415.435 85.3129C416.084 85.5831 416.638 86.0398 417.028 86.6253C417.417 87.2107 417.625 87.8986 417.623 88.6018C417.621 89.5429 417.246 90.4447 416.579 91.1094C415.913 91.7741 415.01 92.1474 414.069 92.1474ZM414.069 86.9536C413.753 86.9615 413.446 87.0625 413.187 87.2439C412.928 87.4253 412.728 87.6791 412.613 87.9736C412.497 88.268 412.471 88.59 412.537 88.8992C412.604 89.2084 412.76 89.4912 412.987 89.712C413.213 89.9329 413.5 90.0821 413.81 90.141C414.121 90.1998 414.442 90.1657 414.734 90.0429C415.025 89.9201 415.274 89.7141 415.449 89.4506C415.624 89.1871 415.717 88.8779 415.718 88.5616C415.718 88.347 415.675 88.1345 415.591 87.9368C415.508 87.739 415.386 87.5599 415.232 87.4101C415.079 87.2602 414.897 87.1426 414.697 87.0642C414.497 86.9858 414.284 86.9482 414.069 86.9536Z" fill="#263238"/>
<path d="M414.069 109.032C413.366 109.032 412.679 108.823 412.095 108.433C411.511 108.042 411.055 107.487 410.786 106.838C410.517 106.189 410.447 105.474 410.584 104.785C410.721 104.095 411.059 103.462 411.556 102.965C412.053 102.468 412.687 102.13 413.376 101.993C414.065 101.855 414.78 101.926 415.429 102.195C416.079 102.464 416.634 102.919 417.024 103.504C417.415 104.088 417.623 104.775 417.623 105.478C417.623 106.42 417.249 107.324 416.582 107.991C415.916 108.657 415.012 109.032 414.069 109.032ZM414.069 103.838C413.753 103.846 413.446 103.947 413.187 104.128C412.928 104.31 412.728 104.563 412.613 104.858C412.497 105.152 412.471 105.474 412.537 105.783C412.604 106.093 412.76 106.375 412.987 106.596C413.213 106.817 413.5 106.966 413.81 107.025C414.121 107.084 414.442 107.05 414.734 106.927C415.025 106.804 415.274 106.598 415.449 106.335C415.624 106.071 415.717 105.762 415.718 105.446C415.718 105.231 415.675 105.019 415.591 104.821C415.508 104.623 415.386 104.444 415.232 104.294C415.079 104.145 414.897 104.027 414.697 103.949C414.497 103.87 414.284 103.832 414.069 103.838Z" fill="#263238"/>
<path d="M428.452 109.032C427.749 109.033 427.061 108.826 426.476 108.437C425.89 108.047 425.434 107.493 425.163 106.844C424.893 106.194 424.822 105.48 424.958 104.79C425.094 104.1 425.432 103.466 425.929 102.968C426.425 102.47 427.058 102.131 427.748 101.993C428.438 101.855 429.153 101.925 429.802 102.194C430.452 102.463 431.008 102.918 431.399 103.503C431.789 104.087 431.998 104.775 431.998 105.478C431.998 106.419 431.625 107.322 430.96 107.988C430.295 108.654 429.393 109.03 428.452 109.032ZM428.452 103.838C428.134 103.838 427.823 103.932 427.559 104.109C427.295 104.286 427.088 104.537 426.967 104.83C426.845 105.124 426.813 105.448 426.875 105.76C426.937 106.071 427.09 106.358 427.315 106.583C427.54 106.808 427.827 106.961 428.139 107.023C428.451 107.085 428.774 107.053 429.068 106.931C429.362 106.81 429.613 106.604 429.789 106.339C429.966 106.075 430.06 105.764 430.06 105.446C430.05 105.023 429.877 104.619 429.578 104.32C429.279 104.021 428.876 103.848 428.452 103.838Z" fill="#263238"/>
<path d="M414.923 91.2393H413.018V103.171H414.923V91.2393Z" fill="#263238"/>
<path d="M429.74 103.621H427.834V93.6755C427.832 92.5737 427.393 91.5177 426.614 90.7386C425.835 89.9596 424.779 89.521 423.678 89.5188H421.201V87.6455H423.678C425.285 87.6476 426.825 88.287 427.962 89.4234C429.098 90.5598 429.738 92.1005 429.74 93.7077V103.621Z" fill="#263238"/>
<path d="M422.552 85.0962V91.8739L418.861 88.6016L422.552 85.0962Z" fill="#263238"/>
<path d="M145.219 233.225L152.286 228.273C152.639 221.414 155.544 214.935 160.431 210.11C165.318 205.285 171.833 202.461 178.696 202.195C185.558 201.929 192.272 204.239 197.518 208.671C202.764 213.103 206.163 219.337 207.047 226.148C207.93 232.959 206.235 239.853 202.293 245.477C198.351 251.102 192.449 255.048 185.746 256.542C179.042 258.035 172.023 256.968 166.066 253.549C160.11 250.13 155.648 244.607 153.556 238.065L145.219 233.225Z" fill="white"/>
<path d="M145.219 233.225L145.782 233.531L147.39 234.456L153.596 238.001L153.468 238.082C153.467 238.07 153.468 238.059 153.471 238.048C153.475 238.038 153.481 238.028 153.488 238.019C153.496 238.011 153.505 238.004 153.515 238C153.526 237.995 153.537 237.993 153.548 237.993C153.567 237.993 153.585 237.998 153.601 238.008C153.616 238.018 153.629 238.033 153.637 238.049C155.053 242.415 157.541 246.357 160.873 249.514C161.897 250.494 163 251.39 164.169 252.192C165.429 253.027 166.745 253.774 168.109 254.427C172.5 256.497 177.364 257.359 182.199 256.923C187.034 256.487 191.665 254.769 195.616 251.947C199.566 249.125 202.692 245.3 204.671 240.868C206.651 236.435 207.413 231.554 206.878 226.729C206.397 222.295 204.825 218.05 202.303 214.372C199.907 210.868 196.741 207.958 193.049 205.865C189.569 203.907 185.696 202.748 181.712 202.472C178.028 202.21 174.329 202.691 170.834 203.887C167.667 204.966 164.726 206.621 162.159 208.768L161.275 209.572C160.972 209.817 160.69 210.085 160.43 210.376L158.887 211.984C157.991 213.089 157.156 214.244 156.386 215.441C153.997 219.328 152.615 223.749 152.366 228.305C152.374 228.326 152.374 228.348 152.366 228.369L147.068 231.963L145.701 232.904L145.219 233.225L145.653 232.904L146.988 231.963L152.238 228.225V228.289C152.451 223.695 153.82 219.229 156.217 215.304C156.986 214.092 157.824 212.924 158.726 211.807L160.286 210.151C160.532 209.862 160.801 209.593 161.09 209.347L161.982 208.543C167.488 203.915 174.578 201.609 181.753 202.111C185.791 202.387 189.718 203.557 193.25 205.536C196.996 207.651 200.209 210.597 202.64 214.146C205.182 217.877 206.764 222.177 207.247 226.665C207.33 227.218 207.373 227.777 207.376 228.337L207.44 230.001L207.344 231.658C207.331 232.21 207.277 232.761 207.183 233.306C207.095 233.844 207.014 234.391 206.926 234.914C206.832 235.456 206.708 235.993 206.556 236.522C206.411 237.044 206.299 237.583 206.13 238.13L205.575 239.649C204.073 243.592 201.679 247.134 198.58 249.997C195.771 252.592 192.455 254.578 188.841 255.83C185.227 257.082 181.393 257.574 177.58 257.273C174.247 257.009 170.991 256.137 167.972 254.7C166.576 254.046 165.232 253.285 163.952 252.425C162.78 251.608 161.673 250.702 160.639 249.715C157.288 246.52 154.799 242.529 153.403 238.114H153.572C153.573 238.125 153.572 238.136 153.569 238.147C153.565 238.158 153.559 238.168 153.552 238.176C153.544 238.184 153.535 238.191 153.525 238.195C153.514 238.2 153.503 238.202 153.492 238.202H153.444L147.237 234.528L145.629 233.587L145.219 233.225Z" fill="#263238"/>
<path d="M170.029 230.106L172.867 227.268L178.343 232.132L189.084 221.792L191.721 224.631L177.941 237.607L170.029 230.106Z" fill="#263238"/>
<path d="M508.09 331.346H186.973V332.15H508.09V331.346Z" fill="#263238"/>
<path d="M350.755 165.015H271.279V165.819H350.755V165.015Z" fill="#263238"/>
<path d="M544.857 331.346H526.1V332.15H544.857V331.346Z" fill="#263238"/>
<path d="M520.858 331.346H511.041V332.15H520.858V331.346Z" fill="#263238"/>
<path d="M253.56 178.434H252.756V310.458H253.56V178.434Z" fill="#263238"/>
<path d="M460.991 302.113H460.187V292.465H460.991V302.113ZM459.946 282.881C459.511 279.738 458.482 276.707 456.915 273.948L457.614 273.546C459.232 276.397 460.294 279.529 460.742 282.776L459.946 282.881ZM450.821 266.745C448.357 264.74 445.536 263.22 442.507 262.266L442.748 261.503C445.875 262.482 448.786 264.049 451.327 266.118L450.821 266.745ZM433.133 261.117H423.485V260.313H433.133V261.117ZM413.837 261.117H404.189V260.313H413.837V261.117ZM394.541 261.117C391.266 261.041 388.036 260.345 385.021 259.066L385.335 258.327C388.259 259.564 391.39 260.238 394.565 260.313L394.541 261.117ZM376.885 253.672C374.541 251.381 372.653 248.666 371.321 245.672L372.053 245.35C373.348 248.247 375.179 250.874 377.448 253.093L376.885 253.672ZM369.086 236.193C369.086 235.815 369.086 235.429 369.086 235.043V226.488H369.89V235.003C369.89 235.381 369.89 235.75 369.89 236.12L369.086 236.193ZM369.89 216.897H369.086V207.249H369.89V216.897ZM369.89 197.601H369.086V187.953H369.89V197.601Z" fill="#263238"/>
<path d="M286.129 142.985H205.874C194.84 142.985 185.895 151.929 185.895 162.961C185.895 173.993 194.84 182.936 205.874 182.936H286.129C297.164 182.936 306.109 173.993 306.109 162.961C306.109 151.929 297.164 142.985 286.129 142.985Z" fill="url(#paint0_linear_1353_13002)"/>
<path d="M213.746 162.378C213.746 163.986 212.548 164.951 210.643 164.951H209.429V166.776H207.459V159.797H210.675C212.548 159.797 213.746 160.786 213.746 162.378ZM211.752 162.378C211.752 161.735 211.342 161.357 210.522 161.357H209.429V163.399H210.522C211.342 163.399 211.752 163.021 211.752 162.378Z" fill="white"/>
<path d="M214.564 163.664V159.797H216.542V163.624C216.542 164.814 217.033 165.296 217.861 165.296C218.689 165.296 219.179 164.814 219.179 163.624V159.813H221.117V163.68C221.156 164.117 221.098 164.558 220.947 164.97C220.796 165.382 220.555 165.755 220.242 166.062C219.929 166.37 219.551 166.604 219.137 166.749C218.722 166.893 218.281 166.943 217.845 166.896C215.778 166.912 214.564 165.746 214.564 163.664Z" fill="white"/>
<path d="M222.453 159.797H224.423V165.232H227.751V166.8H222.453V159.797Z" fill="white"/>
<path d="M228.529 159.797H230.499V165.232H233.828V166.8H228.529V159.797Z" fill="white"/>
<path d="M240.549 164.918H239.472V166.776H237.502V159.797H240.718C242.623 159.797 243.821 160.786 243.821 162.378C243.839 162.839 243.719 163.296 243.475 163.688C243.232 164.081 242.876 164.392 242.455 164.581L243.958 166.776H241.844L240.549 164.918ZM240.549 161.357H239.456V163.399H240.549C241.353 163.399 241.779 163.021 241.779 162.378C241.779 161.735 241.385 161.357 240.565 161.357H240.549Z" fill="white"/>
<path d="M250.472 165.232V166.76H244.844V159.781H250.319V161.309H246.797V162.483H249.893V163.962H246.797V165.232H250.472Z" fill="white"/>
<path d="M259.3 167.58C259.064 167.866 258.767 168.093 258.429 168.245C258.092 168.397 257.724 168.469 257.354 168.456C256.212 168.456 255.465 168.07 254.299 166.848C253.435 166.735 252.643 166.309 252.071 165.651C251.499 164.994 251.188 164.15 251.195 163.279C251.259 162.294 251.695 161.37 252.415 160.695C253.134 160.021 254.084 159.645 255.071 159.645C256.057 159.645 257.007 160.021 257.727 160.695C258.447 161.37 258.883 162.294 258.946 163.279C258.954 164.018 258.73 164.741 258.304 165.346C257.878 165.951 257.273 166.406 256.574 166.647C256.67 166.769 256.792 166.867 256.932 166.936C257.071 167.004 257.223 167.04 257.378 167.041C257.577 167.035 257.773 166.99 257.954 166.907C258.135 166.824 258.297 166.706 258.431 166.559L259.3 167.58ZM255.071 165.281C255.469 165.303 255.865 165.206 256.207 165.001C256.55 164.796 256.823 164.493 256.991 164.131C257.159 163.769 257.215 163.365 257.152 162.971C257.088 162.577 256.907 162.212 256.634 161.921C256.36 161.631 256.005 161.43 255.616 161.343C255.226 161.257 254.819 161.289 254.449 161.436C254.078 161.583 253.759 161.838 253.535 162.168C253.31 162.498 253.19 162.888 253.189 163.287C253.172 163.544 253.207 163.801 253.294 164.044C253.381 164.286 253.517 164.508 253.694 164.695C253.87 164.883 254.084 165.031 254.321 165.132C254.558 165.233 254.813 165.283 255.071 165.281Z" fill="white"/>
<path d="M259.92 163.664V159.797H261.89V163.624C261.89 164.814 262.388 165.296 263.216 165.296C264.044 165.296 264.535 164.814 264.535 163.624V159.813H266.473V163.68C266.512 164.117 266.454 164.558 266.302 164.97C266.151 165.382 265.91 165.755 265.597 166.062C265.284 166.37 264.907 166.604 264.492 166.749C264.078 166.893 263.637 166.943 263.2 166.896C261.134 166.912 259.92 165.746 259.92 163.664Z" fill="white"/>
<path d="M273.401 165.232V166.76H267.773V159.781H273.241V161.309H269.759V162.483H272.855V163.962H269.759V165.232H273.401Z" fill="white"/>
<path d="M274.012 166.149L274.655 164.693C275.343 165.131 276.139 165.367 276.954 165.377C277.758 165.377 278.096 165.152 278.096 164.814C278.096 163.704 274.132 164.508 274.132 161.92C274.132 160.673 275.145 159.66 277.22 159.66C278.099 159.646 278.968 159.856 279.744 160.271L279.141 161.735C278.55 161.397 277.884 161.212 277.204 161.196C276.4 161.196 276.078 161.469 276.078 161.823C276.078 162.884 280.034 162.088 280.034 164.661C280.034 165.875 279.021 166.912 276.946 166.912C275.916 166.94 274.898 166.675 274.012 166.149Z" fill="white"/>
<path d="M282.326 161.365H280.188V159.797H286.427V161.365H284.312V166.776H282.342L282.326 161.365Z" fill="white"/>
<path d="M381.179 352.258H346.037C344.886 352.273 343.777 351.831 342.953 351.029C342.128 350.227 341.656 349.131 341.639 347.981V300.674C341.656 299.524 342.128 298.427 342.953 297.625C343.777 296.823 344.886 296.381 346.037 296.396H368.323L385.617 313.69V347.981C385.609 348.554 385.487 349.12 385.259 349.645C385.031 350.171 384.702 350.646 384.289 351.044C383.877 351.441 383.389 351.753 382.856 351.962C382.322 352.17 381.752 352.271 381.179 352.258Z" fill="#455A64"/>
<g opacity="0.2">
<path d="M368.322 296.396V309.711C368.327 310.241 368.438 310.766 368.647 311.254C368.856 311.741 369.159 312.183 369.539 312.553C369.92 312.923 370.37 313.214 370.863 313.409C371.357 313.605 371.884 313.7 372.415 313.691H385.616L368.322 296.396Z" fill="white"/>
</g>
<g opacity="0.2">
<path d="M368.507 310.876C368.507 310.876 368.33 314.092 372.109 315.17L372.543 315.266C374.264 315.564 385.576 317.518 385.576 317.268V313.69H372.415C372.415 313.69 369.126 313.578 368.507 310.876Z" fill="black"/>
</g>
<g opacity="0.3">
<path d="M341.637 334.65H385.616V349.058C385.616 349.911 385.277 350.729 384.674 351.332C384.071 351.935 383.253 352.274 382.4 352.274H344.837C343.984 352.274 343.166 351.935 342.563 351.332C341.96 350.729 341.621 349.911 341.621 349.058V334.65H341.637Z" fill="black"/>
</g>
<path d="M359.413 319.053L354.139 321.465L359.413 323.877V326.37L351.848 322.816V320.227L359.389 316.625L359.413 319.053Z" fill="white"/>
<path d="M367.928 323.917L373.202 321.505L367.928 319.093V316.601L375.469 320.203V322.816L367.928 326.385V323.917Z" fill="white"/>
<path d="M363.249 314.133L365.58 314.084L363.812 329.095L361.496 329.039L363.249 314.133Z" fill="white"/>
<path d="M279.552 352.258H244.41C243.259 352.273 242.15 351.831 241.326 351.029C240.501 350.227 240.029 349.131 240.012 347.981V300.674C240.029 299.524 240.501 298.427 241.326 297.625C242.15 296.823 243.259 296.381 244.41 296.396H266.696L283.95 313.69V347.981C283.933 349.131 283.461 350.227 282.636 351.029C281.812 351.831 280.703 352.273 279.552 352.258Z" fill="#455A64"/>
<g opacity="0.2">
<path d="M266.699 296.396V309.71C266.704 310.24 266.814 310.764 267.023 311.251C267.231 311.739 267.534 312.18 267.914 312.55C268.293 312.92 268.742 313.211 269.235 313.406C269.727 313.602 270.254 313.699 270.784 313.69H283.953L266.699 296.396Z" fill="white"/>
</g>
<g opacity="0.2">
<path d="M266.872 310.876C266.872 310.876 266.703 314.092 270.482 315.17C270.619 315.21 270.772 315.234 270.916 315.266C272.629 315.564 283.949 317.518 283.949 317.268V313.69H270.78C270.78 313.69 267.499 313.578 266.872 310.876Z" fill="black"/>
</g>
<g opacity="0.3">
<path d="M240.012 334.651H283.951V349.059C283.951 349.912 283.612 350.729 283.009 351.333C282.406 351.936 281.588 352.275 280.735 352.275H243.212C242.359 352.275 241.541 351.936 240.938 351.333C240.335 350.729 239.996 349.912 239.996 349.059V334.651H240.012Z" fill="black"/>
</g>
<path d="M257.782 319.053L252.507 321.465L257.782 323.877V326.37L250.248 322.816V320.227L257.79 316.625L257.782 319.053Z" fill="white"/>
<path d="M266.279 323.917L271.554 321.505L266.279 319.093V316.601L273.821 320.203V322.816L266.279 326.425V323.917Z" fill="white"/>
<path d="M261.624 314.133L263.948 314.084L262.179 329.095L259.863 329.039L261.624 314.133Z" fill="white"/>
<path d="M385.085 202.023H351.317C350.212 202.038 349.145 201.614 348.353 200.844C347.56 200.073 347.105 199.02 347.088 197.915V152.424C347.105 151.319 347.56 150.266 348.353 149.495C349.145 148.725 350.212 148.301 351.317 148.316L375.976 148.742L389.338 164.943V197.907C389.331 198.457 389.215 199 388.997 199.505C388.779 200.01 388.463 200.467 388.068 200.849C387.672 201.232 387.205 201.533 386.694 201.734C386.182 201.935 385.635 202.034 385.085 202.023Z" fill="#455A64"/>
<g opacity="0.3">
<path d="M347.066 185.099H389.316V198.831C389.316 199.684 388.977 200.502 388.374 201.105C387.771 201.709 386.953 202.047 386.1 202.047H350.241C349.388 202.047 348.57 201.709 347.967 201.105C347.364 200.502 347.025 199.684 347.025 198.831V185.099H347.066Z" fill="black"/>
</g>
<path d="M364.158 170.104L359.085 172.468L364.158 174.792V177.204L356.922 173.738V171.254L364.158 167.781V170.104Z" fill="white"/>
<path d="M372.326 174.775L377.391 172.436L372.326 170.12V167.708L379.562 171.181V173.666L372.326 177.131V174.775Z" fill="white"/>
<path d="M367.849 165.377L370.084 165.32L368.387 179.792L366.16 179.704L367.849 165.377Z" fill="white"/>
<path d="M386.044 168.094C392.931 168.094 398.514 162.511 398.514 155.624C398.514 148.737 392.931 143.154 386.044 143.154C379.157 143.154 373.574 148.737 373.574 155.624C373.574 162.511 379.157 168.094 386.044 168.094Z" fill="white"/>
<path d="M398.482 155.624C398.398 154.606 398.239 153.596 398.007 152.601C397.712 151.441 397.243 150.332 396.617 149.313C395.144 146.857 392.86 144.992 390.159 144.04C387.459 143.087 384.511 143.106 381.823 144.095C379.545 144.927 377.564 146.415 376.131 148.372C374.587 150.469 373.754 153.004 373.754 155.608C373.754 158.212 374.587 160.747 376.131 162.844C377.564 164.801 379.545 166.289 381.823 167.121C384.512 168.097 387.456 168.11 390.153 167.158C392.851 166.207 395.135 164.35 396.617 161.903C397.243 160.884 397.712 159.775 398.007 158.615C398.239 157.62 398.398 156.61 398.482 155.592C398.491 155.658 398.491 155.726 398.482 155.793C398.482 155.954 398.482 156.147 398.482 156.388C398.483 156.711 398.456 157.034 398.401 157.353C398.358 157.792 398.28 158.228 398.168 158.655C397.897 159.842 397.441 160.979 396.818 162.024C395.332 164.558 393.007 166.492 390.244 167.491C387.482 168.49 384.457 168.49 381.694 167.491C380.542 167.082 379.458 166.502 378.478 165.77C377.444 165.026 376.537 164.119 375.793 163.085C374.185 160.918 373.316 158.291 373.316 155.592C373.316 152.893 374.185 150.266 375.793 148.099C376.173 147.579 376.59 147.088 377.039 146.627C377.491 146.19 377.972 145.785 378.478 145.413C379.456 144.678 380.54 144.098 381.694 143.693C383.824 142.928 386.12 142.748 388.343 143.17C390.113 143.505 391.791 144.216 393.262 145.255C394.734 146.294 395.965 147.636 396.874 149.192C397.498 150.237 397.954 151.374 398.225 152.561C398.337 152.988 398.415 153.424 398.458 153.863C398.512 154.182 398.539 154.505 398.538 154.828C398.538 155.069 398.538 155.262 398.538 155.423C398.528 155.492 398.509 155.56 398.482 155.624Z" fill="#263238"/>
<path d="M379.893 156.701L381.581 155.005L384.845 157.907L391.245 151.749L392.813 153.437L384.596 161.163L379.893 156.701Z" fill="url(#paint1_linear_1353_13002)"/>
<path d="M482.812 352.258H447.669C446.519 352.273 445.41 351.831 444.586 351.029C443.761 350.227 443.288 349.131 443.271 347.981V300.674C443.288 299.524 443.761 298.427 444.586 297.625C445.41 296.823 446.519 296.381 447.669 296.396H469.956L487.21 313.69V347.981C487.193 349.131 486.721 350.227 485.896 351.029C485.071 351.831 483.962 352.273 482.812 352.258Z" fill="#455A64"/>
<g opacity="0.2">
<path d="M469.957 296.396V309.71C469.962 310.24 470.072 310.764 470.281 311.251C470.489 311.739 470.792 312.18 471.171 312.55C471.551 312.92 472 313.211 472.492 313.406C472.985 313.602 473.511 313.699 474.041 313.69H487.211L469.957 296.396Z" fill="white"/>
</g>
<g opacity="0.2">
<path d="M470.134 310.876C470.134 310.876 469.965 314.092 473.744 315.17C473.881 315.21 474.025 315.234 474.178 315.266C475.891 315.564 487.211 317.518 487.211 317.268V313.69H474.057C474.057 313.69 470.761 313.578 470.134 310.876Z" fill="black"/>
</g>
<g opacity="0.3">
<path d="M443.272 334.651H487.211V349.059C487.211 349.912 486.872 350.729 486.269 351.333C485.665 351.936 484.847 352.275 483.995 352.275H446.472C445.619 352.275 444.801 351.936 444.198 351.333C443.595 350.729 443.256 349.912 443.256 349.059V334.651H443.272Z" fill="black"/>
</g>
<path d="M461.049 319.053L455.775 321.465L461.049 323.877V326.37L453.508 322.816V320.227L461.049 316.625V319.053Z" fill="white"/>
<path d="M469.539 323.917L474.813 321.505L469.539 319.093V316.601L477.081 320.203V322.816L469.539 326.425V323.917Z" fill="white"/>
<path d="M464.882 314.133L467.205 314.084L465.437 329.095L463.121 329.039L464.882 314.133Z" fill="white"/>
<path d="M495.322 43.2889C493.572 43.0428 491.789 43.26 490.149 43.9188C488.51 44.5777 487.072 45.6551 485.979 47.0436C484.752 46.7729 483.473 46.8625 482.296 47.3017C481.118 47.7409 480.093 48.5109 479.343 49.5191C478.593 50.5274 478.15 51.7309 478.068 52.9848C477.986 54.2387 478.268 55.4896 478.88 56.5871C477.983 57.2257 477.243 58.0607 476.717 59.0285C476.192 59.9963 475.894 61.0713 475.847 62.1716C475.799 63.2719 476.004 64.3685 476.444 65.3778C476.885 66.3872 477.55 67.2826 478.39 67.9958L503.145 49.6486C502.512 47.9961 501.457 46.5388 500.084 45.4226C498.711 44.3065 497.069 43.5707 495.322 43.2889Z" fill="#263238"/>
<path d="M478.205 69.1695C479.028 62.8738 482.192 57.1191 487.067 53.0515C491.942 48.9839 498.171 46.9019 504.512 47.2203L505.814 47.2846C519.86 48.8041 526.421 61.5877 524.507 75.5854L520.133 122.402L519.9 124.678L487.065 129.582L487.708 117.618C487.708 117.618 474.265 114.845 474.772 101.289C475.013 94.7447 476.613 81.3099 478.205 69.1695Z" fill="#AE7461"/>
<path d="M487.597 117.595C493.886 117.91 500.133 116.414 505.598 113.285C505.598 113.285 500.943 122.821 487.492 120.931L487.597 117.595Z" fill="#6F4439"/>
<path d="M481.814 81.6802C481.783 82.1839 481.949 82.68 482.278 83.0629C482.607 83.4458 483.072 83.6853 483.575 83.7304C483.817 83.7619 484.064 83.7454 484.3 83.6816C484.536 83.6178 484.757 83.5081 484.95 83.3587C485.143 83.2093 485.306 83.0232 485.427 82.811C485.548 82.5989 485.627 82.3649 485.657 82.1224C485.684 81.8673 485.659 81.6095 485.585 81.3642C485.51 81.1189 485.387 80.891 485.223 80.6939C485.059 80.4969 484.857 80.3346 484.629 80.2168C484.401 80.099 484.152 80.0279 483.897 80.0079C483.649 79.9754 483.398 79.9934 483.158 80.0608C482.917 80.1281 482.693 80.2433 482.499 80.3996C482.304 80.5558 482.143 80.7498 482.025 80.9699C481.908 81.19 481.836 81.4316 481.814 81.6802Z" fill="#263238"/>
<path d="M480.784 75.9392C481.01 76.2045 482.529 75.1914 484.611 75.304C486.694 75.4166 488.165 76.5261 488.406 76.2849C488.519 76.1804 488.302 75.714 487.659 75.1914C486.788 74.5227 485.732 74.1406 484.636 74.098C483.555 74.0351 482.483 74.3166 481.572 74.902C480.913 75.3764 480.672 75.8266 480.784 75.9392Z" fill="#263238"/>
<path d="M501.181 83.2237C501.15 83.7266 501.317 84.2218 501.646 84.6034C501.975 84.985 502.44 85.2227 502.942 85.2659C503.185 85.2974 503.431 85.2808 503.667 85.2171C503.903 85.1533 504.124 85.0435 504.317 84.8942C504.511 84.7448 504.673 84.5587 504.794 84.3465C504.915 84.1344 504.994 83.9003 505.025 83.6579C505.054 83.1533 504.885 82.6572 504.555 82.2746C504.225 81.892 503.759 81.6528 503.256 81.6077C503.013 81.5762 502.767 81.5931 502.531 81.6575C502.295 81.7219 502.074 81.8324 501.881 81.9827C501.688 82.133 501.527 82.3201 501.407 82.5331C501.287 82.7461 501.21 82.9809 501.181 83.2237Z" fill="#263238"/>
<path d="M501.224 77.3466C501.449 77.6119 502.968 76.5989 505.051 76.7115C507.133 76.824 508.604 77.9335 508.845 77.6923C508.958 77.5798 508.741 77.1135 508.098 76.5989C507.226 75.9319 506.171 75.5475 505.075 75.4974C503.994 75.4345 502.922 75.716 502.011 76.3014C501.392 76.7919 501.111 77.226 501.224 77.3466Z" fill="#263238"/>
<path d="M492.902 92.4053C492.902 92.2847 491.639 91.9953 489.557 91.6013C489.026 91.5209 488.528 91.3923 488.455 91.0224C488.44 90.4707 488.591 89.927 488.89 89.4627L490.658 85.499C493.127 79.871 494.944 75.1836 494.719 75.047C494.494 74.9103 492.307 79.4529 489.83 85.105L488.126 89.125C487.735 89.7646 487.592 90.5256 487.724 91.2636C487.791 91.4483 487.898 91.616 488.037 91.7549C488.175 91.8939 488.343 92.0006 488.528 92.0676C488.816 92.1645 489.116 92.2213 489.42 92.2365C491.583 92.4455 492.886 92.5179 492.902 92.4053Z" fill="#263238"/>
<path d="M498.981 94.15C498.643 94.15 498.522 96.369 496.512 97.8806C494.502 99.3921 492.106 99.0142 492.074 99.3277C492.074 99.4725 492.589 99.7941 493.602 99.8745C494.924 99.9593 496.234 99.5749 497.3 98.7891C498.324 98.0324 499.016 96.9087 499.23 95.6535C499.334 94.7128 499.109 94.1419 498.981 94.15Z" fill="#263238"/>
<path d="M501.087 69.162C501.264 69.7408 503.363 69.572 505.783 69.966C508.203 70.3599 510.156 71.1478 510.502 70.6574C510.663 70.4162 510.341 69.8534 509.578 69.2826C508.551 68.5488 507.367 68.0669 506.12 67.8756C504.879 67.6618 503.605 67.75 502.406 68.1328C501.489 68.4705 501.015 68.8886 501.087 69.162Z" fill="#263238"/>
<path d="M481.845 69.9577C482.191 70.4481 483.646 70.03 485.375 70.0944C487.103 70.1587 488.542 70.5687 488.904 70.0944C489.065 69.8612 488.856 69.3788 488.237 68.9044C487.421 68.2957 486.433 67.9608 485.415 67.9477C484.4 67.9131 483.4 68.194 482.552 68.7517C481.925 69.2421 481.7 69.7165 481.845 69.9577Z" fill="#263238"/>
<path d="M479.813 63.027C479.813 63.027 483.833 54.7217 487.997 52.9448C493.063 50.7981 494.928 56.3377 499.712 55.2523C504.495 54.1669 509.36 52.1006 513.975 55.992C519.056 60.2451 516.443 62.9225 516.467 68.9444C516.58 93.3699 520.688 100.485 522.521 89.0444C522.722 87.7982 526.26 86.9701 527.04 81.6878C528.053 74.8297 528.736 66.4842 527.442 61.5155C526.348 57.3347 524.145 54.3679 520.085 51.0233C513.653 45.741 504.56 45.1782 498.321 45.4998C492.082 45.8214 479.78 52.382 479.813 63.027Z" fill="#263238"/>
<path d="M521.676 88.6586C521.718 88.1629 521.859 87.6808 522.092 87.2413C522.325 86.8018 522.645 86.4141 523.032 86.1015C523.419 85.7889 523.865 85.558 524.344 85.4226C524.822 85.2873 525.323 85.2503 525.817 85.314C528.333 85.6838 531.075 87.2516 530.641 92.4615C529.885 101.708 520.76 99.0463 520.768 98.7729C520.776 98.4996 521.322 92.5258 521.676 88.6586Z" fill="#AE7461"/>
<path d="M523.099 95.4605C523.148 95.4605 523.252 95.5892 523.517 95.7339C523.885 95.9304 524.314 95.9765 524.715 95.8625C525.72 95.5811 526.669 94.1018 526.854 92.4375C526.938 91.645 526.847 90.8436 526.589 90.0898C526.526 89.7941 526.392 89.5181 526.199 89.2856C526.005 89.0531 525.758 88.8711 525.479 88.7552C525.297 88.6871 525.097 88.6871 524.915 88.755C524.734 88.823 524.583 88.9544 524.49 89.125C524.345 89.3743 524.394 89.5592 524.345 89.5753C524.297 89.5913 524.153 89.3984 524.265 89.0285C524.331 88.8007 524.477 88.604 524.675 88.4738C524.945 88.3035 525.271 88.2458 525.584 88.313C525.961 88.4215 526.304 88.6271 526.578 88.9092C526.851 89.1913 527.046 89.5401 527.143 89.921C527.477 90.7519 527.598 91.6525 527.497 92.542C527.28 94.4073 526.187 96.0716 524.82 96.3449C524.566 96.3984 524.303 96.3936 524.051 96.3309C523.799 96.2683 523.564 96.1494 523.365 95.9831C523.099 95.6857 523.035 95.4766 523.099 95.4605Z" fill="#6F4439"/>
<path d="M525.167 73.0128C523.893 73.9436 522.406 74.5406 520.842 74.7495C519.234 74.8299 517.529 73.8409 517.344 72.2812C517.256 71.5817 517.465 70.7857 517.039 70.2229C516.613 69.6601 515.503 69.7084 514.627 69.7566C513.155 69.7986 511.714 69.3346 510.543 68.442C509.373 67.5494 508.544 66.2823 508.195 64.8522C507.391 65.9296 505.678 65.7929 504.593 65.013C503.507 64.2331 502.848 63.0191 502.02 61.9739C501.192 60.9287 500.002 59.9639 498.675 60.0845C497.936 60.1569 497.22 60.5589 496.48 60.4543C495.178 60.2775 494.615 58.7097 494.478 57.3991C494.342 56.0886 494.261 54.561 493.192 53.7972C492.123 53.0334 490.844 53.4033 489.622 53.5239C488.4 53.6445 486.865 53.2827 486.615 52.0847C486.581 51.765 486.611 51.4417 486.704 51.1338C486.796 50.8259 486.949 50.5396 487.154 50.2918C488.028 49.1134 489.277 48.2671 490.696 47.8917C492.114 47.5163 493.618 47.634 494.961 48.2255C495.56 46.603 496.614 45.1877 497.998 44.1495C499.381 43.1113 501.034 42.4943 502.76 42.3724C506.193 42.1794 509.393 41.1985 510.888 44.302C513.091 42.493 516.46 44.8648 519.209 45.6366C520.582 46.0357 521.841 46.7535 522.883 47.7316C523.925 48.7097 524.722 49.9202 525.207 51.2646C526.449 50.9915 527.745 51.0927 528.929 51.5556C530.114 52.0184 531.135 52.8221 531.863 53.865C532.591 54.908 532.993 56.1433 533.019 57.4149C533.045 58.6865 532.694 59.9373 532.009 61.0091C533.754 62.1186 535.225 63.9839 535.137 66.0502C535.048 68.1165 532.958 70.0702 530.988 69.435C531.307 70.2623 531.307 71.1785 530.989 72.0061C530.671 72.8337 530.057 73.5137 529.266 73.9142C528.475 74.3147 527.563 74.4072 526.708 74.1739C525.853 73.9405 525.114 73.3978 524.636 72.651" fill="#263238"/>
<path d="M549.986 203.02L577.322 197.118C577.322 197.118 573.575 176.552 568.912 155.696C565.19 139.061 546.81 134.446 546.81 134.446L525.512 125.032L522.642 113.977C510.936 119.765 499.575 125.337 492.725 128.127L486.454 121.196L483.793 129.518L481.55 129.751C481.55 129.751 472.28 132.565 471.347 132.637C462.865 133.313 451.802 142.808 447.661 152.737C445.948 156.846 439.316 181.416 434.459 206.855C430.938 225.258 428.904 243.123 428.027 245.543L455.363 245.599L461.667 206.855L463.516 245.816L556.563 245.527L549.946 206.372L549.986 203.02Z" fill="url(#paint2_linear_1353_13002)"/>
<path d="M457.59 161.075C457.509 161.075 458.281 171.334 459.318 183.973C460.355 196.612 461.264 206.855 461.352 206.847C461.441 206.839 460.661 196.588 459.624 183.949C458.587 171.31 457.678 161.067 457.59 161.075Z" fill="#263238"/>
<path d="M525.511 125.377L497.845 139.27L492.691 128.014C492.691 128.014 501.953 123.994 510.379 119.54C518.974 114.957 522.319 113.984 522.319 113.984" fill="#E0E0E0"/>
<path d="M486.155 121.205L492.427 128.127L486.774 138.209L483.494 129.526" fill="#E0E0E0"/>
<path d="M552.76 138.298C552.808 138.354 551.891 139.102 550.597 140.396C547.22 143.886 544.879 148.245 543.835 152.987C543.441 154.796 543.345 155.946 543.272 155.946C543.235 155.679 543.235 155.408 543.272 155.142C543.312 154.402 543.401 153.666 543.538 152.939C544.423 148.076 546.82 143.616 550.388 140.195C550.918 139.679 551.482 139.198 552.076 138.756C552.278 138.568 552.509 138.413 552.76 138.298Z" fill="#263238"/>
<path d="M492.724 128.015C492.78 128.015 492.112 129.076 491.116 130.764C490.119 132.453 488.768 134.833 487.49 137.55C487.385 137.775 487.289 138 487.192 138.201L486.991 138.635L486.79 138.209C485.745 136.023 484.848 133.77 484.105 131.464C483.831 130.587 483.63 129.856 483.51 129.373C483.42 129.115 483.374 128.843 483.373 128.569C483.429 128.569 483.775 129.623 484.394 131.351C485.013 133.08 485.946 135.436 487.168 138H486.774L487.071 137.341C488.169 135.003 489.426 132.744 490.834 130.579C491.373 129.775 491.839 129.092 492.169 128.65C492.324 128.414 492.511 128.2 492.724 128.015Z" fill="#263238"/>
<path d="M523.1 126.64C522.966 126.682 522.837 126.736 522.714 126.8L521.644 127.307L517.745 129.212L504.881 135.604L497.822 139.158L498.015 139.23L494.252 131.142C493.794 130.177 493.448 129.405 493.151 128.843L492.853 128.232C492.821 128.16 492.781 128.092 492.732 128.031C492.747 128.109 492.774 128.185 492.813 128.256L493.07 128.875L494.099 131.214C495.008 133.232 496.278 136.038 497.757 139.343L497.822 139.471L497.95 139.407L505.018 135.878L517.809 129.405L521.668 127.411L522.714 126.857C522.851 126.801 522.981 126.728 523.1 126.64Z" fill="#263238"/>
<path d="M574.329 183C574.329 183 580.005 210.424 580.463 216.768C581.372 229.19 575.414 236.635 569.794 240.164C563.957 243.823 531.017 245.551 531.017 245.551L529.023 225.853L550.434 212.885L547.532 190.437L574.329 183Z" fill="url(#paint3_linear_1353_13002)"/>
<path d="M550.314 212.129C550.31 211.978 550.297 211.828 550.274 211.679C550.226 211.357 550.17 210.931 550.089 210.392C549.92 209.243 549.679 207.635 549.382 205.665C548.747 201.645 547.886 196.145 546.93 190.075C545.048 178.2 543.714 169.646 543.44 168.038C543.426 168.187 543.426 168.338 543.44 168.488C543.44 168.793 543.513 169.228 543.577 169.782C543.714 170.908 543.939 172.524 544.228 174.526C544.807 178.546 545.651 184.037 546.64 190.123C547.629 196.21 548.505 201.717 549.181 205.697C549.51 207.659 549.792 209.267 549.985 210.408C550.081 210.939 550.162 211.365 550.218 211.687C550.236 211.837 550.268 211.985 550.314 212.129Z" fill="#263238"/>
<path d="M571.565 239.023C571.504 239.059 571.448 239.102 571.396 239.151C571.251 239.292 571.089 239.413 570.914 239.513C570.246 239.927 569.53 240.259 568.783 240.502C566.017 241.408 563.18 242.08 560.301 242.512C550.601 244.033 540.822 244.989 531.011 245.374L531.172 245.503C530.971 243.565 530.77 241.483 530.553 239.441C530.071 234.665 529.604 230.058 529.17 225.813L529.098 225.95L549.849 213.415L555.839 209.765L557.447 208.776L557.849 208.519L557.985 208.422C557.985 208.422 557.937 208.422 557.841 208.495L557.415 208.736L555.807 209.677L549.769 213.262L528.969 225.7L528.889 225.749V225.837C529.315 230.09 529.781 234.681 530.263 239.505C530.473 241.579 530.682 243.63 530.883 245.567V245.712H531.019C540.839 245.322 550.626 244.334 560.325 242.753C563.211 242.297 566.051 241.592 568.815 240.647C569.564 240.389 570.277 240.038 570.938 239.601C571.11 239.491 571.269 239.361 571.412 239.216C571.469 239.156 571.521 239.092 571.565 239.023Z" fill="#263238"/>
<g opacity="0.3">
<path d="M564.907 204.757C564.706 204.506 564.42 204.337 564.103 204.282C562.495 203.92 560.887 204.499 559.424 205.175C554.996 207.293 551.119 210.408 548.096 214.276L548.466 214.067C553.482 211.1 557.921 208.093 563.299 206.662C563.784 206.572 564.243 206.374 564.642 206.083C564.834 205.927 564.965 205.71 565.013 205.468C565.062 205.225 565.024 204.974 564.907 204.757Z" fill="black"/>
</g>
<path d="M529.322 227.051L526.548 227.308C526.548 227.308 526.187 223.288 525.56 221.729C524.932 220.169 523.759 215.345 523.759 215.345C523.759 215.345 511.353 210.127 511.08 210.127C510.806 210.127 498.674 213.472 498.674 213.472C498.674 213.472 498.947 216.792 503.08 216.977C505.554 217.086 508.032 216.876 510.452 216.35L514.32 217.789L506.585 218.28L493.014 226.416C493.014 226.416 493.102 228.828 498.408 227.582C503.715 226.336 506.448 224.076 506.448 224.076L516.426 225.532L505.87 226.03L497.958 229.986C497.958 229.986 498.023 233.266 501.263 232.454C504.503 231.642 506.674 231.16 506.674 231.16L516.113 232.277L508.113 232.719C508.113 232.719 502.718 232.864 502.991 234.327C503.265 235.791 507.22 237.021 507.22 237.021L512.848 238.018C512.848 238.018 513.057 240.534 514.046 241.338C515.035 242.142 516.563 243.276 517.463 243.292C518.364 243.308 531.035 243.983 531.035 243.983L529.322 227.051Z" fill="#AE7461"/>
<path d="M522.408 239.336C522.58 239.251 522.742 239.145 522.891 239.023C523.298 238.702 523.673 238.341 524.008 237.945C525.126 236.616 525.833 234.99 526.042 233.266C526.156 232.32 526.112 231.361 525.914 230.428C525.729 229.576 525.431 228.82 525.343 228.217C525.256 227.719 525.297 227.207 525.463 226.73C525.535 226.557 525.616 226.388 525.705 226.223C525.553 226.346 525.436 226.507 525.367 226.689C525.151 227.176 525.079 227.715 525.158 228.241C525.222 228.909 525.504 229.648 525.672 230.484C525.851 231.39 525.886 232.318 525.777 233.234C525.57 234.91 524.908 236.498 523.863 237.825C523.412 238.36 522.926 238.865 522.408 239.336Z" fill="#6F4439"/>
<path d="M520.882 238.395C519.512 238.213 518.132 238.119 516.75 238.114C515.374 238.027 513.993 238.027 512.617 238.114C513.985 238.297 515.362 238.391 516.742 238.395C518.121 238.482 519.503 238.482 520.882 238.395Z" fill="#6F4439"/>
<path d="M520.268 232.422C519.544 232.3 518.806 232.268 518.074 232.325C517.341 232.291 516.607 232.345 515.887 232.486C516.608 232.613 517.343 232.649 518.074 232.591C518.809 232.624 519.546 232.567 520.268 232.422Z" fill="#6F4439"/>
<path d="M520.689 218.553C520.689 218.472 519.314 218.705 517.634 218.553C515.953 218.4 514.659 217.901 514.635 217.982C515.555 218.465 516.571 218.739 517.61 218.786C518.641 218.931 519.691 218.851 520.689 218.553Z" fill="#6F4439"/>
<path d="M404.108 187.197L415.991 245.535H519.144C519.691 245.535 520.215 245.318 520.602 244.933C520.989 244.547 521.208 244.023 521.21 243.477C521.21 242.929 520.992 242.403 520.605 242.016C520.217 241.628 519.692 241.411 519.144 241.411H498.385L487.362 187.157C487.26 186.652 486.988 186.198 486.592 185.87C486.195 185.542 485.698 185.36 485.183 185.356L406.351 184.528C406.017 184.523 405.687 184.593 405.383 184.731C405.08 184.87 404.811 185.075 404.596 185.33C404.381 185.586 404.226 185.886 404.142 186.209C404.057 186.531 404.046 186.869 404.108 187.197Z" fill="#E0E0E0"/>
<path d="M404.108 187.197C404.105 187.138 404.105 187.079 404.108 187.02C404.082 186.844 404.082 186.665 404.108 186.489C404.147 186.14 404.265 185.805 404.455 185.509C404.645 185.213 404.9 184.965 405.202 184.785C405.414 184.66 405.644 184.57 405.885 184.52C406.15 184.468 406.42 184.45 406.689 184.463H408.547L413.186 184.504L442.99 184.785L463.765 184.994L475.407 185.115L481.518 185.179H484.637C484.902 185.179 485.152 185.179 485.441 185.179C485.72 185.211 485.992 185.29 486.245 185.412C486.751 185.664 487.152 186.085 487.379 186.602C487.477 186.862 487.55 187.132 487.596 187.406L487.757 188.21C487.861 188.733 487.966 189.255 488.078 189.818C488.287 190.871 488.504 191.933 488.721 193.034C489.156 195.178 489.595 197.341 490.04 199.522C490.935 203.901 491.846 208.38 492.774 212.957C494.639 222.099 496.568 231.618 498.562 241.419L498.426 241.306H518.839C519.108 241.291 519.378 241.307 519.643 241.354C520.192 241.47 520.676 241.793 520.994 242.255C521.175 242.51 521.299 242.8 521.359 243.107C521.419 243.413 521.413 243.729 521.342 244.033C521.27 244.338 521.135 244.623 520.945 244.871C520.754 245.119 520.514 245.323 520.238 245.471C519.937 245.628 519.605 245.716 519.265 245.728H464.408H415.984H415.895V245.64C412.269 227.702 409.31 213.118 407.26 203.028L404.912 191.273C404.647 189.947 404.446 188.926 404.309 188.234C404.173 187.543 404.117 187.197 404.117 187.197C404.117 187.197 404.197 187.543 404.342 188.226C404.486 188.909 404.695 189.931 404.977 191.265C405.523 193.934 406.336 197.858 407.389 202.907C409.463 213.013 412.446 227.59 416.12 245.519L416.016 245.431H464.441H519.225C519.521 245.418 519.809 245.338 520.069 245.198C520.304 245.066 520.508 244.886 520.668 244.67C520.829 244.455 520.942 244.207 521 243.945C521.059 243.682 521.061 243.411 521.007 243.147C520.954 242.884 520.845 242.634 520.688 242.416C520.412 242.01 519.993 241.723 519.515 241.612C519.267 241.573 519.017 241.56 518.767 241.571H498.265V241.459C496.271 231.658 494.341 222.163 492.484 212.997L489.767 199.562C489.327 197.365 488.888 195.199 488.448 193.066C488.231 191.997 488.014 190.936 487.805 189.85C487.7 189.328 487.588 188.797 487.483 188.242L487.322 187.438C487.287 187.184 487.219 186.936 487.121 186.698C486.923 186.236 486.567 185.86 486.116 185.637C485.893 185.524 485.65 185.453 485.401 185.428C485.16 185.428 484.886 185.428 484.597 185.428L481.477 185.388L475.375 185.316L463.733 185.187L442.958 184.938L413.153 184.576L408.506 184.512H406.657C406.388 184.498 406.119 184.515 405.853 184.56C405.396 184.655 404.98 184.892 404.666 185.237C404.351 185.582 404.153 186.017 404.1 186.481C404.068 186.719 404.071 186.96 404.108 187.197Z" fill="#263238"/>
<path d="M451.648 213.898C451.648 214.572 451.448 215.231 451.073 215.792C450.699 216.352 450.167 216.789 449.544 217.047C448.921 217.305 448.235 217.373 447.574 217.241C446.913 217.11 446.305 216.785 445.829 216.308C445.352 215.831 445.027 215.224 444.896 214.563C444.764 213.902 444.832 213.216 445.09 212.593C445.348 211.97 445.785 211.438 446.345 211.063C446.906 210.689 447.565 210.489 448.239 210.489C448.687 210.488 449.131 210.575 449.545 210.746C449.959 210.917 450.335 211.168 450.652 211.485C450.969 211.802 451.22 212.178 451.391 212.592C451.562 213.006 451.649 213.45 451.648 213.898Z" fill="white"/>
<path d="M404.221 187.671H404.574H409.624L424.377 187.744L473.027 188.089L480.062 188.146H481.791C482.087 188.137 482.383 188.156 482.675 188.202C482.96 188.267 483.232 188.382 483.479 188.54C483.995 188.865 484.368 189.373 484.524 189.963C484.653 190.534 484.749 191.072 484.87 191.627C485.738 196.017 486.582 200.262 487.378 204.298C488.986 212.338 490.418 219.646 491.624 225.757C492.83 231.867 493.786 236.804 494.454 240.229L495.258 244.168C495.338 244.611 495.402 244.972 495.443 245.19C495.483 245.407 495.499 245.543 495.499 245.543C495.499 245.543 495.499 245.423 495.418 245.198C495.338 244.972 495.29 244.619 495.201 244.177C495.008 243.268 494.735 241.949 494.397 240.253C493.706 236.828 492.709 231.891 491.471 225.781C490.233 219.671 488.793 212.402 487.169 204.33C486.365 200.31 485.561 196.057 484.637 191.667C484.532 191.121 484.428 190.55 484.307 190.059C484.167 189.538 483.834 189.089 483.375 188.805C483.15 188.658 482.898 188.557 482.635 188.508C482.37 188.46 482.1 188.444 481.831 188.459H480.102L473.067 188.403L424.409 187.977L409.664 187.816L405.644 187.76H404.607L404.221 187.671Z" fill="#263238"/>
<path d="M75.9217 218.858C75.7992 224.408 76.8537 229.92 79.0155 235.032C81.1773 240.144 84.3975 244.74 88.4641 248.518C90.3294 243.11 92.2054 237.699 94.0921 232.285" fill="#263238"/>
<path d="M118.174 186.562C113.35 183.933 107.553 183.555 102.174 184.632C96.7954 185.71 91.7865 188.138 87.0429 190.887C84.3816 192.423 81.7284 194.103 79.8069 196.515C76.3095 200.905 72.8603 208.125 72.5226 213.729C72.2493 218.264 73.9859 229.608 75.8994 233.716C77.6602 237.495 85.8851 240.374 89.9453 241.306L127.203 197.979C126.529 195.573 125.383 193.325 123.833 191.365C122.283 189.405 120.36 187.772 118.174 186.562Z" fill="#263238"/>
<path d="M124.597 192.407L115.664 190.799C120.544 202.425 121.871 229.013 124.661 241.314C127.957 236.538 135.603 222.018 135.193 216.197C134.783 210.376 135.209 191.418 124.597 192.407Z" fill="#263238"/>
<path d="M82.2499 211.759C82.4134 208.494 83.6201 205.368 85.6925 202.84C87.7649 200.311 90.5937 198.515 93.7631 197.714L114.329 192.463C123.214 191.507 129.155 202.441 129.734 211.357C130.377 221.271 130.779 231.731 129.622 239.128C127.29 254.01 115.897 255.923 115.897 255.923C115.897 255.923 115.897 262.998 115.897 267.348L109.015 295.834L86.8327 265.201L82.2418 211.936C82.1936 211.687 82.2257 212.097 82.2499 211.759Z" fill="#FFBE9D"/>
<path d="M125.233 222.597C125.24 223.094 125.052 223.574 124.709 223.935C124.367 224.296 123.897 224.508 123.4 224.527C123.157 224.546 122.914 224.517 122.683 224.442C122.452 224.366 122.238 224.244 122.054 224.085C121.871 223.925 121.721 223.731 121.614 223.513C121.507 223.294 121.444 223.057 121.43 222.814C121.421 222.316 121.609 221.835 121.951 221.474C122.294 221.113 122.765 220.901 123.263 220.885C123.506 220.864 123.75 220.892 123.981 220.967C124.213 221.043 124.427 221.164 124.611 221.324C124.794 221.483 124.944 221.678 125.051 221.897C125.158 222.116 125.22 222.354 125.233 222.597Z" fill="#263238"/>
<path d="M127.468 217.186C127.234 217.435 125.787 216.382 123.737 216.382C121.687 216.382 120.175 217.419 119.958 217.186C119.846 217.074 120.087 216.623 120.762 216.149C121.647 215.527 122.704 215.198 123.785 215.208C124.852 215.202 125.894 215.534 126.76 216.157C127.371 216.623 127.588 217.074 127.468 217.186Z" fill="#263238"/>
<path d="M107.344 222.597C107.351 223.094 107.163 223.574 106.82 223.935C106.478 224.295 106.008 224.508 105.511 224.527C105.269 224.547 105.024 224.519 104.793 224.444C104.561 224.368 104.347 224.247 104.164 224.087C103.98 223.928 103.83 223.733 103.723 223.514C103.616 223.295 103.554 223.057 103.541 222.814C103.533 222.316 103.72 221.835 104.063 221.474C104.406 221.113 104.877 220.901 105.374 220.884C105.617 220.865 105.861 220.894 106.092 220.97C106.323 221.045 106.536 221.167 106.72 221.326C106.903 221.486 107.053 221.68 107.16 221.899C107.267 222.117 107.33 222.354 107.344 222.597Z" fill="#263238"/>
<path d="M107.979 217.186C107.738 217.435 106.29 216.382 104.24 216.382C102.19 216.382 100.687 217.419 100.461 217.186C100.357 217.074 100.59 216.623 101.265 216.149C102.149 215.526 103.207 215.197 104.288 215.208C105.355 215.202 106.397 215.534 107.263 216.157C107.874 216.623 108.091 217.074 107.979 217.186Z" fill="#263238"/>
<path d="M114.393 233.307C114.393 233.194 115.655 232.969 117.722 232.696C118.252 232.64 118.743 232.535 118.831 232.181C118.874 231.64 118.75 231.099 118.477 230.63C117.984 229.359 117.464 228.019 116.918 226.61C114.755 220.933 113.187 216.262 113.412 216.158C113.637 216.053 115.583 220.612 117.754 226.288C118.268 227.687 118.775 229.022 119.241 230.308C119.574 230.937 119.674 231.663 119.523 232.358C119.451 232.55 119.336 232.722 119.187 232.862C119.038 233.001 118.858 233.104 118.662 233.162C118.371 233.243 118.072 233.286 117.77 233.291C115.687 233.411 114.401 233.427 114.393 233.307Z" fill="#263238"/>
<path d="M96.1758 250.632C96.1758 250.632 101 260.851 115.898 259.42V255.923C108.961 256.018 102.134 254.186 96.1758 250.632Z" fill="#EB996E"/>
<path d="M107.334 209.773C107.133 210.328 105.083 210.071 102.671 210.368C100.259 210.666 98.3211 211.317 97.9995 210.819C97.8547 210.586 98.1924 210.055 98.9803 209.516C100.017 208.836 101.203 208.416 102.438 208.294C103.67 208.142 104.921 208.286 106.088 208.712C106.972 209.066 107.43 209.508 107.334 209.773Z" fill="#263238"/>
<path d="M126.799 210.907C126.438 211.374 125.023 210.907 123.326 210.907C121.63 210.907 120.182 211.229 119.853 210.739C119.708 210.505 119.933 210.039 120.56 209.597C121.407 209.059 122.396 208.786 123.399 208.815C124.402 208.844 125.373 209.172 126.188 209.758C126.727 210.2 126.96 210.682 126.799 210.907Z" fill="#263238"/>
<path d="M125.658 197.777C124.749 195.542 122.297 194.191 119.885 194.071C117.452 194.071 115.07 194.765 113.019 196.073C104.175 201.194 99.6163 213.56 90.8607 218.858C88.706 220.161 85.9081 218.963 84.075 220.691C82.2418 222.42 81.06 225.178 82.073 227.477C80.8145 225.913 79.7907 224.174 79.0339 222.315C78.6588 221.387 78.4869 220.39 78.5299 219.39C78.5729 218.39 78.8297 217.411 79.2831 216.519C80.0389 215.208 81.3735 214.203 81.7434 212.74C82.065 211.445 81.5504 210.095 81.6067 208.76C81.7572 207.405 82.2255 206.105 82.9735 204.965C86.3985 198.903 91.118 193.42 97.1882 190.011C101.153 187.72 105.667 186.553 110.245 186.634C114.839 186.742 119.242 188.49 122.659 191.562C124.621 193.387 126.679 195.277 125.658 197.753" fill="#263238"/>
<path d="M84.293 222.533C84.1322 222.107 76.3736 219.317 76.253 227.558C76.1484 235.598 84.2367 233.99 84.293 233.757C84.3492 233.523 84.293 222.533 84.293 222.533Z" fill="#FFBE9D"/>
<path d="M81.833 230.702C81.833 230.702 81.6882 230.798 81.4551 230.903C81.1199 231.038 80.745 231.038 80.4099 230.903C79.6059 230.589 78.8662 229.238 78.8019 227.791C78.7865 227.104 78.9267 226.422 79.2119 225.797C79.2918 225.541 79.4344 225.309 79.6268 225.123C79.8192 224.936 80.0552 224.8 80.3134 224.728C80.4722 224.692 80.6385 224.712 80.7846 224.784C80.9308 224.855 81.0482 224.975 81.1174 225.122C81.2219 225.347 81.1656 225.508 81.2058 225.516C81.246 225.524 81.3827 225.387 81.3184 225.058C81.2777 224.859 81.1698 224.68 81.0129 224.551C80.9005 224.463 80.7711 224.398 80.6327 224.362C80.4944 224.327 80.3501 224.32 80.2089 224.342C79.8792 224.402 79.5705 224.546 79.3127 224.76C79.0549 224.974 78.8568 225.251 78.7376 225.564C78.3929 226.255 78.2192 227.019 78.231 227.791C78.2712 229.399 79.0833 230.927 80.241 231.272C80.4554 231.338 80.6819 231.354 80.9034 231.319C81.1248 231.284 81.3355 231.2 81.5194 231.071C81.8169 230.895 81.8571 230.718 81.833 230.702Z" fill="#EB996E"/>
<path d="M81.0996 218.417C81.2724 218.347 81.4369 218.258 81.59 218.151C81.8956 217.95 82.394 217.693 82.9327 217.291C84.5095 216.137 85.9595 214.819 87.2583 213.359C89.1475 211.17 90.9111 208.875 92.5405 206.485C94.5145 203.562 96.7277 200.809 99.1574 198.252C100.451 196.977 101.88 195.848 103.419 194.884C104.864 194.003 106.411 193.301 108.026 192.793C110.765 191.916 113.646 191.567 116.516 191.764C118.452 191.881 120.364 192.257 122.2 192.882C122.859 193.083 123.342 193.3 123.687 193.428C123.853 193.512 124.029 193.574 124.21 193.613C124.049 193.52 123.883 193.436 123.712 193.364C123.236 193.13 122.747 192.923 122.248 192.745C120.41 192.068 118.486 191.652 116.532 191.507C113.628 191.279 110.707 191.612 107.929 192.488C106.284 192.995 104.707 193.703 103.234 194.594C101.667 195.57 100.214 196.716 98.9002 198.011C96.4517 200.578 94.2323 203.355 92.2672 206.308C90.6548 208.697 88.9157 210.997 87.0573 213.199C85.7894 214.675 84.3782 216.021 82.8443 217.219C82.2976 217.637 81.8393 217.91 81.5498 218.127C81.2604 218.344 81.0996 218.409 81.0996 218.417Z" fill="#455A64"/>
<path d="M80.8984 232.116C80.4961 232.041 80.0802 232.122 79.7355 232.342C79.3908 232.563 79.1431 232.907 79.043 233.304C78.9429 233.7 78.9979 234.12 79.1967 234.478C79.3956 234.836 79.7234 235.104 80.1132 235.229C80.5031 235.353 80.9258 235.324 81.2951 235.148C81.6644 234.972 81.9526 234.661 82.1009 234.279C82.2492 233.898 82.2464 233.474 82.0932 233.095C81.94 232.715 81.6478 232.409 81.2762 232.237" fill="white"/>
<path d="M81.2924 232.237C81.6382 232.514 81.8908 232.89 82.016 233.315C82.0713 233.533 82.0716 233.762 82.0169 233.981C81.9622 234.2 81.8542 234.402 81.7025 234.569C81.5214 234.779 81.2822 234.931 81.015 235.006C80.7478 235.08 80.4645 235.074 80.2008 234.988C79.937 234.902 79.7045 234.74 79.5325 234.523C79.3605 234.305 79.2567 234.041 79.2342 233.765C79.2073 233.54 79.2366 233.313 79.3193 233.102C79.4021 232.892 79.5359 232.705 79.7085 232.559C80.0551 232.288 80.4755 232.128 80.9145 232.101C80.9145 232.101 80.7939 232.02 80.5447 232.012C80.181 232.015 79.8282 232.136 79.5397 232.358C79.3182 232.524 79.1433 232.745 79.0321 232.998C78.9208 233.252 78.8769 233.53 78.9045 233.805C78.9241 234.151 79.0483 234.483 79.2606 234.757C79.4729 235.031 79.7633 235.234 80.0935 235.34C80.4237 235.445 80.7781 235.448 81.1099 235.348C81.4417 235.247 81.7352 235.049 81.9517 234.778C82.0985 234.603 82.2075 234.4 82.2719 234.181C82.3363 233.962 82.3548 233.732 82.3261 233.505C82.2974 233.279 82.2222 233.061 82.1052 232.865C81.9882 232.668 81.8319 232.499 81.6462 232.366C81.4371 232.237 81.3005 232.213 81.2924 232.237Z" fill="#263238"/>
<path d="M83.1169 220.708C82.9882 222.895 82.8918 225.21 83.9209 227.14C84.95 229.069 87.4746 230.412 89.38 229.319C90.9318 228.434 91.3981 226.448 91.6634 224.68C92.4192 219.574 92.7649 214.421 93.5689 209.323L83.1169 220.708Z" fill="#263238"/>
<path d="M123.689 193.967C123.689 194.015 122.982 193.83 121.695 193.79C119.882 193.761 118.082 194.092 116.397 194.763C115.231 195.208 114.118 195.78 113.076 196.467C111.883 197.272 110.74 198.147 109.651 199.088C107.133 201.224 104.879 203.653 102.938 206.324C101.925 207.755 101.024 209.226 100.044 210.585C99.1197 211.913 98.04 213.125 96.8276 214.195C94.752 215.958 92.4805 217.477 90.0579 218.722C88.0077 219.807 86.2952 220.571 85.1133 221.134L83.7385 221.713C83.5828 221.791 83.4181 221.851 83.248 221.889C83.3892 221.784 83.5432 221.698 83.7063 221.632L85.041 220.973C86.1987 220.402 87.8871 219.598 89.865 218.489C92.24 217.211 94.4694 215.68 96.514 213.922C97.6907 212.862 98.7403 211.67 99.6416 210.368C100.598 209.025 101.499 207.554 102.528 206.107C104.484 203.406 106.769 200.959 109.33 198.823C110.441 197.878 111.609 197.003 112.827 196.202C113.898 195.516 115.042 194.95 116.236 194.513C117.964 193.855 119.809 193.565 121.655 193.661C122.155 193.696 122.652 193.766 123.143 193.87C123.328 193.878 123.512 193.91 123.689 193.967Z" fill="#455A64"/>
<path d="M82.893 215.739C82.6773 215.925 82.4397 216.085 82.1855 216.213L80.1594 217.403L79.476 217.797C79.208 217.955 78.9091 218.054 78.5997 218.087C78.4105 218.109 78.2196 218.063 78.061 217.958C77.9727 217.899 77.8993 217.82 77.8463 217.728C77.7933 217.636 77.7622 217.533 77.7555 217.427C77.7762 217.059 77.9079 216.706 78.1333 216.414L80.4891 212.668L80.8107 212.957C79.2377 214.108 77.3135 214.677 75.3676 214.565C75.1185 214.56 74.8717 214.517 74.6359 214.436C74.5002 214.396 74.3747 214.327 74.2679 214.234C74.1611 214.141 74.0755 214.027 74.0169 213.898C73.9721 213.763 73.9611 213.619 73.9849 213.479C74.0088 213.339 74.0667 213.206 74.1535 213.094C74.2897 212.913 74.4432 212.746 74.6118 212.595C75.6675 211.573 76.5839 210.416 77.3374 209.154C78.0025 207.955 78.5828 206.712 79.074 205.432C79.0384 205.801 78.9518 206.163 78.8167 206.509C78.5107 207.472 78.1066 208.402 77.6107 209.283C76.8801 210.597 75.9679 211.801 74.9013 212.861C74.6038 213.142 74.3063 213.472 74.4189 213.721C74.5314 213.97 74.9736 214.099 75.3917 214.099C76.3072 214.147 77.224 214.036 78.1012 213.769C78.9678 213.507 79.7835 213.099 80.5132 212.563L81.4699 211.864L80.8348 212.861C79.9745 214.195 79.1625 215.449 78.4228 216.599C78.2354 216.83 78.1157 217.108 78.0771 217.403C78.0828 217.457 78.0997 217.51 78.1267 217.557C78.1538 217.605 78.1904 217.646 78.2342 217.679C78.2781 217.711 78.3282 217.734 78.3814 217.746C78.4346 217.758 78.4898 217.759 78.5434 217.749C79.0562 217.643 79.5444 217.441 79.9825 217.154L82.0729 216.077C82.3312 215.93 82.6067 215.817 82.893 215.739Z" fill="#455A64"/>
<path d="M106.629 237.093C106.777 236.483 107.135 235.944 107.641 235.572C108.147 235.2 108.768 235.018 109.394 235.059C109.852 235.116 110.288 235.285 110.664 235.551C111.04 235.818 111.344 236.174 111.549 236.586C111.747 237.003 111.86 237.456 111.881 237.917C111.902 238.378 111.83 238.839 111.67 239.272L111.629 239.457C111.203 239.918 110.643 240.235 110.029 240.366C109.414 240.497 108.774 240.435 108.196 240.188C107.629 239.918 107.168 239.468 106.884 238.908C106.601 238.348 106.511 237.71 106.629 237.093Z" fill="#EB996E"/>
<path d="M113.058 239.505C113.058 239.192 110.984 239.288 109.424 237.592C107.864 235.895 107.977 233.66 107.687 233.66C107.559 233.66 107.31 234.175 107.334 235.107C107.372 236.326 107.842 237.491 108.66 238.396C109.446 239.26 110.534 239.787 111.699 239.867C112.592 239.899 113.058 239.642 113.058 239.505Z" fill="#263238"/>
<path d="M72.7785 262.99L87.0736 260.916L115.664 265.145L123.688 267.983L122.265 285.534L94.776 290.591L76.2277 285.1L69.2168 274.776L72.7785 262.99Z" fill="#FFBE9D"/>
<path d="M63.7749 264.671L75.7384 261.849C75.7384 261.849 84.1885 287.995 105.06 286.869C122.073 285.953 122.266 266.962 122.266 266.962L134.527 270.886C134.527 270.886 139.214 302.33 134.028 324.609C132.814 329.811 131.19 336.83 131.19 336.83L132.847 369.376L42.1875 369.52L63.7749 264.671Z" fill="url(#paint4_linear_1353_13002)"/>
<g opacity="0.3">
<path d="M99.3122 363.064C94.9063 362.952 90.83 363.321 86.4482 363.217C81.1579 363.088 75.8274 362.96 70.6014 363.82C66.6778 364.463 62.8669 365.661 58.9514 366.28C53.6048 367.084 47.8964 366.819 43.1367 364.246L43.9166 359.8L61.9825 355.45L99.3122 363.064Z" fill="black"/>
</g>
<path d="M144.762 278.218C140.613 272.855 133.723 270.628 133.723 270.628L129.084 311.013L137.872 369.809L166.639 369.673C166.639 369.673 150.768 285.976 144.762 278.218Z" fill="url(#paint5_linear_1353_13002)"/>
<path d="M65.173 264.373C65.173 264.373 45.8047 265.925 38.8581 297.651C35.7145 312.002 31.7427 328.822 30.601 340.126C29.7649 348.319 34.2673 361.159 42.3957 362.212L52.6708 363.595C54.6859 363.886 56.7371 363.81 58.7249 363.37C65.2213 361.882 65.8805 357.428 67.0222 352.692L70.0211 343.229C71.6291 334.225 63.2756 332.544 58.6365 332.641L62.0937 291.54L65.173 264.373Z" fill="url(#paint6_linear_1353_13002)"/>
<path d="M136.12 293.068C136.161 293.213 136.191 293.36 136.208 293.51L136.401 294.788C136.441 295.07 136.49 295.375 136.538 295.713C136.586 296.051 136.61 296.421 136.65 296.823C136.731 297.627 136.827 298.519 136.867 299.524C137.007 301.872 137.023 304.225 136.916 306.575C136.774 309.455 136.487 312.327 136.055 315.178C135.613 318.209 135.05 321.079 134.488 323.676C133.925 326.273 133.354 328.589 132.88 330.542C132.405 332.496 131.979 334.056 131.682 335.141L131.336 336.387C131.303 336.533 131.257 336.676 131.199 336.814C131.208 336.663 131.235 336.515 131.28 336.371L131.569 335.109C131.834 333.983 132.212 332.416 132.671 330.486C133.129 328.556 133.676 326.209 134.214 323.612C134.753 321.015 135.316 318.161 135.758 315.13C136.2 312.099 136.514 309.212 136.634 306.567C136.755 303.922 136.771 301.534 136.634 299.532C136.634 298.527 136.522 297.627 136.457 296.831C136.457 296.437 136.401 296.067 136.377 295.729C136.353 295.391 136.297 295.086 136.264 294.805C136.208 294.266 136.168 293.84 136.128 293.518C136.114 293.368 136.112 293.218 136.12 293.068Z" fill="#263238"/>
<path d="M43.4492 343.76C43.4638 343.486 43.5151 343.216 43.602 342.956C43.7906 342.242 44.0408 341.545 44.3497 340.874C45.3633 338.626 46.9447 336.682 48.938 335.231C50.9314 333.78 53.2681 332.874 55.7183 332.601C56.4519 332.514 57.1915 332.489 57.9293 332.528C58.2001 332.529 58.4698 332.562 58.7333 332.625C57.7336 332.637 56.7353 332.701 55.7424 332.818C53.3491 333.148 51.0745 334.064 49.1206 335.485C47.1668 336.905 45.5942 338.787 44.5427 340.962C44.1256 341.873 43.7606 342.807 43.4492 343.76Z" fill="#263238"/>
<path d="M47.9355 327.953C47.9355 327.953 48.1044 327.913 48.4099 327.905C48.8341 327.9 49.2581 327.919 49.6802 327.961C52.5104 328.262 55.1919 329.38 57.3986 331.177C57.734 331.442 58.051 331.73 58.3473 332.038C58.5564 332.255 58.6609 332.375 58.6448 332.391C58.6287 332.407 58.1222 331.981 57.2619 331.346C55.0183 329.701 52.4078 328.628 49.6561 328.219C48.5868 328.026 47.9355 328.001 47.9355 327.953Z" fill="#263238"/>
<path d="M67.971 286.869C67.9247 286.588 67.9086 286.302 67.9228 286.017C67.9228 285.47 67.9228 284.682 67.8183 283.717C67.6405 281.188 67.2096 278.683 66.5319 276.24C65.8423 273.802 64.9076 271.439 63.742 269.189C63.2918 268.329 62.938 267.637 62.6325 267.171C62.4791 266.933 62.3446 266.683 62.2305 266.423C62.4219 266.634 62.5916 266.862 62.737 267.107C63.0425 267.557 63.4606 268.232 63.935 269.085C65.167 271.325 66.1381 273.699 66.8293 276.16C67.5124 278.621 67.917 281.15 68.0353 283.701C68.0353 284.682 68.0353 285.47 68.0353 286.017C68.0438 286.302 68.0222 286.588 67.971 286.869Z" fill="#263238"/>
<path d="M105.06 315.668C105.06 315.668 105.06 315.789 104.971 316.006C104.88 316.322 104.773 316.633 104.65 316.938C104.219 318.075 103.68 319.168 103.042 320.203C101.423 322.882 99.2184 325.16 96.5937 326.865C93.969 328.571 90.9921 329.66 87.8864 330.052C86.0927 330.282 84.2771 330.282 82.4835 330.052C81.2763 329.896 80.0864 329.627 78.9298 329.248C78.6133 329.151 78.302 329.039 77.9972 328.91C77.8876 328.877 77.7823 328.831 77.6836 328.773C77.6836 328.773 78.1419 328.902 78.962 329.135C80.1235 329.456 81.3093 329.682 82.5076 329.81C86.4763 330.276 90.4956 329.605 94.0979 327.875C97.7002 326.146 100.738 323.429 102.857 320.042C103.504 319.016 104.068 317.941 104.545 316.826C104.875 316.11 105.02 315.66 105.06 315.668Z" fill="#263238"/>
<path d="M64.2493 360.306C64.2493 360.306 63.9116 360.717 63.188 361.311C62.1337 362.11 60.9271 362.685 59.6424 363C57.738 363.473 55.7713 363.647 53.8134 363.514C51.6024 363.354 49.1582 363.096 46.6256 362.71C44.2395 362.403 41.8889 361.864 39.6067 361.102C38.6552 360.684 37.7844 360.101 37.0339 359.382C36.3647 358.76 35.7588 358.073 35.2249 357.332C34.4513 356.257 33.7886 355.107 33.2471 353.899C33.0622 353.464 32.9174 353.095 32.837 352.902C32.7845 352.786 32.7254 352.673 32.6602 352.564C32.6684 352.691 32.6984 352.816 32.7486 352.934C32.821 353.175 32.9496 353.521 33.1184 353.963C33.6339 355.2 34.2894 356.373 35.0722 357.46C35.6045 358.22 36.2104 358.926 36.8812 359.567C37.6476 360.315 38.5404 360.922 39.5183 361.36C41.808 362.154 44.1736 362.709 46.5774 363.016C49.1261 363.394 51.5622 363.643 53.8134 363.82C55.802 363.947 57.7981 363.749 59.7228 363.233C61.0223 362.887 62.2318 362.265 63.2684 361.408C63.5453 361.165 63.7984 360.895 64.0242 360.604C64.1089 360.513 64.1844 360.413 64.2493 360.306Z" fill="#263238"/>
<path d="M67.4415 296.983C67.3611 296.983 65.3189 304.887 62.8828 314.671C60.4467 324.456 58.5412 332.464 58.6216 332.464C58.702 332.464 60.7522 324.561 63.1883 314.776C65.6244 304.991 67.5299 296.999 67.4415 296.983Z" fill="#263238"/>
<path d="M69.9078 341.718C69.9709 341.506 70.0034 341.287 70.0043 341.067C70.0703 340.469 70.0864 339.866 70.0525 339.266C69.9873 338.359 69.6851 337.486 69.1762 336.733C68.8925 336.281 68.5609 335.86 68.1872 335.479C67.771 335.085 67.3095 334.742 66.8124 334.458C65.0564 333.529 63.1518 332.914 61.1844 332.641C60.5935 332.549 59.9973 332.495 59.3995 332.48C59.1813 332.444 58.9585 332.444 58.7402 332.48C58.7402 332.528 59.6729 332.568 61.1522 332.826C63.0758 333.164 64.9359 333.796 66.6677 334.699C67.1395 334.973 67.5767 335.302 67.9702 335.68C68.3305 336.045 68.6562 336.444 68.943 336.87C69.436 337.586 69.7402 338.416 69.8274 339.282C69.882 339.872 69.9008 340.466 69.8837 341.059C69.8654 341.278 69.8735 341.5 69.9078 341.718Z" fill="#263238"/>
<g opacity="0.3">
<path d="M135.225 319.72C140.169 311.35 140.274 300.48 135.964 291.773C137.345 301.056 137.045 310.511 135.08 319.688" fill="black"/>
</g>
<path d="M109.038 340.625L108.861 340.713L109.038 340.625Z" fill="#FFBE9D"/>
<path d="M127.347 357.283C125.787 354.341 113.639 346.59 113.639 346.59L116.927 345.826L120.561 347.362C120.835 348.593 121.366 349.752 122.121 350.763C123.456 352.669 125.723 350.699 125.723 350.699L124.187 343.342L117.008 339.017C117.008 339.017 110.246 340.054 109.153 340.576L106.274 343.213C105.004 344.202 101.354 348.11 100.357 348.23C99.3598 348.351 68.0359 341.308 68.0359 341.308C63.7345 344.709 61.4753 351.479 60.7999 356.359C60.7999 356.359 59.9959 358.771 60.8643 360.057L99.3598 363.08L107.52 365.332C109.706 366.237 111.945 367.005 114.226 367.631C116.935 368.202 118.768 367.325 118.841 365.83C118.913 364.335 116.807 364.166 116.807 364.166C115.007 363.515 113.253 362.744 111.556 361.858C110.323 361.027 109.308 359.91 108.598 358.602L111.508 358.956C111.508 358.956 117.691 363.241 120.015 364.503C122.338 365.766 122.796 363.45 122.989 362.751C123.182 362.051 116.043 355.064 116.043 355.064C116.043 355.064 122.821 359.245 124.043 360.307C125.265 361.368 127.074 361.673 127.46 360.966C127.846 360.258 128.899 360.226 127.347 357.283Z" fill="#FFBE9D"/>
<path d="M93.8842 357.958C93.8589 357.801 93.8589 357.641 93.8842 357.484C93.8619 357.3 93.8619 357.114 93.8842 356.929C93.9106 356.68 93.9563 356.432 94.0208 356.19C94.4065 354.801 95.0774 353.509 95.9906 352.395C96.8756 351.273 97.8693 350.241 98.9574 349.315C99.3842 348.905 99.8531 348.542 100.356 348.23C99.96 348.664 99.5385 349.075 99.0941 349.46C98.0556 350.421 97.0932 351.462 96.2158 352.572C95.3284 353.663 94.6497 354.909 94.2138 356.246C93.9163 357.283 93.9404 357.966 93.8842 357.958Z" fill="#EB996E"/>
<path d="M113.357 346.357C112.662 346.506 111.939 346.442 111.282 346.172C110.597 345.993 109.982 345.609 109.521 345.07C109.57 344.998 110.325 345.553 111.371 345.874C112.416 346.196 113.357 346.268 113.357 346.357Z" fill="#EB996E"/>
<path d="M115.375 354.413C114.314 354.127 113.279 353.753 112.28 353.295C111.248 352.92 110.25 352.458 109.297 351.913C110.359 352.194 111.395 352.568 112.392 353.03C113.425 353.403 114.423 353.866 115.375 354.413Z" fill="#EB996E"/>
<path d="M108.863 358.521C108.307 358.401 107.767 358.215 107.255 357.967C106.713 357.805 106.193 357.581 105.703 357.299C106.274 357.312 106.836 357.446 107.351 357.693C107.908 357.86 108.423 358.143 108.863 358.521Z" fill="#EB996E"/>
<path d="M114.379 354.976C114.379 355.056 113.703 355.321 113.181 356.029C112.89 356.474 112.657 356.955 112.489 357.46C112.489 357.46 112.417 357.267 112.489 356.962C112.56 356.559 112.725 356.179 112.972 355.852C113.223 355.529 113.544 355.268 113.912 355.088C114.17 354.927 114.363 354.911 114.379 354.976Z" fill="#EB996E"/>
<path d="M117.233 350.449C117.233 350.53 116.735 350.811 116.389 351.43C116.211 351.823 116.063 352.229 115.947 352.644C115.862 352.42 115.836 352.178 115.87 351.94C115.903 351.703 115.996 351.478 116.14 351.286C116.55 350.578 117.217 350.377 117.233 350.449Z" fill="#EB996E"/>
<path d="M116.275 342.426C116.275 342.426 116.138 342.305 116.05 342.04C115.955 341.69 115.955 341.32 116.05 340.97C116.133 340.616 116.311 340.291 116.565 340.03C116.758 339.829 116.918 339.764 116.934 339.789C116.646 340.157 116.44 340.583 116.331 341.038C116.221 341.493 116.21 341.966 116.299 342.426H116.275Z" fill="#EB996E"/>
<path d="M60.4698 361.142C60.5173 360.85 60.5362 360.554 60.5261 360.258C60.5261 359.977 60.5261 359.623 60.5261 359.221C60.5261 358.819 60.5261 358.36 60.6226 357.854C60.8653 355.224 61.4435 352.635 62.3431 350.152C62.8422 348.788 63.4526 347.468 64.1682 346.204C64.522 345.633 64.8275 345.078 65.1813 344.596L65.6797 343.897L66.1702 343.269C67.4486 341.702 68.4294 340.857 68.3892 340.857C68.1414 341.02 67.9098 341.205 67.6978 341.412C67.4146 341.633 67.1461 341.872 66.8938 342.128C66.6124 342.425 66.2827 342.747 65.9611 343.149L65.4466 343.768C65.2777 343.985 65.1089 344.226 64.932 344.467C64.5622 344.942 64.2406 345.505 63.8788 346.075C63.1432 347.36 62.5192 348.704 62.0135 350.095C61.1112 352.606 60.5698 355.232 60.4055 357.894C60.3573 358.409 60.4055 358.867 60.3492 359.277C60.293 359.687 60.3492 360.025 60.3492 360.314C60.3702 360.593 60.4105 360.869 60.4698 361.142Z" fill="#263238"/>
<g opacity="0.3">
<path d="M47.2618 333.629C50.8767 332.144 54.8553 331.783 58.6786 332.592C55.3955 332.443 52.1477 333.322 49.3888 335.108C46.6299 336.894 44.4977 339.497 43.2901 342.554C43.0087 343.293 42.4861 344.162 41.6821 344.049C40.8781 343.937 40.7012 343.028 40.7012 342.288C40.7012 338.445 43.7162 335.117 47.2618 333.629Z" fill="black"/>
</g>
<path d="M136.375 290.358C136.555 290.331 136.729 290.274 136.89 290.189C137.212 290.061 137.694 289.852 138.233 289.578C139.681 288.845 141.066 287.993 142.373 287.03C143.681 286.062 144.905 284.987 146.031 283.814C146.458 283.355 146.835 283.01 147.012 282.712C147.138 282.581 147.244 282.432 147.326 282.27C146.818 282.706 146.332 283.167 145.871 283.653C144.713 284.775 143.483 285.82 142.188 286.78C140.907 287.733 139.564 288.601 138.168 289.377C137.019 289.98 136.327 290.318 136.375 290.358Z" fill="white"/>
<path d="M67.6895 292.601L67.8422 292.706L68.3005 292.979C68.6945 293.22 69.2975 293.55 70.0854 293.968C72.3195 295.11 74.6361 296.083 77.0159 296.879C80.5509 298.056 84.1792 298.933 87.8618 299.5C92.367 300.171 96.9113 300.547 101.465 300.625C106.289 300.746 110.929 300.625 115.133 300.553C118.853 300.513 122.566 300.245 126.253 299.749C128.74 299.397 131.191 298.827 133.577 298.044C134.421 297.763 135.065 297.522 135.491 297.337L135.989 297.136L136.15 297.055C136.089 297.061 136.029 297.077 135.973 297.104L135.475 297.281C135.033 297.449 134.381 297.666 133.537 297.932C131.146 298.664 128.699 299.202 126.221 299.54C122.541 300.021 118.836 300.29 115.125 300.344C110.937 300.424 106.322 300.505 101.457 300.392C96.915 300.309 92.3823 299.941 87.8859 299.291C84.2185 298.742 80.6019 297.895 77.0721 296.758C74.6976 295.958 72.3818 294.994 70.1417 293.872C69.3377 293.478 68.7347 293.164 68.3246 292.939L67.8583 292.69C67.7538 292.625 67.6975 292.593 67.6895 292.601Z" fill="white"/>
<path d="M136.141 313.778C136.391 313.747 136.639 313.693 136.88 313.618L138.858 313.079C140.522 312.605 142.822 311.937 145.354 311.182C147.887 310.426 150.178 309.718 151.827 309.196L153.772 308.56C154.018 308.497 154.255 308.405 154.48 308.287C154.229 308.318 153.981 308.372 153.74 308.448L151.762 308.987C150.09 309.461 147.799 310.128 145.266 310.884C142.733 311.64 140.442 312.347 138.794 312.87L136.84 313.505C136.596 313.566 136.361 313.657 136.141 313.778Z" fill="white"/>
<path d="M134.412 346.67C134.412 346.751 140.37 345.062 147.67 342.86C154.971 340.657 160.872 338.84 160.848 338.759C160.824 338.679 154.882 340.367 147.582 342.57C140.281 344.773 134.38 346.59 134.412 346.67Z" fill="white"/>
<path d="M48.4492 275.549C48.6471 275.743 48.8655 275.916 49.1005 276.063C49.5346 276.385 50.1778 276.827 50.9818 277.35C53.0821 278.695 55.2593 279.917 57.5023 281.008C59.7441 282.113 62.0504 283.082 64.4086 283.91C65.3171 284.232 66.0568 284.465 66.5714 284.61C66.833 284.702 67.1019 284.772 67.3754 284.819C67.1191 284.684 66.8497 284.577 66.5714 284.497L64.4488 283.693C62.6559 283.01 60.2198 281.997 57.5987 280.711C54.9777 279.424 52.6863 278.114 51.0542 277.117L49.1326 275.919C48.9138 275.78 48.6854 275.656 48.4492 275.549Z" fill="white"/>
<path d="M36.5996 309.341C36.9074 309.521 37.2302 309.674 37.5644 309.799C38.1915 310.081 39.1161 310.45 40.2739 310.876C46.3055 313.078 52.6404 314.336 59.0553 314.607C60.2854 314.663 61.2824 314.671 61.9658 314.655C62.3232 314.665 62.6808 314.647 63.0351 314.599C62.6808 314.551 62.3234 314.529 61.9658 314.535C61.2824 314.535 60.2935 314.47 59.0714 314.39C52.6908 313.996 46.3924 312.744 40.3462 310.667C39.1885 310.273 38.2478 309.936 37.6126 309.687C37.2834 309.548 36.9449 309.432 36.5996 309.341Z" fill="white"/>
<path d="M53.7232 363.394C53.7393 363.284 53.7393 363.173 53.7232 363.064C53.7232 362.815 53.6348 362.509 53.5705 362.131C53.5062 361.753 53.4177 361.223 53.3614 360.644C53.3052 360.065 53.2006 359.406 53.1765 358.674C53.1765 358.304 53.1524 357.918 53.1042 357.516C53.1042 357.122 53.1042 356.712 53.1042 356.27C53.1042 355.41 53.1444 354.485 53.1846 353.512C53.4678 349.31 54.4515 345.185 56.095 341.308C56.497 340.423 56.899 339.571 57.285 338.815C57.486 338.437 57.6628 338.06 57.8719 337.714L58.4588 336.717C58.8126 336.082 59.2065 335.543 59.5281 335.053C59.8497 334.562 60.1392 334.152 60.3884 333.823L60.9432 333.059C61.0162 332.973 61.0783 332.878 61.1281 332.777C61.0416 332.849 60.9634 332.93 60.8949 333.019L60.2919 333.75C60.0266 334.072 59.713 334.466 59.3834 334.948C59.0538 335.431 58.6437 335.969 58.2658 336.604L57.6628 337.593C57.4538 337.939 57.2689 338.317 57.0598 338.695C56.6257 339.451 56.2558 340.303 55.8378 341.195C54.9951 343.143 54.3147 345.157 53.8036 347.217C53.3199 349.284 53.0053 351.387 52.863 353.504C52.863 354.485 52.7665 355.41 52.8067 356.278C52.8067 356.712 52.8067 357.139 52.8067 357.541C52.8067 357.943 52.863 358.345 52.8951 358.698C52.8951 359.438 53.0479 360.097 53.1283 360.676C53.1894 361.174 53.278 361.668 53.3936 362.155C53.474 362.533 53.5383 362.839 53.5946 363.088C53.6244 363.195 53.6676 363.298 53.7232 363.394Z" fill="white"/>
<path d="M30.7454 345.167C30.7856 345.167 30.7937 344.685 30.9304 343.824C31.1357 342.616 31.5291 341.446 32.0962 340.359C32.9456 338.752 34.085 337.315 35.4569 336.122C37.1362 334.659 39.0753 333.525 41.1733 332.777C43.2902 332.083 45.4985 331.706 47.7259 331.66C49.5481 331.609 51.3716 331.676 53.1851 331.861C54.7368 332.014 55.991 332.166 56.8594 332.263L57.8644 332.375H58.2101C58.1026 332.331 57.9886 332.303 57.8724 332.295L56.8755 332.126C56.0152 331.99 54.7609 331.805 53.2092 331.628C51.3845 331.411 49.5471 331.32 47.7099 331.354C45.4526 331.384 43.2132 331.759 41.0688 332.464C38.9333 333.22 36.9647 334.383 35.272 335.889C33.879 337.108 32.7351 338.585 31.9032 340.239C31.3417 341.35 30.972 342.549 30.8098 343.784C30.7665 344.117 30.745 344.453 30.7454 344.789C30.7333 344.915 30.7333 345.041 30.7454 345.167Z" fill="white"/>
<path d="M94.7363 327.953L95.074 328.009L96.0388 328.106L99.6086 328.403C102.624 328.637 106.788 328.926 111.395 329.159C116.002 329.392 120.175 329.553 123.206 329.585C124.717 329.585 125.94 329.585 126.784 329.585H127.757C127.868 329.604 127.983 329.604 128.094 329.585H127.757H126.784L123.206 329.497C120.191 329.408 116.018 329.231 111.411 328.99L99.6246 328.323L96.0468 328.122L95.074 328.082C94.9701 328.019 94.8557 327.975 94.7363 327.953Z" fill="white"/>
<g opacity="0.3">
<path d="M91.2781 329.183C87.5315 330.285 82.3377 330.558 78.6875 329.183C81.5417 333.203 87.0571 334.707 91.8409 333.388C96.6247 332.07 101.039 327.278 101.409 322.325C98.8091 325.59 95.2746 327.982 91.2781 329.183Z" fill="black"/>
</g>
<path d="M60.8945 325.268L61.192 325.348L62.0603 325.533C62.808 325.686 63.9015 325.895 65.2763 326.128C67.9858 326.603 71.7083 327.19 75.8972 327.696C80.086 328.203 83.8407 328.54 86.5823 328.733C87.9572 328.83 89.0667 328.894 89.7983 328.926H90.6827C90.7866 328.943 90.8924 328.943 90.9963 328.926L90.6908 328.878L89.8064 328.789L86.5904 328.5C83.8568 328.251 80.086 327.881 75.9293 327.374C71.7726 326.868 68.018 326.313 65.3085 325.895L62.0925 325.397L61.2161 325.268C60.999 325.228 60.8945 325.228 60.8945 325.268Z" fill="white"/>
<g opacity="0.3">
<path d="M67.1283 298.784C68.069 309.55 65.1344 320.235 62.232 330.647C62.1 331.296 61.8254 331.909 61.428 332.44C61.2244 332.7 60.9428 332.888 60.6244 332.976C60.306 333.065 59.9677 333.048 59.6592 332.93C58.7506 332.472 58.8552 331.153 59.1285 330.172L67.1685 299.226" fill="black"/>
</g>
<path d="M217.715 309.509L205.518 369.52H99.3899C98.8291 369.52 98.2913 369.297 97.8947 368.901C97.4982 368.504 97.2754 367.966 97.2754 367.405C97.2754 366.844 97.4979 366.305 97.8942 365.907C98.2905 365.51 98.8284 365.285 99.3899 365.283H120.752L132.081 309.477C132.186 308.956 132.467 308.487 132.877 308.149C133.287 307.811 133.8 307.624 134.332 307.62L215.423 306.736C215.768 306.731 216.11 306.804 216.424 306.949C216.737 307.094 217.014 307.307 217.234 307.573C217.454 307.839 217.611 308.152 217.694 308.487C217.777 308.822 217.784 309.171 217.715 309.509Z" fill="#E0E0E0"/>
<path d="M217.717 309.509C217.717 309.509 217.717 309.453 217.757 309.333C217.817 308.882 217.743 308.423 217.544 308.015C217.346 307.606 217.031 307.264 216.64 307.033C216.434 306.9 216.209 306.8 215.972 306.736C215.707 306.693 215.437 306.676 215.168 306.687H213.263H208.487L177.822 306.977L156.452 307.194L144.473 307.314L138.193 307.379H134.977C134.704 307.379 134.447 307.379 134.173 307.379C133.893 307.406 133.621 307.485 133.369 307.612C132.846 307.866 132.432 308.299 132.203 308.834C132.1 309.093 132.025 309.363 131.978 309.638L131.818 310.442C131.705 310.981 131.6 311.519 131.488 312.05C131.263 313.135 131.046 314.221 130.821 315.322C130.37 317.525 129.92 319.744 129.462 321.996C128.545 326.509 127.61 331.116 126.656 335.816L120.698 365.098L120.843 364.977H99.746C99.477 364.963 99.2073 364.979 98.942 365.026C98.3926 365.13 97.9016 365.435 97.5639 365.881C97.2262 366.327 97.0658 366.882 97.1138 367.439C97.1618 367.996 97.4148 368.516 97.8238 368.897C98.2328 369.279 98.7687 369.495 99.3279 369.504H155.672H205.52H205.609V369.415C209.339 350.972 212.378 335.969 214.453 325.565C215.498 320.371 216.318 316.327 216.865 313.578C217.138 312.211 217.347 311.166 217.484 310.45C217.62 309.735 217.685 309.381 217.685 309.381L217.452 310.442C217.307 311.158 217.09 312.203 216.8 313.57C216.238 316.311 215.401 320.355 214.332 325.541L205.351 369.375L205.52 369.448H155.672H99.3118C99.0095 369.43 98.714 369.351 98.4435 369.214C98.2003 369.081 97.9877 368.898 97.8197 368.678C97.6517 368.457 97.532 368.204 97.4683 367.934C97.4046 367.664 97.3984 367.384 97.45 367.111C97.5017 366.839 97.6101 366.58 97.7682 366.352C98.0522 365.939 98.4839 365.652 98.9742 365.548C99.2396 365.503 99.5095 365.489 99.7782 365.508H120.907V365.395L126.841 336.114C127.795 331.408 128.73 326.801 129.647 322.293C130.102 320.042 130.553 317.817 130.997 315.62C131.223 314.518 131.44 313.425 131.665 312.339C131.769 311.801 131.882 311.254 131.986 310.731L132.155 309.927C132.192 309.653 132.259 309.383 132.356 309.123C132.566 308.648 132.936 308.261 133.401 308.03C133.629 307.912 133.878 307.838 134.133 307.813C134.382 307.813 134.664 307.813 134.937 307.813L138.153 307.773L144.432 307.7L156.404 307.564L177.782 307.314L208.439 306.937L213.215 306.872H215.12C215.389 306.861 215.658 306.877 215.924 306.921C216.392 307.021 216.818 307.265 217.142 307.618C217.466 307.971 217.672 308.415 217.733 308.89C217.751 309.097 217.746 309.304 217.717 309.509Z" fill="#263238"/>
<path d="M168.824 336.974C168.824 337.667 169.03 338.345 169.415 338.922C169.8 339.498 170.348 339.947 170.988 340.213C171.629 340.478 172.334 340.548 173.014 340.412C173.694 340.277 174.318 339.943 174.808 339.453C175.299 338.963 175.632 338.338 175.768 337.658C175.903 336.978 175.834 336.273 175.568 335.633C175.303 334.992 174.854 334.445 174.277 334.06C173.701 333.674 173.023 333.469 172.33 333.469C171.4 333.469 170.508 333.838 169.851 334.495C169.194 335.153 168.824 336.044 168.824 336.974Z" fill="white"/>
<path d="M217.62 310H217.259H212.057L196.885 310.072L146.836 310.426L139.6 310.482H137.815C137.511 310.474 137.207 310.493 136.907 310.539C136.603 310.605 136.312 310.721 136.046 310.884C135.521 311.222 135.139 311.744 134.977 312.348C134.84 312.935 134.744 313.489 134.623 314.06C133.731 318.579 132.863 322.944 132.043 327.093C130.394 335.398 128.915 342.884 127.677 349.171L124.758 364.061C124.421 365.806 124.163 367.172 123.954 368.081C123.874 368.537 123.81 368.89 123.761 369.142C123.721 369.375 123.705 369.496 123.705 369.496C123.705 369.496 123.705 369.383 123.794 369.142C123.882 368.901 123.914 368.547 124.011 368.097L124.815 364.077C125.53 360.556 126.551 355.482 127.822 349.211C129.092 342.94 130.579 335.447 132.244 327.149C133.048 322.993 133.948 318.635 134.849 314.116C134.969 313.554 135.074 312.975 135.194 312.428C135.341 311.892 135.682 311.431 136.151 311.134C136.396 310.977 136.669 310.87 136.955 310.82C137.237 310.779 137.522 310.763 137.807 310.772H139.592L146.828 310.716L196.877 310.273L212.049 310.105L216.173 310.048H217.25L217.62 310Z" fill="#263238"/>
<path d="M43.1504 365.556H43.2951L43.7052 365.596L45.3132 365.725C46.696 365.838 48.69 365.974 51.1663 366.119C56.1028 366.408 62.9449 366.706 70.4623 366.835C77.9797 366.963 84.8699 366.891 89.8145 366.762C92.2909 366.698 94.2928 366.634 95.6757 366.569L97.2837 366.489H97.7018H97.8385H97.2837H95.6757L89.8145 366.585C84.8619 366.658 78.0199 366.69 70.4703 366.585C62.9207 366.481 56.0868 366.191 51.1743 365.958L45.3212 365.661L43.7132 365.588H43.1504V365.556Z" fill="white"/>
<defs>
<linearGradient id="paint0_linear_1353_13002" x1="185.895" y1="162.961" x2="306.109" y2="162.961" gradientUnits="userSpaceOnUse">
<stop stop-color="#08E6FD"/>
<stop offset="0.5" stop-color="#00A5FD"/>
<stop offset="1" stop-color="#001EEE"/>
</linearGradient>
<linearGradient id="paint1_linear_1353_13002" x1="379.893" y1="156.456" x2="392.813" y2="156.456" gradientUnits="userSpaceOnUse">
<stop stop-color="#08E6FD"/>
<stop offset="0.5" stop-color="#00A5FD"/>
<stop offset="1" stop-color="#001EEE"/>
</linearGradient>
<linearGradient id="paint2_linear_1353_13002" x1="428.027" y1="179.897" x2="577.322" y2="179.897" gradientUnits="userSpaceOnUse">
<stop stop-color="#08E6FD"/>
<stop offset="0.5" stop-color="#00A5FD"/>
<stop offset="1" stop-color="#001EEE"/>
</linearGradient>
<linearGradient id="paint3_linear_1353_13002" x1="529.023" y1="214.276" x2="580.556" y2="214.276" gradientUnits="userSpaceOnUse">
<stop stop-color="#08E6FD"/>
<stop offset="0.5" stop-color="#00A5FD"/>
<stop offset="1" stop-color="#001EEE"/>
</linearGradient>
<linearGradient id="paint4_linear_1353_13002" x1="42.1875" y1="315.684" x2="136.47" y2="315.684" gradientUnits="userSpaceOnUse">
<stop stop-color="#08E6FD"/>
<stop offset="0.5" stop-color="#00A5FD"/>
<stop offset="1" stop-color="#001EEE"/>
</linearGradient>
<linearGradient id="paint5_linear_1353_13002" x1="129.084" y1="320.219" x2="166.639" y2="320.219" gradientUnits="userSpaceOnUse">
<stop stop-color="#08E6FD"/>
<stop offset="0.5" stop-color="#00A5FD"/>
<stop offset="1" stop-color="#001EEE"/>
</linearGradient>
<linearGradient id="paint6_linear_1353_13002" x1="30.502" y1="314.071" x2="70.2237" y2="314.071" gradientUnits="userSpaceOnUse">
<stop stop-color="#08E6FD"/>
<stop offset="0.5" stop-color="#00A5FD"/>
<stop offset="1" stop-color="#001EEE"/>
</linearGradient>
</defs>
</svg>
