<svg width="166" height="166" viewBox="0 0 166 166" fill="none" xmlns="http://www.w3.org/2000/svg">
<rect x="0.441406" y="0.431641" width="164.882" height="164.882" fill="white"/>
<g clip-path="url(#clip0_428_39496)">
<path d="M63.5272 76.1602C63.5272 77.2214 63.6419 78.0818 63.8427 78.7128C64.0721 79.3437 64.3589 80.0321 64.7605 80.7778C64.9039 81.0072 64.9612 81.2367 64.9612 81.4374C64.9612 81.7242 64.7892 82.0111 64.4163 82.2979L62.6094 83.5025C62.3513 83.6745 62.0932 83.7606 61.8637 83.7606C61.5769 83.7606 61.2901 83.6172 61.0033 83.359C60.6018 82.9288 60.2576 82.4699 59.9708 82.0111C59.684 81.5235 59.3972 80.9785 59.0817 80.3189C56.8446 82.9575 54.0339 84.2768 50.6495 84.2768C48.2404 84.2768 46.3187 83.5885 44.9134 82.2118C43.508 80.8351 42.791 78.9996 42.791 76.7051C42.791 74.2672 43.6514 72.2883 45.401 70.7969C47.1505 69.3055 49.4736 68.5598 52.4277 68.5598C53.4029 68.5598 54.4067 68.6458 55.4679 68.7892C56.5291 68.9326 57.619 69.1621 58.7662 69.4202V67.3265C58.7662 65.1468 58.3073 63.6267 57.4182 62.7376C56.5004 61.8485 54.9517 61.4183 52.7432 61.4183C51.7394 61.4183 50.7069 61.533 49.6457 61.7911C48.5845 62.0492 47.552 62.3647 46.5482 62.7663C46.0893 62.967 45.7451 63.0818 45.5444 63.1391C45.3436 63.1965 45.2002 63.2252 45.0855 63.2252C44.6839 63.2252 44.4832 62.9383 44.4832 62.3361V60.9307C44.4832 60.4718 44.5405 60.1276 44.6839 59.9269C44.8273 59.7261 45.0855 59.5253 45.487 59.3246C46.4908 58.8083 47.6954 58.3781 49.1008 58.0339C50.5061 57.6611 51.9975 57.489 53.575 57.489C56.988 57.489 59.4832 58.2634 61.0893 59.8121C62.6668 61.3609 63.4698 63.7127 63.4698 66.8676V76.1602H63.5272ZM51.8828 80.5197C52.8293 80.5197 53.8044 80.3476 54.8369 80.0034C55.8694 79.6592 56.7872 79.0283 57.5616 78.1678C58.0205 77.6229 58.3647 77.0206 58.5368 76.3323C58.7088 75.6439 58.8236 74.8122 58.8236 73.837V72.6324C57.9918 72.4317 57.1027 72.2596 56.1849 72.1449C55.2671 72.0301 54.378 71.9728 53.4889 71.9728C51.5673 71.9728 50.162 72.3456 49.2155 73.12C48.269 73.8944 47.8101 74.9843 47.8101 76.4183C47.8101 77.7663 48.1543 78.7701 48.8713 79.4585C49.5597 80.1755 50.5635 80.5197 51.8828 80.5197ZM74.9135 83.6172C74.3972 83.6172 74.053 83.5311 73.8236 83.3304C73.5942 83.1583 73.3934 82.7568 73.2213 82.2118L66.4813 60.0416C66.3092 59.468 66.2232 59.0951 66.2232 58.8944C66.2232 58.4355 66.4526 58.1773 66.9115 58.1773H69.7222C70.2672 58.1773 70.64 58.2634 70.8408 58.4641C71.0702 58.6362 71.2423 59.0378 71.4144 59.5827L76.2328 78.5694L80.707 59.5827C80.8504 59.0091 81.0225 58.6362 81.2519 58.4641C81.4814 58.2921 81.8829 58.1773 82.3991 58.1773H84.6936C85.2385 58.1773 85.6114 58.2634 85.8408 58.4641C86.0703 58.6362 86.271 59.0378 86.3858 59.5827L90.9173 78.7988L95.8791 59.5827C96.0512 59.0091 96.2519 58.6362 96.4527 58.4641C96.6822 58.2921 97.055 58.1773 97.5713 58.1773H100.239C100.697 58.1773 100.956 58.4068 100.956 58.8944C100.956 59.0378 100.927 59.1812 100.898 59.3533C100.87 59.5253 100.812 59.7548 100.697 60.0703L93.7854 82.2405C93.6133 82.8141 93.4126 83.187 93.1831 83.359C92.9537 83.5311 92.5808 83.6459 92.0932 83.6459H89.6267C89.0818 83.6459 88.7089 83.5598 88.4795 83.359C88.25 83.1583 88.0492 82.7854 87.9345 82.2118L83.489 63.7127L79.0722 82.1831C78.9288 82.7568 78.7567 83.1296 78.5272 83.3304C78.2978 83.5311 77.8963 83.6172 77.38 83.6172H74.9135ZM111.768 84.3916C110.277 84.3916 108.785 84.2195 107.351 83.8753C105.917 83.5311 104.799 83.1583 104.053 82.7281C103.594 82.4699 103.279 82.1831 103.164 81.925C103.049 81.6669 102.992 81.3801 102.992 81.1219V79.6592C102.992 79.0569 103.221 78.7701 103.652 78.7701C103.824 78.7701 103.996 78.7988 104.168 78.8562C104.34 78.9135 104.598 79.0283 104.885 79.143C105.86 79.5732 106.921 79.9174 108.04 80.1468C109.187 80.3762 110.306 80.491 111.453 80.491C113.26 80.491 114.665 80.1755 115.64 79.5445C116.615 78.9135 117.132 77.9957 117.132 76.8198C117.132 76.0168 116.873 75.3571 116.357 74.8122C115.841 74.2672 114.866 73.7797 113.46 73.3208L109.302 72.0301C107.208 71.3705 105.659 70.3953 104.713 69.1047C103.766 67.8428 103.279 66.4374 103.279 64.946C103.279 63.7414 103.537 62.6802 104.053 61.7624C104.569 60.8447 105.258 60.0416 106.118 59.4106C106.979 58.751 107.954 58.2634 109.101 57.9192C110.248 57.575 111.453 57.4316 112.715 57.4316C113.346 57.4316 114.005 57.4603 114.636 57.5464C115.296 57.6324 115.898 57.7471 116.501 57.8619C117.074 58.0053 117.619 58.1487 118.135 58.3207C118.652 58.4928 119.053 58.6649 119.34 58.837C119.741 59.0664 120.028 59.2959 120.2 59.554C120.372 59.7835 120.459 60.099 120.459 60.5005V61.8485C120.459 62.4508 120.229 62.7663 119.799 62.7663C119.569 62.7663 119.197 62.6515 118.709 62.4221C117.074 61.6764 115.239 61.3035 113.202 61.3035C111.567 61.3035 110.277 61.5617 109.388 62.1066C108.499 62.6515 108.04 63.4833 108.04 64.6592C108.04 65.4623 108.327 66.1506 108.9 66.6955C109.474 67.2405 110.535 67.7854 112.055 68.273L116.128 69.5636C118.193 70.2233 119.684 71.141 120.573 72.317C121.462 73.4929 121.893 74.8409 121.893 76.3323C121.893 77.5655 121.634 78.6841 121.147 79.6592C120.631 80.6344 119.942 81.4948 119.053 82.1831C118.164 82.9002 117.103 83.4164 115.87 83.7893C114.579 84.1908 113.231 84.3916 111.768 84.3916Z" fill="#252F3E"/>
<path fill-rule="evenodd" clip-rule="evenodd" d="M117.188 98.3303C107.752 105.3 94.0427 108.999 82.2549 108.999C65.7348 108.999 50.8495 102.89 39.6066 92.7375C38.7175 91.9344 39.5206 90.8446 40.5818 91.4756C52.7424 98.531 67.7425 102.804 83.2588 102.804C93.7272 102.804 105.228 100.625 115.811 96.1505C117.389 95.4335 118.737 97.183 117.188 98.3303Z" fill="#FF9900"/>
<path fill-rule="evenodd" clip-rule="evenodd" d="M121.117 93.8562C119.913 92.3075 113.144 93.1105 110.075 93.4834C109.157 93.5981 109.014 92.795 109.846 92.1927C115.238 88.4069 124.1 89.4967 125.132 90.7587C126.165 92.0493 124.846 100.912 119.798 105.156C119.023 105.816 118.278 105.472 118.622 104.612C119.769 101.772 122.322 95.3763 121.117 93.8562Z" fill="#FF9900"/>
</g>
<defs>
<clipPath id="clip0_428_39496">
<rect width="88" height="51.568" fill="white" transform="translate(38.4414 57.4316)"/>
</clipPath>
</defs>
</svg>
