<svg width="166" height="166" viewBox="0 0 166 166" fill="none" xmlns="http://www.w3.org/2000/svg">
<rect x="0.289062" y="0.431641" width="164.882" height="164.882" fill="white"/>
<g clip-path="url(#clip0_428_39507)">
<path d="M94.1271 66.9333H96.8124L104.463 59.283L104.839 56.037C90.6044 43.4735 68.8746 44.8272 56.3111 59.0617C52.818 63.0159 50.2839 67.719 48.9043 72.8093C49.7564 72.4589 50.7007 72.4035 51.5896 72.647L66.8864 70.1239C66.8864 70.1239 67.6647 68.8366 68.0668 68.9178C74.8724 61.4446 86.3256 60.574 94.1824 66.9333H94.1271Z" fill="#EA4335"/>
<path d="M115.359 72.8094C113.599 66.3359 109.992 60.5152 104.972 56.063L94.2378 66.7969C98.7711 70.5003 101.353 76.0813 101.243 81.9351V83.8422C106.521 83.8422 110.796 88.121 110.796 93.3958C110.796 98.6742 106.517 102.949 101.243 102.949H82.1316L80.2246 104.882V116.343L82.1316 118.25H101.243C112.198 118.335 121.917 111.234 125.171 100.773C128.417 90.3084 124.433 78.9473 115.359 72.8094Z" fill="#4285F4"/>
<path d="M62.9956 118.143H82.1065V102.846H62.9956C61.6345 102.846 60.2882 102.554 59.0488 101.986L56.3635 102.816L48.6616 110.467L47.9902 113.152C52.3096 116.413 57.5807 118.165 62.9956 118.143Z" fill="#34A853"/>
<path d="M62.9958 68.5158C52.3799 68.5785 42.9775 75.3766 39.5913 85.4356C36.2052 95.4945 39.5803 106.597 47.9941 113.067L59.0785 101.983C54.2685 99.8102 52.1327 94.1518 54.3053 89.3419C56.478 84.5319 62.1363 82.3961 66.9463 84.5687C69.0636 85.5278 70.7604 87.2246 71.7194 89.3419L82.8038 78.2575C78.086 72.0937 70.7567 68.4899 62.9958 68.5158Z" fill="#FBBC05"/>
</g>
<defs>
<clipPath id="clip0_428_39507">
<rect width="88" height="70.8183" fill="white" transform="translate(38.2891 47.4316)"/>
</clipPath>
</defs>
</svg>
