<svg width="49" height="49" viewBox="0 0 49 49" fill="none" xmlns="http://www.w3.org/2000/svg">
<path d="M24.6423 2.51904C24.1404 2.51922 23.6391 2.63086 23.176 2.85467L8.33353 10.0209C7.41026 10.4665 6.7389 11.3103 6.51103 12.3103L2.84353 28.4222C2.61689 29.4199 2.85573 30.4689 3.49228 31.2703L13.7673 44.189C14.4068 44.9935 15.3803 45.4622 16.4073 45.4622H32.8773C33.9042 45.4622 34.8777 44.9935 35.5173 44.189L45.7923 31.2722V31.2703C46.4287 30.4696 46.6692 29.4217 46.4429 28.424C46.4429 28.4234 46.4429 28.4228 46.4429 28.4222L42.7735 12.3103C42.7735 12.3097 42.7735 12.309 42.7735 12.3084C42.5457 11.3101 41.8747 10.4673 40.951 10.0209L26.1104 2.85467C26.1098 2.85404 26.1092 2.85342 26.1085 2.85279C25.6455 2.62996 25.1442 2.51887 24.6423 2.51904ZM24.6423 4.43904C24.8579 4.43911 25.0731 4.487 25.2742 4.58342L40.1167 11.7497C40.5158 11.9426 40.8037 12.3039 40.9023 12.7359L44.5698 28.8478C44.6678 29.28 44.5652 29.7306 44.2904 30.0759L34.0154 42.9947C33.7391 43.3422 33.3211 43.5422 32.8773 43.5422H16.4073C15.9635 43.5422 15.5473 43.3422 15.271 42.9947L4.99603 30.0759C4.72058 29.7291 4.61694 29.2785 4.71478 28.8478L8.38416 12.7378C8.48269 12.3054 8.77022 11.9434 9.16791 11.7515C9.16791 11.7509 9.16791 11.7503 9.16791 11.7497L24.0104 4.58342C24.2104 4.48673 24.4266 4.43898 24.6423 4.43904ZM24.6348 8.47779C24.4993 8.47809 24.3618 8.50509 24.2298 8.56029C23.7018 8.79069 23.4519 9.40479 23.6823 9.93279C23.9031 10.4512 23.9791 10.9688 24.0367 11.4872C24.0559 11.756 24.0669 12.0155 24.0573 12.2747C24.0861 12.5339 23.9512 12.7936 23.7592 13.0528C23.5576 13.312 23.5386 13.5717 23.5098 13.8309C20.8753 14.0895 18.5037 15.244 16.6904 16.979L16.6735 16.9697C16.4527 16.8257 16.2427 16.6811 15.9067 16.6715C15.5899 16.6523 15.3016 16.5954 15.1192 16.4034C14.9176 16.2498 14.7166 16.0777 14.5342 15.8953C14.1598 15.5305 13.8034 15.1364 13.5442 14.6372C13.4194 14.3972 13.1888 14.2042 12.9104 14.1178C12.3536 13.9642 11.778 14.281 11.6148 14.8378C11.4516 15.385 11.778 15.9704 12.3348 16.124C12.8724 16.2872 13.3238 16.556 13.7654 16.844C13.9766 16.988 14.1788 17.1419 14.3804 17.3147C14.6012 17.4587 14.7159 17.7275 14.8023 18.0347C14.8656 18.3424 15.0422 18.5204 15.2148 18.6928C13.9007 20.5641 13.1223 22.8382 13.1223 25.2928C13.1223 25.6988 13.1448 26.0993 13.186 26.4947C12.9707 26.5701 12.7575 26.6518 12.5748 26.8678C12.3636 27.1078 12.1327 27.2986 11.8735 27.3178C11.6239 27.385 11.3659 27.4334 11.1067 27.4622C10.5883 27.5294 10.0601 27.568 9.51291 27.4528C9.24411 27.4048 8.94666 27.4619 8.70666 27.6347C8.23626 27.9611 8.13088 28.6136 8.45728 29.084C8.79328 29.5544 9.44563 29.6713 9.91603 29.3353C10.3768 29.0089 10.8662 28.8254 11.3654 28.6622C11.615 28.5854 11.8656 28.5189 12.1248 28.4709C12.3744 28.3845 12.6522 28.4605 12.9498 28.5853C13.1971 28.7129 13.416 28.7028 13.6323 28.6809C14.4773 31.4206 16.325 33.7158 18.7379 35.1647C18.6555 35.3953 18.5781 35.6357 18.6517 35.939C18.7093 36.2558 18.7186 36.5545 18.5842 36.7753C18.4786 37.0153 18.364 37.2443 18.2392 37.4747C17.9704 37.9163 17.6828 38.3582 17.2604 38.7422C17.0588 38.9246 16.9231 39.1833 16.9135 39.4809C16.8943 40.0569 17.3463 40.538 17.9223 40.5572C18.4983 40.5764 18.9887 40.1244 19.0079 39.5484C19.0175 38.982 19.1707 38.4839 19.3435 37.9847C19.4299 37.7447 19.5358 37.5044 19.651 37.274C19.7374 37.0244 19.967 36.8408 20.2454 36.6872C20.5227 36.544 20.6475 36.3416 20.7723 36.1284C21.984 36.5628 23.2832 36.8128 24.6423 36.8128C26.0246 36.8128 27.345 36.5545 28.5742 36.1059C28.7042 36.3278 28.8378 36.5388 29.116 36.6872C29.3944 36.8504 29.624 37.0244 29.7104 37.274C29.8256 37.514 29.9221 37.754 30.0085 37.994C30.1813 38.4932 30.325 38.9914 30.3442 39.5578C30.3442 39.8362 30.459 40.1062 30.6798 40.3078C31.1118 40.6918 31.7656 40.6627 32.1592 40.2403C32.5432 39.8083 32.5141 39.1545 32.0917 38.7609C31.6693 38.3865 31.3815 37.9352 31.1223 37.484C30.9975 37.2632 30.8829 37.0244 30.7773 36.794C30.6429 36.5636 30.652 36.2746 30.7192 35.9578C30.796 35.6314 30.7097 35.3918 30.6329 35.1422L30.6254 35.1178C33.0191 33.6544 34.8425 31.3522 35.6692 28.6134L35.701 28.6153C35.9698 28.6345 36.2287 28.6622 36.5167 28.499C36.8047 28.3646 37.0939 28.2872 37.3435 28.364C37.5931 28.4024 37.8514 28.46 38.101 28.5272C38.6002 28.6712 39.1006 28.8441 39.571 29.1609C39.8014 29.3049 40.0893 29.3725 40.3773 29.3053C40.9437 29.1805 41.299 28.6246 41.1742 28.0678C41.0494 27.5014 40.4918 27.1461 39.9254 27.2709C39.3686 27.3957 38.8503 27.3752 38.3223 27.3272C38.0631 27.2984 37.8127 27.261 37.5535 27.2034C37.2943 27.1842 37.0656 27.0119 36.8448 26.7815C36.624 26.5223 36.3744 26.4552 36.1248 26.3784L36.1079 26.3728C36.1412 26.0167 36.1623 25.6574 36.1623 25.2928C36.1623 22.9127 35.4356 20.6979 34.1935 18.8597C34.3756 18.668 34.5596 18.4861 34.6267 18.1603C34.7131 17.8531 34.8277 17.5843 35.0485 17.4403C35.2405 17.2675 35.4523 17.1139 35.6635 16.9603C36.0955 16.6723 36.5472 16.3939 37.0848 16.2403C37.3536 16.1635 37.5823 15.9803 37.7167 15.7115C37.9855 15.2027 37.7851 14.5701 37.2667 14.3109C36.7579 14.0421 36.1234 14.2425 35.8642 14.7609C35.605 15.2601 35.2502 15.6542 34.8854 16.019C34.6934 16.2014 34.502 16.3752 34.3004 16.5384C34.118 16.7304 33.8297 16.7873 33.5129 16.8065C33.1769 16.8161 32.965 16.97 32.7442 17.114C30.9135 15.3005 28.4799 14.0964 25.7748 13.8309C25.746 13.5717 25.727 13.312 25.5254 13.0528C25.3334 12.7936 25.1985 12.5339 25.2273 12.2747C25.2177 12.0155 25.2287 11.756 25.2479 11.4872C25.3055 10.9688 25.3815 10.4512 25.6023 9.93279C25.7079 9.68319 25.7175 9.38619 25.6023 9.10779C25.4295 8.71179 25.0411 8.47689 24.6348 8.47779ZM23.2585 15.8034L23.2117 16.1728C23.0773 17.2096 22.9814 18.256 22.8854 19.2928C22.8278 19.84 22.7794 20.3975 22.741 20.9447C22.2706 20.6087 21.8002 20.2527 21.301 19.9359C20.437 19.3503 19.5726 18.764 18.6798 18.2072L18.3779 18.0197C19.7281 16.8563 21.4062 16.0701 23.2585 15.8034ZM26.026 15.8034C27.9542 16.081 29.6907 16.9254 31.0679 18.1678L30.7473 18.3703C29.8641 18.9367 29.0107 19.5228 28.1467 20.1084C27.8011 20.3388 27.4643 20.579 27.1379 20.819C26.8787 21.0014 26.5234 20.8377 26.5042 20.5209C26.4754 20.1081 26.4376 19.7056 26.3992 19.2928C26.3032 18.256 26.2073 17.2096 26.0729 16.1728L26.026 15.8034ZM16.561 20.1159L16.8667 20.4347C17.5963 21.1931 18.336 21.923 19.0848 22.6622C19.4016 22.979 19.7184 23.2777 20.0448 23.5753C20.2752 23.7865 20.1886 24.1601 19.891 24.2465C19.4206 24.3905 18.9496 24.5242 18.4792 24.6778C17.4904 25.0042 16.4923 25.3126 15.5035 25.6678L15.0685 25.8197C15.059 25.644 15.0423 25.4709 15.0423 25.2928C15.0423 23.3821 15.604 21.6095 16.561 20.1159ZM32.8379 20.3053C33.7229 21.7592 34.2423 23.4615 34.2423 25.2928C34.2423 25.4531 34.2256 25.6088 34.2179 25.7672L33.8767 25.6584C32.8783 25.332 31.8809 25.052 30.8729 24.764C30.2201 24.572 29.5663 24.4004 28.9135 24.2372C29.4031 23.7668 29.9131 23.3053 30.3835 22.8253C31.1227 22.0861 31.861 21.347 32.581 20.579L32.8379 20.3053ZM24.0479 23.3728H25.2179C25.4003 23.3728 25.5738 23.4596 25.6698 23.594L26.4179 24.5353C26.5235 24.6601 26.563 24.8408 26.5342 25.004L26.2642 26.1665C26.2354 26.3489 26.1103 26.4926 25.9567 26.579L24.8823 27.0778C24.7287 27.1642 24.5371 27.1642 24.3835 27.0778L23.3073 26.579C23.1537 26.4926 23.019 26.3489 22.9998 26.1665L22.7317 25.004C22.7029 24.8408 22.7423 24.6601 22.8479 24.5353L23.596 23.594C23.692 23.4596 23.8655 23.3728 24.0479 23.3728ZM20.581 27.9515C20.8786 27.9035 21.12 28.2019 21.0048 28.4803C20.8224 28.9603 20.6486 29.4309 20.4854 29.9109C20.1302 30.8997 19.7843 31.8788 19.4579 32.8772L19.3267 33.2897C17.6181 32.1536 16.3058 30.4818 15.6067 28.514L16.1167 28.4709C17.1631 28.3749 18.1903 28.2488 19.2367 28.124C19.6879 28.076 20.1298 28.0091 20.581 27.9515ZM28.876 28.0865C29.3272 28.1345 29.7692 28.1831 30.2204 28.2215C31.2668 28.3175 32.3034 28.4131 33.3498 28.4803L33.6835 28.499C32.997 30.4417 31.7136 32.0977 30.0404 33.2353L29.9317 32.8865C29.6149 31.8881 29.2702 30.8995 28.9342 29.9203C28.7806 29.4787 28.6267 29.0473 28.4635 28.6153C28.3579 28.3369 28.588 28.0481 28.876 28.0865ZM24.7135 29.9803C24.8503 29.9803 24.9874 30.0492 25.0642 30.1884C25.2754 30.5916 25.4975 30.9854 25.7279 31.379C26.2463 32.2814 26.763 33.194 27.3198 34.0772L27.5467 34.4447C26.6307 34.7338 25.6555 34.8928 24.6423 34.8928C23.6595 34.8928 22.7123 34.7436 21.8204 34.4709L22.0604 34.0865C22.6172 33.2033 23.1449 32.3002 23.6729 31.3978C23.9129 31.0042 24.144 30.6012 24.3648 30.1884C24.4416 30.0492 24.5767 29.9803 24.7135 29.9803Z" fill="white"/>
</svg>
