<svg width="156" height="42" viewBox="0 0 156 42" fill="none" xmlns="http://www.w3.org/2000/svg">
<path d="M13.9 2.91504L4.22266 19.6783L13.9 36.4415H33.2579L42.9352 19.6783L33.2579 2.91504H13.9Z" fill="url(#paint0_linear_1353_13905)"/>
<path d="M33.4602 4.53474C34.4889 4.53474 35.3228 3.70083 35.3228 2.67215C35.3228 1.64348 34.4889 0.80957 33.4602 0.80957C32.4316 0.80957 31.5977 1.64348 31.5977 2.67215C31.5977 3.70083 32.4316 4.53474 33.4602 4.53474Z" fill="url(#paint1_linear_1353_13905)"/>
<path d="M33.4595 5.3448C32.931 5.3448 32.4143 5.18807 31.9748 4.89442C31.5353 4.60077 31.1928 4.1834 30.9905 3.69509C30.7883 3.20677 30.7353 2.66944 30.8385 2.15104C30.9416 1.63265 31.1961 1.15647 31.5698 0.782729C31.9436 0.408987 32.4198 0.154466 32.9382 0.0513506C33.4565 -0.0517645 33.9939 0.00115791 34.4822 0.203426C34.9705 0.405693 35.3879 0.748222 35.6815 1.1877C35.9752 1.62717 36.1319 2.14385 36.1319 2.6724C36.1311 3.3809 35.8492 4.06014 35.3482 4.56113C34.8473 5.06211 34.168 5.34395 33.4595 5.3448ZM33.4595 1.61964C33.2513 1.61964 33.0478 1.68138 32.8746 1.79706C32.7015 1.91274 32.5666 2.07716 32.4869 2.26953C32.4072 2.46189 32.3864 2.67357 32.427 2.87779C32.4676 3.082 32.5679 3.26959 32.7151 3.41682C32.8623 3.56405 33.0499 3.66432 33.2541 3.70494C33.4583 3.74556 33.67 3.72471 33.8624 3.64503C34.0548 3.56535 34.2192 3.43041 34.3349 3.25729C34.4505 3.08416 34.5123 2.88062 34.5123 2.6724C34.5118 2.39332 34.4008 2.1258 34.2035 1.92846C34.0061 1.73112 33.7386 1.62007 33.4595 1.61964Z" fill="white"/>
<path d="M12.3234 7.77474C14.023 7.77474 15.4007 6.39698 15.4007 4.69743C15.4007 2.99788 14.023 1.62012 12.3234 1.62012C10.6239 1.62012 9.24609 2.99788 9.24609 4.69743C9.24609 6.39698 10.6239 7.77474 12.3234 7.77474Z" fill="url(#paint2_linear_1353_13905)"/>
<path d="M12.3227 8.58383C11.5539 8.58383 10.8023 8.35585 10.1631 7.92873C9.52387 7.50161 9.02565 6.89452 8.73144 6.18424C8.43723 5.47396 8.36025 4.69239 8.51024 3.93836C8.66022 3.18433 9.03044 2.49171 9.57406 1.94809C10.1177 1.40446 10.8103 1.03425 11.5643 0.884262C12.3184 0.734276 13.0999 0.811255 13.8102 1.10546C14.5205 1.39967 15.1276 1.89789 15.5547 2.53713C15.9818 3.17636 16.2098 3.9279 16.2098 4.6967C16.2098 5.72763 15.8003 6.71634 15.0713 7.44531C14.3423 8.17429 13.3536 8.58383 12.3227 8.58383ZM12.3227 2.42921C11.8742 2.42921 11.4358 2.56219 11.0629 2.81135C10.69 3.0605 10.3994 3.41464 10.2278 3.82897C10.0562 4.2433 10.0113 4.69922 10.0988 5.13907C10.1862 5.57892 10.4022 5.98294 10.7193 6.30006C11.0364 6.61717 11.4405 6.83313 11.8803 6.92062C12.3202 7.00811 12.7761 6.96321 13.1904 6.79159C13.6047 6.61997 13.9589 6.32934 14.208 5.95645C14.4572 5.58356 14.5902 5.14517 14.5902 4.6967C14.5902 4.09532 14.3513 3.51858 13.926 3.09334C13.5008 2.6681 12.9241 2.42921 12.3227 2.42921Z" fill="white"/>
<path d="M33.0539 40.4906C34.7534 40.4906 36.1312 39.1128 36.1312 37.4132C36.1312 35.7137 34.7534 34.3359 33.0539 34.3359C31.3543 34.3359 29.9766 35.7137 29.9766 37.4132C29.9766 39.1128 31.3543 40.4906 33.0539 40.4906Z" fill="url(#paint3_linear_1353_13905)"/>
<path d="M33.0551 41.3006C32.2863 41.3006 31.5348 41.0726 30.8955 40.6455C30.2563 40.2184 29.7581 39.6113 29.4639 38.901C29.1697 38.1908 29.0927 37.4092 29.2427 36.6552C29.3926 35.9011 29.7629 35.2085 30.3065 34.6649C30.8501 34.1213 31.5427 33.751 32.2968 33.6011C33.0508 33.4511 33.8324 33.5281 34.5426 33.8223C35.2529 34.1165 35.86 34.6147 36.2871 35.2539C36.7143 35.8932 36.9422 36.6447 36.9422 37.4135C36.9422 38.4444 36.5327 39.4331 35.8037 40.1621C35.0747 40.8911 34.086 41.3006 33.0551 41.3006ZM33.0551 35.146C32.6066 35.146 32.1682 35.279 31.7953 35.5281C31.4225 35.7773 31.1318 36.1314 30.9602 36.5458C30.7886 36.9601 30.7437 37.416 30.8312 37.8559C30.9187 38.2957 31.1346 38.6997 31.4517 39.0169C31.7689 39.334 32.1729 39.5499 32.6127 39.6374C33.0526 39.7249 33.5085 39.68 33.9228 39.5084C34.3372 39.3368 34.6913 39.0461 34.9404 38.6732C35.1896 38.3004 35.3226 37.862 35.3226 37.4135C35.3226 36.8121 35.0837 36.2354 34.6585 35.8101C34.2332 35.3849 33.6565 35.146 33.0551 35.146Z" fill="white"/>
<path d="M3.17313 21.5416C4.20181 21.5416 5.03571 20.7077 5.03571 19.679C5.03571 18.6503 4.20181 17.8164 3.17313 17.8164C2.14445 17.8164 1.31055 18.6503 1.31055 19.679C1.31055 20.7077 2.14445 21.5416 3.17313 21.5416Z" fill="url(#paint4_linear_1353_13905)"/>
<path d="M3.1724 22.3507C2.64385 22.3507 2.12717 22.1939 1.6877 21.9003C1.24822 21.6066 0.905693 21.1893 0.703426 20.7009C0.501158 20.2126 0.448235 19.6753 0.551351 19.1569C0.654466 18.6385 0.908987 18.1623 1.28273 17.7886C1.65647 17.4148 2.13265 17.1603 2.65104 17.0572C3.16944 16.9541 3.70677 17.007 4.19509 17.2093C4.6834 17.4116 5.10077 17.7541 5.39442 18.1936C5.68807 18.633 5.8448 19.1497 5.8448 19.6783C5.84395 20.3868 5.56211 21.066 5.06113 21.567C4.56014 22.068 3.8809 22.3498 3.1724 22.3507ZM3.1724 18.6255C2.96418 18.6255 2.76064 18.6872 2.58752 18.8029C2.41439 18.9186 2.27946 19.083 2.19978 19.2754C2.12009 19.4678 2.09925 19.6794 2.13987 19.8836C2.18049 20.0879 2.28075 20.2754 2.42799 20.4227C2.57522 20.5699 2.7628 20.6702 2.96702 20.7108C3.17123 20.7514 3.38291 20.7306 3.57528 20.6509C3.76764 20.5712 3.93206 20.4363 4.04774 20.2631C4.16342 20.09 4.22517 19.8865 4.22517 19.6783C4.22474 19.3992 4.11368 19.1317 3.91635 18.9343C3.71901 18.737 3.45148 18.6259 3.1724 18.6255Z" fill="white"/>
<path d="M13.3763 39.1949C14.4049 39.1949 15.2388 38.361 15.2388 37.3323C15.2388 36.3036 14.4049 35.4697 13.3763 35.4697C12.3476 35.4697 11.5137 36.3036 11.5137 37.3323C11.5137 38.361 12.3476 39.1949 13.3763 39.1949Z" fill="url(#paint5_linear_1353_13905)"/>
<path d="M13.3755 40.005C12.847 40.005 12.3303 39.8482 11.8908 39.5546C11.4513 39.2609 11.1088 38.8436 10.9066 38.3552C10.7043 37.8669 10.6514 37.3296 10.7545 36.8112C10.8576 36.2928 11.1121 35.8166 11.4859 35.4429C11.8596 35.0691 12.3358 34.8146 12.8542 34.7115C13.3726 34.6084 13.9099 34.6613 14.3982 34.8636C14.8865 35.0658 15.3039 35.4084 15.5975 35.8479C15.8912 36.2873 16.0479 36.804 16.0479 37.3326C16.0471 38.0411 15.7652 38.7203 15.2643 39.2213C14.7633 39.7223 14.084 40.0041 13.3755 40.005ZM13.3755 36.2798C13.1673 36.2798 12.9638 36.3415 12.7906 36.4572C12.6175 36.5729 12.4826 36.7373 12.4029 36.9297C12.3232 37.1221 12.3024 37.3337 12.343 37.5379C12.3836 37.7422 12.4839 37.9297 12.6311 38.077C12.7783 38.2242 12.9659 38.3245 13.1701 38.3651C13.3744 38.4057 13.586 38.3849 13.7784 38.3052C13.9708 38.2255 14.1352 38.0906 14.2509 37.9174C14.3665 37.7443 14.4283 37.5408 14.4283 37.3326C14.4279 37.0535 14.3168 36.786 14.1195 36.5886C13.9221 36.3913 13.6546 36.2802 13.3755 36.2798Z" fill="white"/>
<path d="M44.3098 21.5416C45.3385 21.5416 46.1724 20.7077 46.1724 19.679C46.1724 18.6503 45.3385 17.8164 44.3098 17.8164C43.2812 17.8164 42.4473 18.6503 42.4473 19.679C42.4473 20.7077 43.2812 21.5416 44.3098 21.5416Z" fill="url(#paint6_linear_1353_13905)"/>
<path d="M44.3111 22.3507C43.7825 22.3507 43.2658 22.1939 42.8264 21.9003C42.3869 21.6066 42.0444 21.1893 41.8421 20.7009C41.6398 20.2126 41.5869 19.6753 41.69 19.1569C41.7931 18.6385 42.0477 18.1623 42.4214 17.7886C42.7951 17.4148 43.2713 17.1603 43.7897 17.0572C44.3081 16.9541 44.8454 17.007 45.3338 17.2093C45.8221 17.4116 46.2394 17.7541 46.5331 18.1936C46.8267 18.633 46.9835 19.1497 46.9835 19.6783C46.9826 20.3868 46.7008 21.066 46.1998 21.567C45.6988 22.068 45.0196 22.3498 44.3111 22.3507ZM44.3111 18.6255C44.1029 18.6255 43.8993 18.6872 43.7262 18.8029C43.5531 18.9186 43.4181 19.083 43.3384 19.2754C43.2588 19.4678 43.2379 19.6794 43.2785 19.8836C43.3192 20.0879 43.4194 20.2754 43.5667 20.4227C43.7139 20.5699 43.9015 20.6702 44.1057 20.7108C44.3099 20.7514 44.5216 20.7306 44.714 20.6509C44.9063 20.5712 45.0707 20.4363 45.1864 20.2631C45.3021 20.09 45.3638 19.8865 45.3638 19.6783C45.3634 19.3992 45.2524 19.1317 45.055 18.9343C44.8577 18.737 44.5902 18.6259 44.3111 18.6255Z" fill="white"/>
<path d="M31.5972 15.9536C31.5859 18.383 27.8834 18.383 27.872 15.9536C27.8607 13.5241 31.5859 13.5177 31.5972 15.9536ZM17.1015 21.5413C14.672 21.5527 14.672 25.2552 17.1015 25.2665C19.5309 25.2778 19.5374 21.5527 17.1015 21.5413ZM32.7309 4.53516L29.8156 16.0346L32.7309 4.53516ZM28.034 15.0628L15.4008 4.69712L28.034 15.0628ZM12.3235 7.77443L16.8585 22.3512L12.3235 7.77443ZM17.0205 25.2665L13.9432 35.4702L17.0205 25.2665ZM28.3579 17.3303L18.8021 22.6751L28.3579 17.3303ZM17.0205 23.3229L30.6254 35.4702L17.0205 23.3229ZM17.0205 23.3229L5.03516 19.5978L17.0205 23.3229ZM42.4488 19.5978L29.3297 16.6824L42.4488 19.5978ZM32.569 34.3365L29.6536 17.8162L32.569 34.3365Z" fill="white"/>
<path d="M30.3008 35.8329L18.5098 25.3053C18.182 25.5498 17.793 25.6989 17.3858 25.7361L14.4073 35.6159L13.4776 35.3341L16.393 25.66C15.3353 25.3523 14.7863 24.374 14.7863 23.4087C14.7863 23.3213 14.7863 23.2338 14.7992 23.1463L4.88867 20.069L5.17697 19.1426L15.0827 22.2199C15.2926 21.8248 15.6203 21.505 16.0204 21.3048L11.8596 7.9185L12.786 7.63021L16.9647 21.0554H17.0991C17.4692 21.0436 17.8363 21.125 18.1669 21.2919C18.4974 21.4589 18.7807 21.7061 18.9909 22.011L27.6867 17.1521C27.4821 16.7868 27.3781 16.3737 27.3854 15.9551C27.3848 15.7135 27.4186 15.473 27.4858 15.2409L15.0924 5.0728L15.7078 4.32129L27.9685 14.3809C28.1967 14.1435 28.471 13.9554 28.7746 13.8281C29.0782 13.7008 29.4047 13.637 29.7339 13.6407C29.7954 13.6407 29.857 13.6407 29.9185 13.6407L32.2589 4.40875L33.2015 4.64846L30.8563 13.9014C31.236 14.0894 31.5535 14.3827 31.7709 14.7463C31.9884 15.1099 32.0965 15.5285 32.0824 15.9519C32.0829 16.2272 32.0386 16.5007 31.9512 16.7617L42.5533 19.1183L42.3428 20.0674L31.3876 17.6379C31.06 17.9375 30.6548 18.139 30.2182 18.2194L33.0461 34.2538L32.0905 34.4158L29.2302 18.2162C28.928 18.157 28.6399 18.0404 28.3815 17.8728L19.3666 22.9163C19.3975 23.0765 19.4132 23.2392 19.4136 23.4022C19.4143 23.8044 19.3187 24.2009 19.135 24.5587L30.9486 35.1073L30.3008 35.8329ZM15.7597 23.4395C15.7743 24.11 16.1921 24.7773 17.1024 24.7805C17.3269 24.7828 17.5488 24.7323 17.7502 24.6332L16.7687 23.7553L15.7597 23.4395ZM17.3437 22.9536L18.3705 23.8719C18.4185 23.7183 18.4425 23.5583 18.4418 23.3974C18.4418 22.7576 18.0774 22.1114 17.2692 22.0288L17.321 22.2005L16.3946 22.4888L16.3184 22.2442C16.2139 22.318 16.1224 22.4089 16.048 22.5131L17.1688 22.8613L17.0198 23.3229L17.3437 22.9536ZM29.674 14.6076C29.0051 14.6368 28.3572 15.0627 28.3572 15.9551C28.3572 16.9269 29.1184 17.3335 29.8311 17.2913L29.2237 17.1569L29.4343 16.2078L30.9891 16.5528C31.0712 16.3638 31.1126 16.1596 31.1106 15.9535C31.1197 15.7478 31.0788 15.5429 30.9914 15.3564C30.9039 15.1699 30.7726 15.0075 30.6085 14.8829L30.2846 16.1544L29.3419 15.9147L29.674 14.6076Z" fill="white"/>
<path d="M66.6996 11.767V15.8514H62.0615V29.1504H57.7311V15.8514H53.0684V11.767H66.6996ZM79.5187 22.8023C79.5187 23.278 79.4859 23.6635 79.4203 23.9588H70.255C70.4682 24.5821 70.8291 25.0701 71.3376 25.4227C71.8543 25.7754 72.4653 25.9518 73.1707 25.9518C73.7694 25.9518 74.3271 25.8287 74.8438 25.5827C75.3687 25.3366 75.787 25.0414 76.0986 24.6969L78.7929 27.0344C78.0957 27.7971 77.251 28.3917 76.2586 28.8182C75.2662 29.2447 74.1959 29.458 73.0476 29.458C70.9972 29.458 69.2872 28.81 67.9175 27.5142C66.5478 26.2101 65.863 24.5903 65.863 22.6547C65.863 21.4162 66.1583 20.2885 66.7488 19.2715C67.3475 18.2545 68.1718 17.4549 69.2216 16.8725C70.2714 16.2902 71.436 15.9991 72.7155 15.9991C73.6751 15.9991 74.5731 16.1713 75.4097 16.5158C76.2545 16.8602 76.9762 17.3318 77.5749 17.9306C78.1737 18.5211 78.6453 19.2387 78.9897 20.0835C79.3424 20.9283 79.5187 21.8345 79.5187 22.8023ZM72.6909 19.4807C72.1168 19.4807 71.6082 19.657 71.1654 20.0097C70.7307 20.3541 70.419 20.8298 70.2304 21.4368H75.1637C74.9832 20.838 74.6716 20.3623 74.2287 20.0097C73.7858 19.657 73.2732 19.4807 72.6909 19.4807ZM87.6753 29.458C86.363 29.458 85.1738 29.1668 84.1075 28.5845C83.0495 27.994 82.2212 27.1861 81.6224 26.1609C81.0237 25.1357 80.7244 23.9916 80.7244 22.7285C80.7244 21.4655 81.0237 20.3213 81.6224 19.2961C82.2212 18.2709 83.0495 17.4672 84.1075 16.8848C85.1738 16.2943 86.363 15.9991 87.6753 15.9991C88.9465 15.9991 90.107 16.282 91.1568 16.8479C92.2067 17.4138 93.0309 18.1889 93.6296 19.1731L90.0742 21.3383C89.8446 20.9118 89.5165 20.5756 89.09 20.3295C88.6636 20.0753 88.192 19.9482 87.6753 19.9482C86.8797 19.9482 86.2195 20.2147 85.6946 20.7478C85.1697 21.2727 84.9072 21.933 84.9072 22.7285C84.9072 23.5241 85.1697 24.1843 85.6946 24.7092C86.2195 25.2341 86.8797 25.4966 87.6753 25.4966C88.192 25.4966 88.6636 25.3735 89.09 25.1275C89.5165 24.8732 89.8446 24.5329 90.0742 24.1064L93.6296 26.2839C93.0309 27.2681 92.2067 28.0432 91.1568 28.6091C90.107 29.175 88.9465 29.458 87.6753 29.458ZM105.846 29.1504L101.036 23.2821L99.744 24.7707V29.1504H95.4135V11.767H99.744V18.8163L105.588 11.767H111.087L103.804 20.1081L111.468 29.1504H105.846ZM121.667 27.9694C120.543 28.9618 119.055 29.458 117.201 29.458C115.348 29.458 113.859 28.9618 112.735 27.9694C111.612 26.9688 111.05 25.6483 111.05 24.008V16.3066H115.134V23.4297C115.134 24.0531 115.323 24.5534 115.7 24.9306C116.086 25.3079 116.586 25.4966 117.201 25.4966C117.816 25.4966 118.312 25.3079 118.69 24.9306C119.075 24.5534 119.268 24.0531 119.268 23.4297V16.3066H123.352V24.008C123.352 25.6483 122.791 26.9688 121.667 27.9694ZM133.477 15.9991C134.626 15.9991 135.671 16.2943 136.614 16.8848C137.558 17.4672 138.296 18.275 138.829 19.3084C139.362 20.3336 139.629 21.4737 139.629 22.7285C139.629 23.9834 139.362 25.1275 138.829 26.1609C138.296 27.1861 137.558 27.994 136.614 28.5845C135.671 29.1668 134.626 29.458 133.477 29.458C132.083 29.458 130.89 29.0028 129.897 28.0924V29.1504H125.825V11.0043H129.897V17.3646C130.89 16.4543 132.083 15.9991 133.477 15.9991ZM130.685 24.7092C131.218 25.2341 131.882 25.4966 132.678 25.4966C133.473 25.4966 134.129 25.2341 134.646 24.7092C135.163 24.1843 135.421 23.5241 135.421 22.7285C135.421 21.933 135.159 21.2727 134.634 20.7478C134.117 20.2147 133.465 19.9482 132.678 19.9482C131.882 19.9482 131.218 20.2147 130.685 20.7478C130.16 21.2727 129.897 21.933 129.897 22.7285C129.897 23.5241 130.16 24.1843 130.685 24.7092ZM154.588 22.8023C154.588 23.278 154.555 23.6635 154.49 23.9588H145.325C145.538 24.5821 145.899 25.0701 146.407 25.4227C146.924 25.7754 147.535 25.9518 148.24 25.9518C148.839 25.9518 149.397 25.8287 149.913 25.5827C150.438 25.3366 150.857 25.0414 151.168 24.6969L153.862 27.0344C153.165 27.7971 152.321 28.3917 151.328 28.8182C150.336 29.2447 149.265 29.458 148.117 29.458C146.067 29.458 144.357 28.81 142.987 27.5142C141.617 26.2101 140.933 24.5903 140.933 22.6547C140.933 21.4162 141.228 20.2885 141.818 19.2715C142.417 18.2545 143.241 17.4549 144.291 16.8725C145.341 16.2902 146.506 15.9991 147.785 15.9991C148.745 15.9991 149.643 16.1713 150.479 16.5158C151.324 16.8602 152.046 17.3318 152.645 17.9306C153.243 18.5211 153.715 19.2387 154.059 20.0835C154.412 20.9283 154.588 21.8345 154.588 22.8023ZM147.76 19.4807C147.186 19.4807 146.678 19.657 146.235 20.0097C145.8 20.3541 145.489 20.8298 145.3 21.4368H150.233C150.053 20.838 149.741 20.3623 149.298 20.0097C148.855 19.657 148.343 19.4807 147.76 19.4807Z" fill="#001EEE"/>
<defs>
<linearGradient id="paint0_linear_1353_13905" x1="4.22266" y1="19.6783" x2="42.9352" y2="19.6783" gradientUnits="userSpaceOnUse">
<stop stop-color="#08E6FD"/>
<stop offset="0.5" stop-color="#00A5FD"/>
<stop offset="1" stop-color="#001EEE"/>
</linearGradient>
<linearGradient id="paint1_linear_1353_13905" x1="31.5977" y1="2.67215" x2="35.3228" y2="2.67215" gradientUnits="userSpaceOnUse">
<stop stop-color="#08E6FD"/>
<stop offset="0.5" stop-color="#00A5FD"/>
<stop offset="1" stop-color="#001EEE"/>
</linearGradient>
<linearGradient id="paint2_linear_1353_13905" x1="9.24609" y1="4.69743" x2="15.4007" y2="4.69743" gradientUnits="userSpaceOnUse">
<stop stop-color="#08E6FD"/>
<stop offset="0.5" stop-color="#00A5FD"/>
<stop offset="1" stop-color="#001EEE"/>
</linearGradient>
<linearGradient id="paint3_linear_1353_13905" x1="29.9766" y1="37.4132" x2="36.1312" y2="37.4132" gradientUnits="userSpaceOnUse">
<stop stop-color="#08E6FD"/>
<stop offset="0.5" stop-color="#00A5FD"/>
<stop offset="1" stop-color="#001EEE"/>
</linearGradient>
<linearGradient id="paint4_linear_1353_13905" x1="1.31055" y1="19.679" x2="5.03571" y2="19.679" gradientUnits="userSpaceOnUse">
<stop stop-color="#08E6FD"/>
<stop offset="0.5" stop-color="#00A5FD"/>
<stop offset="1" stop-color="#001EEE"/>
</linearGradient>
<linearGradient id="paint5_linear_1353_13905" x1="11.5137" y1="37.3323" x2="15.2388" y2="37.3323" gradientUnits="userSpaceOnUse">
<stop stop-color="#08E6FD"/>
<stop offset="0.5" stop-color="#00A5FD"/>
<stop offset="1" stop-color="#001EEE"/>
</linearGradient>
<linearGradient id="paint6_linear_1353_13905" x1="42.4473" y1="19.679" x2="46.1724" y2="19.679" gradientUnits="userSpaceOnUse">
<stop stop-color="#08E6FD"/>
<stop offset="0.5" stop-color="#00A5FD"/>
<stop offset="1" stop-color="#001EEE"/>
</linearGradient>
</defs>
</svg>
