<svg width="48" height="48" viewBox="0 0 48 48" fill="none" xmlns="http://www.w3.org/2000/svg">
<g clip-path="url(#clip0_428_40629)">
<path d="M26.8451 43.4545V44.4981C26.8451 44.7742 26.6213 44.9982 26.3451 44.9982C26.069 44.9982 25.845 44.7743 25.845 44.4981V43.4545C25.845 43.1784 26.0689 42.9544 26.3451 42.9544C26.6212 42.9544 26.8451 43.1784 26.8451 43.4545ZM28.7537 42.9544C28.4776 42.9544 28.2536 43.1783 28.2536 43.4545V44.4981C28.2536 44.7742 28.4775 44.9982 28.7537 44.9982C29.0298 44.9982 29.2537 44.7743 29.2537 44.4981V43.4545C29.2537 43.1784 29.0298 42.9544 28.7537 42.9544ZM31.1623 42.9544C30.8862 42.9544 30.6623 43.1783 30.6623 43.4545V44.4981C30.6623 44.7742 30.8861 44.9982 31.1623 44.9982C31.4384 44.9982 31.6624 44.7743 31.6624 44.4981V43.4545C31.6623 43.1784 31.4384 42.9544 31.1623 42.9544ZM33.5709 42.9544C33.2948 42.9544 33.0709 43.1783 33.0709 43.4545V44.4981C33.0709 44.7742 33.2948 44.9982 33.5709 44.9982C33.847 44.9982 34.071 44.7743 34.071 44.4981V43.4545C34.0708 43.1784 33.847 42.9544 33.5709 42.9544ZM13.1433 43.4761H3.50456C3.22847 43.4761 3.0045 43.7 3.0045 43.9762C3.0045 44.2523 3.22837 44.4763 3.50456 44.4763H13.1433C13.4194 44.4763 13.6433 44.2524 13.6433 43.9762C13.6433 43.7001 13.4194 43.4761 13.1433 43.4761ZM4.16531 3.00229H3.49903C3.22294 3.00229 2.99897 3.22616 2.99897 3.50235C2.99897 3.77845 3.22284 4.00241 3.49903 4.00241H4.16531C4.44141 4.00241 4.66537 3.77854 4.66537 3.50235C4.66538 3.22616 4.4415 3.00229 4.16531 3.00229ZM32.9069 4.00232H33.5729C33.849 4.00232 34.073 3.77845 34.073 3.50226C34.073 3.22616 33.8491 3.00219 33.5729 3.00219H32.9069C32.6308 3.00219 32.4068 3.22607 32.4068 3.50226C32.4068 3.77835 32.6308 4.00232 32.9069 4.00232ZM4.16531 36.9509H3.49903C3.22294 36.9509 2.99897 37.1747 2.99897 37.4509C2.99897 37.727 3.22284 37.951 3.49903 37.951H4.16531C4.44141 37.951 4.66537 37.7271 4.66537 37.4509C4.66538 37.1747 4.4415 36.9509 4.16531 36.9509ZM32.4068 37.4508C32.4068 37.7269 32.6307 37.9509 32.9069 37.9509H33.5729C33.849 37.9509 34.073 37.727 34.073 37.4508C34.073 37.1747 33.8491 36.9508 33.5729 36.9508H32.9069C32.6308 36.9509 32.4068 37.1747 32.4068 37.4508ZM28.4832 14.6267V26.3262C28.4832 27.1533 27.8104 27.8262 26.9832 27.8262H10.0889C9.26175 27.8262 8.58891 27.1533 8.58891 26.3262V14.6267C8.58891 13.7996 9.26175 13.1267 10.0889 13.1267H26.9832C27.8104 13.1269 28.4832 13.7998 28.4832 14.6267ZM27.4833 14.6267C27.4833 14.3511 27.2588 14.1267 26.9832 14.1267H10.0889C9.81328 14.1267 9.58884 14.3511 9.58884 14.6267V26.3262C9.58884 26.6018 9.81328 26.8262 10.0889 26.8262H26.9832C27.2588 26.8262 27.4833 26.6018 27.4833 26.3262V14.6267ZM24.5835 16.5205H12.489C12.2129 16.5205 11.9889 16.7444 11.9889 17.0205C11.9889 17.2966 12.2127 17.5206 12.489 17.5206H24.5834C24.8595 17.5206 25.0835 17.2967 25.0835 17.0205C25.0835 16.7444 24.8596 16.5205 24.5835 16.5205ZM24.5835 19.9765H12.489C12.2129 19.9765 11.9889 20.2003 11.9889 20.4765C11.9889 20.7528 12.2127 20.9766 12.489 20.9766H24.5834C24.8595 20.9766 25.0835 20.7528 25.0835 20.4765C25.0835 20.2003 24.8596 19.9765 24.5835 19.9765ZM24.5835 23.4326H12.489C12.2129 23.4326 11.9889 23.6563 11.9889 23.9326C11.9889 24.2087 12.2127 24.4327 12.489 24.4327H24.5834C24.8595 24.4327 25.0835 24.2088 25.0835 23.9326C25.0835 23.6564 24.8596 23.4326 24.5835 23.4326ZM48 24.0036C48 28.7419 44.1449 32.5969 39.4064 32.5969C38.5972 32.5969 37.8168 32.4768 37.0738 32.267C37.0738 32.3638 37.0687 45.3958 37.0687 44.9989C37.0687 46.6531 35.7231 47.9987 34.0688 47.9987H3.00506C1.35084 47.9987 0.00525 46.6531 0.00525 44.9989C0.00403125 35.3403 0.00075 8.78554 0 3.00079C0 1.34666 1.34559 0.000976562 2.99981 0.000976562H34.0737C35.7279 0.000976562 37.0735 1.34657 37.0735 3.00079V15.7333C37.8165 15.5234 38.5969 15.4033 39.4061 15.4033C44.1449 15.4034 48 19.2614 48 24.0036ZM36.0685 40.1853C35.4787 40.7096 34.7807 40.9493 34.0687 40.9493H2.99991C2.23369 40.9493 1.53581 40.6582 1.00519 40.1837V44.9991C1.00519 46.1019 1.90238 46.999 3.00506 46.999H34.0687C35.1715 46.999 36.0686 46.1018 36.0686 44.9991V40.1853H36.0685ZM36.0737 31.9248C32.9821 30.6211 30.8063 27.5616 30.8063 24.0035C30.8063 20.4424 32.9821 17.3805 36.0737 16.0759V3.00079C36.0737 1.89801 35.1765 1.00091 34.0738 1.00091H2.99991C1.89713 1.00091 1.00003 1.8981 1.00003 3.00079V37.9493C1.00003 39.0521 1.89722 39.9492 2.99991 39.9492H34.0687C35.1742 39.9492 36.0737 39.0638 36.0737 37.9493V31.9248ZM47.0001 24.0036C47.0001 19.8129 43.5935 16.4034 39.4064 16.4034C35.2157 16.4034 31.8065 19.8129 31.8065 24.0036C31.8065 28.1907 35.2158 31.597 39.4064 31.597C43.5934 31.5971 47.0001 28.1907 47.0001 24.0036ZM37.2549 19.9382L37.4296 19.0422C37.4826 18.7712 37.3056 18.5085 37.0346 18.4558C36.7634 18.402 36.5007 18.5795 36.4482 18.8507L36.0291 21.0006C36.0334 21.0962 36.0019 21.2414 36.1372 21.4078C36.2169 21.5066 36.3521 21.573 36.4241 21.5869L38.574 22.0063C38.8414 22.0589 39.107 21.885 39.1604 21.6113C39.2134 21.3403 39.0364 21.0777 38.7654 21.0249L37.7234 20.8216C39.0886 20.0917 40.8263 20.2996 41.9747 21.4478C43.3818 22.8553 43.3818 25.1451 41.9747 26.5526C40.5693 27.9575 38.2808 27.9561 36.8734 26.5491C36.6781 26.3538 36.3617 26.3538 36.1664 26.5491C35.9711 26.7444 35.9711 27.0611 36.1664 27.2561C37.9578 29.047 40.8804 29.0608 42.6818 27.2595C44.4788 25.4625 44.4788 22.5381 42.6818 20.7408C41.2153 19.2748 38.9977 19.0082 37.2549 19.9382Z" fill="white" stroke="white" stroke-width="0.5"/>
</g>
<defs>
<clipPath id="clip0_428_40629">
<rect width="48" height="48" fill="white"/>
</clipPath>
</defs>
</svg>
