<svg width="48" height="48" viewBox="0 0 48 48" fill="none" xmlns="http://www.w3.org/2000/svg">
<g clip-path="url(#clip0_428_40634)">
<path d="M29.206 8.62871C26.458 5.87996 22.8048 4.36646 18.9175 4.36646C15.031 4.36646 11.377 5.87996 8.62977 8.62871C4.70952 12.5497 3.50277 18.1687 5.00127 23.139C5.00877 23.181 5.02827 23.2185 5.04327 23.259C5.71977 25.4355 6.91002 27.4852 8.63052 29.2057C11.3778 31.9537 15.0318 33.4672 18.9183 33.4672C22.8055 33.4672 26.4588 31.9537 29.2068 29.2057C31.9555 26.4577 33.469 22.8037 33.469 18.918C33.4683 15.0307 31.9548 11.3767 29.206 8.62871ZM9.65877 9.65696C12.1315 7.18346 15.4203 5.82146 18.9183 5.82146C22.417 5.82146 25.705 7.18346 28.1785 9.65696C28.2115 9.68996 28.2393 9.7267 28.2715 9.7597L25.0488 10.7752C24.6573 10.2652 24.0483 9.93145 23.3568 9.93145C22.1778 9.93145 21.2178 10.8907 21.2178 12.0705C21.2178 12.7447 21.5373 13.3395 22.0255 13.7317L19.603 20.3227C19.4755 20.2987 19.3443 20.283 19.21 20.283C18.8613 20.283 18.5373 20.3752 18.2463 20.523L13.4245 16.5045C13.4268 16.4662 13.4365 16.4295 13.4365 16.3912C13.4365 15.2122 12.4773 14.2522 11.2968 14.2522C10.1163 14.2522 9.15702 15.2115 9.15702 16.3912C9.15702 16.4505 9.17052 16.506 9.17427 16.5637L6.03927 21.2265C5.31627 17.1525 6.51627 12.7987 9.65877 9.65696ZM23.3568 12.7545C22.9795 12.7545 22.6728 12.447 22.6728 12.0697C22.6728 11.6925 22.9795 11.385 23.3568 11.385C23.7348 11.385 24.0415 11.6917 24.0415 12.0697C24.0415 12.4477 23.734 12.7545 23.3568 12.7545ZM19.2093 21.7365C19.321 21.7365 19.4215 21.7695 19.5145 21.8167C19.5423 21.843 19.5783 21.8587 19.6098 21.8812C19.7785 22.0065 19.894 22.1962 19.894 22.4212C19.894 22.7985 19.5873 23.1052 19.2093 23.1052C18.8313 23.1052 18.5245 22.7985 18.5245 22.422C18.5245 22.044 18.8313 21.7365 19.2093 21.7365ZM10.612 16.3905C10.612 16.0132 10.9188 15.7065 11.2968 15.7065C11.6748 15.7065 11.9815 16.0132 11.9815 16.3905C11.9815 16.7677 11.6748 17.0752 11.2968 17.0752C10.9188 17.0752 10.612 16.7685 10.612 16.3905ZM28.1778 28.1767C25.7043 30.6502 22.4163 32.0122 18.9175 32.0122C15.4195 32.0122 12.1308 30.6502 9.65802 28.1767C8.18502 26.7037 7.15077 24.9607 6.52827 23.109L9.94077 18.0315C10.3105 18.3382 10.7793 18.5302 11.2968 18.5302C11.8915 18.5302 12.4293 18.2857 12.817 17.8927L17.2428 21.5812C17.1325 21.8392 17.0703 22.1235 17.0703 22.422C17.0703 23.601 18.0295 24.561 19.2093 24.561C20.389 24.561 21.349 23.6017 21.349 22.422C21.349 21.9157 21.1653 21.4567 20.8698 21.09L23.401 14.205C24.5283 14.1817 25.438 13.2832 25.486 12.1627L29.3035 10.9605C31.054 13.2352 32.0133 15.9997 32.0133 18.9172C32.014 22.4145 30.6513 25.7032 28.1778 28.1767Z" fill="white"/>
<path d="M45.6695 38.5065L34.9715 28.9185C38.7275 22.8892 38.7717 15.1927 35.1027 9.126L41.087 7.23975L40.6287 8.0475C40.4307 8.397 40.5537 8.841 40.9032 9.039C41.0157 9.10275 41.1395 9.1335 41.2617 9.1335C41.5152 9.1335 41.7605 9.00075 41.8947 8.7645L43.2687 6.34275C43.2777 6.327 43.2777 6.30825 43.2845 6.29175C43.3025 6.2535 43.3115 6.21375 43.3227 6.17325C43.3377 6.11925 43.352 6.06675 43.3535 6.01125C43.3549 5.979 43.3475 5.949 43.3437 5.9175C43.3392 5.8665 43.3445 5.8155 43.3279 5.766C43.3235 5.75025 43.3115 5.73975 43.3055 5.72475C43.2994 5.7105 43.2897 5.69925 43.283 5.685C43.2477 5.60775 43.205 5.53725 43.1442 5.478C43.1435 5.47725 43.1434 5.4765 43.1427 5.47575C43.1165 5.44875 43.085 5.43225 43.0557 5.4105C43.0182 5.3835 42.989 5.34825 42.947 5.328L40.4314 4.13475C40.0677 3.96225 39.6342 4.1175 39.4625 4.47975C39.2907 4.84275 39.4452 5.27625 39.8082 5.44875L40.6565 5.8515L34.2687 7.8645C33.6822 7.0515 33.0267 6.273 32.2955 5.54175C28.7217 1.968 23.972 0 18.9192 0C13.865 0 9.1152 1.968 5.5422 5.541C1.9692 9.114 0.00195312 13.8645 0.00195312 18.9172C0.00195312 21.9015 0.693453 24.7778 1.99095 27.3705L0.385203 29.481C0.142203 29.8005 0.203703 30.2572 0.523953 30.5002C0.655203 30.6007 0.809703 30.6488 0.963453 30.6488C1.18245 30.6488 1.39995 30.5497 1.54245 30.3615L2.7597 28.7617C3.5352 30.0292 4.4637 31.2157 5.54145 32.2927C9.22995 35.9805 14.0742 37.824 18.9185 37.824C22.3962 37.824 25.8717 36.8685 28.9212 34.968L38.5145 45.6653C39.8157 47.124 41.4035 47.952 42.9837 47.9963C43.0287 47.9992 43.0729 48 43.1165 48C44.3757 48 45.5487 47.4907 46.5169 46.5218C47.5219 45.5175 48.0327 44.2905 47.9959 42.9765C47.951 41.3918 47.1237 39.804 45.6695 38.5065ZM6.5712 31.2653C5.3277 30.0217 4.2957 28.6245 3.4917 27.1155C3.48345 27.0997 3.47745 27.084 3.46845 27.0682C2.1552 24.5858 1.45695 21.8055 1.45695 18.918C1.45695 14.2538 3.2727 9.8685 6.5712 6.57C9.86895 3.27225 14.255 1.45575 18.9192 1.45575C23.5835 1.45575 27.9687 3.27225 31.2672 6.57C38.075 13.3785 38.075 24.4567 31.2672 31.266C24.4565 38.073 13.379 38.073 6.5712 31.2653ZM45.4887 45.4935C44.7665 46.2158 43.952 46.5765 43.025 46.5435C41.8662 46.5105 40.6175 45.8377 39.5982 44.6963L30.1392 34.1482C30.8922 33.5925 31.6137 32.9753 32.2955 32.2927C32.9772 31.6102 33.5952 30.8888 34.1517 30.135L44.7005 39.5902C45.8382 40.605 46.5094 41.8545 46.5417 43.0177C46.568 43.9357 46.2132 44.7682 45.4887 45.4935Z" fill="white"/>
</g>
<defs>
<clipPath id="clip0_428_40634">
<rect width="48" height="48" fill="white"/>
</clipPath>
</defs>
</svg>
