<svg width="603" height="402" viewBox="0 0 603 402" fill="none" xmlns="http://www.w3.org/2000/svg">
<path d="M526.62 307.723C524.702 307.731 522.825 307.17 521.227 306.11C519.628 305.05 518.38 303.54 517.641 301.77C516.901 300.001 516.704 298.051 517.073 296.169C517.442 294.288 518.362 292.557 519.715 291.199C521.068 289.84 522.794 288.913 524.675 288.536C526.555 288.159 528.505 288.348 530.278 289.08C532.051 289.812 533.566 291.054 534.632 292.648C535.699 294.242 536.268 296.117 536.268 298.035C536.266 300.597 535.25 303.054 533.442 304.869C531.635 306.684 529.182 307.71 526.62 307.723ZM526.62 293.54C525.731 293.539 524.861 293.801 524.121 294.294C523.381 294.787 522.803 295.488 522.462 296.309C522.121 297.13 522.03 298.034 522.203 298.907C522.375 299.779 522.803 300.581 523.431 301.21C524.059 301.839 524.86 302.268 525.732 302.442C526.604 302.616 527.508 302.528 528.33 302.188C529.152 301.848 529.854 301.272 530.348 300.533C530.843 299.793 531.106 298.924 531.106 298.035C531.104 296.845 530.631 295.704 529.79 294.862C528.95 294.02 527.81 293.545 526.62 293.54Z" fill="#EBEBEB"/>
<path d="M526.62 353.8C524.702 353.808 522.825 353.247 521.227 352.187C519.628 351.127 518.38 349.617 517.641 347.847C516.901 346.078 516.704 344.129 517.073 342.247C517.442 340.365 518.362 338.635 519.715 337.276C521.068 335.917 522.794 334.99 524.675 334.613C526.555 334.236 528.505 334.425 530.278 335.157C532.051 335.89 533.566 337.131 534.632 338.725C535.699 340.319 536.268 342.194 536.268 344.112C536.266 346.674 535.25 349.131 533.442 350.946C531.635 352.761 529.182 353.787 526.62 353.8ZM526.62 339.626C525.733 339.626 524.865 339.889 524.128 340.382C523.39 340.875 522.815 341.575 522.475 342.395C522.136 343.215 522.047 344.117 522.22 344.987C522.393 345.857 522.82 346.657 523.448 347.284C524.075 347.912 524.874 348.339 525.745 348.512C526.615 348.685 527.517 348.596 528.337 348.257C529.157 347.917 529.857 347.342 530.35 346.604C530.843 345.867 531.106 344.999 531.106 344.112C531.104 342.923 530.631 341.783 529.79 340.942C528.949 340.101 527.809 339.628 526.62 339.626Z" fill="#EBEBEB"/>
<path d="M565.895 353.8C563.978 353.808 562.1 353.247 560.502 352.187C558.904 351.127 557.655 349.617 556.916 347.847C556.177 346.078 555.979 344.129 556.348 342.247C556.718 340.365 557.637 338.635 558.99 337.276C560.344 335.917 562.07 334.99 563.95 334.613C565.831 334.236 567.781 334.425 569.553 335.157C571.326 335.89 572.841 337.131 573.908 338.725C574.974 340.319 575.543 342.194 575.543 344.112C575.539 346.673 574.523 349.129 572.715 350.944C570.908 352.759 568.457 353.785 565.895 353.8ZM565.895 339.626C565.008 339.627 564.142 339.892 563.405 340.386C562.668 340.88 562.095 341.581 561.756 342.401C561.418 343.221 561.33 344.122 561.504 344.992C561.678 345.862 562.106 346.66 562.734 347.287C563.362 347.914 564.161 348.34 565.031 348.513C565.901 348.685 566.803 348.596 567.622 348.256C568.441 347.916 569.142 347.341 569.634 346.604C570.127 345.866 570.39 344.999 570.39 344.112C570.39 343.522 570.273 342.938 570.047 342.393C569.822 341.848 569.49 341.353 569.073 340.937C568.655 340.52 568.16 340.19 567.615 339.965C567.069 339.74 566.485 339.625 565.895 339.626Z" fill="#EBEBEB"/>
<path d="M528.976 305.247H523.774V337.801H528.976V305.247Z" fill="#EBEBEB"/>
<path d="M569.418 339.039H564.224V311.952C564.22 308.943 563.022 306.058 560.894 303.93C558.766 301.801 555.881 300.604 552.871 300.6H546.102V295.398H552.871C557.259 295.404 561.465 297.151 564.567 300.254C567.669 303.358 569.413 307.565 569.418 311.952V339.039Z" fill="#EBEBEB"/>
<path d="M549.8 288.475V306.975L539.71 298.035L549.8 288.475Z" fill="#EBEBEB"/>
<path d="M71.6528 94.0918H31.5332V160.663H71.6528V94.0918Z" fill="#F5F5F5"/>
<path d="M116.549 94.0918H73.1973V160.663H116.549V94.0918Z" fill="#F5F5F5"/>
<path d="M116.549 165.318H73.1973V229.638H116.549V165.318Z" fill="#F5F5F5"/>
<path d="M122.097 92.9424H167.748V33.8886H169.291V92.9424H206.444V32.5781H122.097V92.9424Z" fill="#F5F5F5"/>
<path d="M206.444 94.0918H169.291V160.663H206.444V94.0918Z" fill="#F5F5F5"/>
<path d="M206.444 165.318H169.291V229.638H206.444V165.318Z" fill="#F5F5F5"/>
<path d="M71.6528 165.318H31.5332V229.638H71.6528V165.318Z" fill="#F5F5F5"/>
<path d="M167.748 165.318H122.097V229.638H167.748V165.318Z" fill="#F5F5F5"/>
<path d="M71.6528 230.788H31.5332V288.748H71.6528V230.788Z" fill="#F5F5F5"/>
<path d="M206.444 230.788H169.291V288.748H206.444V230.788Z" fill="#F5F5F5"/>
<path d="M71.6528 92.9424V33.8886H73.1965V92.9424H116.54V32.5781H31.5332V92.9424H71.6528Z" fill="#F5F5F5"/>
<path d="M167.748 230.788H122.097V288.748H167.748V230.788Z" fill="#F5F5F5"/>
<path d="M116.549 230.788H73.1973V288.748H116.549V230.788Z" fill="#F5F5F5"/>
<path d="M167.748 94.0918H122.097V160.663H167.748V94.0918Z" fill="#F5F5F5"/>
<path d="M377.978 91.3667H339.635V154.987H377.978V91.3667Z" fill="#F5F5F5"/>
<path d="M420.871 91.3667H379.449V154.987H420.871V91.3667Z" fill="#F5F5F5"/>
<path d="M420.871 159.425H379.449V220.891H420.871V159.425Z" fill="#F5F5F5"/>
<path d="M426.177 90.2651H469.802V33.8243H471.281V90.2651H506.786V32.5781H426.177V90.2651Z" fill="#F5F5F5"/>
<path d="M506.785 91.3667H471.28V154.987H506.785V91.3667Z" fill="#F5F5F5"/>
<path d="M506.785 159.425H471.28V220.891H506.785V159.425Z" fill="#F5F5F5"/>
<path d="M377.978 159.425H339.635V220.891H377.978V159.425Z" fill="#F5F5F5"/>
<path d="M469.802 159.425H426.177V220.891H469.802V159.425Z" fill="#F5F5F5"/>
<path d="M377.969 90.2651V33.8243H379.441V90.2651H420.871V32.5781H339.635V90.2651H377.969Z" fill="#F5F5F5"/>
<path d="M469.802 91.3667H426.177V154.987H469.802V91.3667Z" fill="#F5F5F5"/>
<path d="M305.577 126.711L294.683 121.782C288.791 124.868 281.963 125.656 275.522 123.995C269.082 122.333 263.488 118.34 259.824 112.789C256.16 107.238 254.687 100.524 255.69 93.9494C256.694 87.3743 260.103 81.4058 265.256 77.2007C270.409 72.9957 276.94 70.8534 283.583 71.189C290.226 71.5247 296.508 74.3143 301.211 79.0175C305.914 83.7206 308.704 90.0022 309.04 96.645C309.376 103.288 307.233 109.819 303.028 114.972L305.577 126.711ZM294.651 120.777L304.299 125.151L302.04 114.755L302.176 114.586C306.155 109.807 308.282 103.757 308.17 97.5404C308.058 91.3233 305.714 85.3538 301.567 80.7213C297.419 76.0888 291.743 73.1023 285.576 72.3068C279.409 71.5113 273.162 72.96 267.974 76.3883C262.787 79.8165 259.005 84.9959 257.319 90.9811C255.633 96.9663 256.156 103.358 258.791 108.99C261.427 114.622 266 119.118 271.675 121.659C277.351 124.199 283.75 124.614 289.706 122.827C291.344 122.335 292.931 121.683 294.442 120.882L294.651 120.777Z" fill="#E0E0E0"/>
<path d="M284.508 108.093C287.751 95.4343 280.118 82.5429 267.459 79.2996C254.8 76.0564 241.909 83.6895 238.665 96.3486C235.422 109.008 243.055 121.899 255.714 125.142C268.374 128.386 281.265 120.753 284.508 108.093Z" fill="#E0E0E0"/>
<path d="M244.336 115.31L241.916 127.812L253.1 122.425L244.336 115.31Z" fill="#E0E0E0"/>
<path d="M251.756 105.396C253.514 105.396 254.94 103.971 254.94 102.213C254.94 100.454 253.514 99.0288 251.756 99.0288C249.998 99.0288 248.572 100.454 248.572 102.213C248.572 103.971 249.998 105.396 251.756 105.396Z" fill="white"/>
<path d="M263.712 102.213C263.712 102.849 263.524 103.47 263.17 103.999C262.817 104.528 262.315 104.94 261.727 105.184C261.139 105.427 260.493 105.491 259.869 105.367C259.245 105.243 258.672 104.936 258.222 104.487C257.772 104.037 257.466 103.464 257.342 102.84C257.218 102.216 257.282 101.57 257.525 100.982C257.768 100.394 258.181 99.892 258.71 99.5386C259.238 99.1852 259.86 98.9966 260.496 98.9966C261.349 98.9966 262.167 99.3354 262.77 99.9385C263.373 100.542 263.712 101.36 263.712 102.213Z" fill="white"/>
<path d="M269.243 105.396C271.002 105.396 272.427 103.971 272.427 102.213C272.427 100.454 271.002 99.0288 269.243 99.0288C267.485 99.0288 266.06 100.454 266.06 102.213C266.06 103.971 267.485 105.396 269.243 105.396Z" fill="white"/>
<path d="M249.746 369.302C249.746 369.422 198.909 369.511 136.205 369.511C73.5012 369.511 22.6562 369.422 22.6562 369.302C22.6562 369.181 73.4851 369.093 136.205 369.093C198.925 369.093 249.746 369.189 249.746 369.302Z" fill="#263238"/>
<path d="M580.344 245.22C580.344 245.333 542.009 245.429 494.726 245.429C447.442 245.429 409.1 245.333 409.1 245.22C409.1 245.108 447.426 245.011 494.726 245.011C542.025 245.011 580.344 245.059 580.344 245.22Z" fill="#263238"/>
<path d="M456.839 99.3579L449.056 94.2284C448.47 86.8255 445.135 79.9098 439.708 74.8405C434.282 69.7711 427.155 66.9148 419.73 66.8329C412.304 66.7509 405.116 69.4493 399.579 74.3977C394.042 79.346 390.556 86.1865 389.805 93.5746C389.055 100.963 391.096 108.364 395.526 114.324C399.956 120.285 406.454 124.372 413.745 125.784C421.036 127.196 428.591 125.83 434.926 121.955C441.26 118.08 445.917 111.975 447.979 104.841L456.839 99.3579Z" fill="white"/>
<path d="M456.84 99.3579L456.245 99.7116L454.524 100.757L447.931 104.777L448.068 104.857C448.069 104.845 448.068 104.833 448.064 104.821C448.06 104.809 448.053 104.799 448.045 104.789C448.037 104.78 448.027 104.773 448.015 104.768C448.004 104.763 447.992 104.761 447.98 104.761C447.96 104.76 447.94 104.766 447.924 104.778C447.908 104.789 447.897 104.806 447.891 104.825C446.494 109.582 443.933 113.915 440.438 117.432C439.361 118.519 438.2 119.519 436.965 120.423C435.631 121.37 434.228 122.216 432.768 122.955C426.995 125.868 420.426 126.806 414.069 125.623C407.711 124.441 401.918 121.204 397.579 116.41C393.24 111.616 390.595 105.53 390.05 99.0871C389.504 92.644 391.09 86.2001 394.562 80.7453C397.047 76.8857 400.38 73.6437 404.306 71.2661C408.01 69.0471 412.158 67.6744 416.455 67.2461C424.097 66.4852 431.737 68.7093 437.777 73.453L438.758 74.257C439.085 74.502 439.394 74.7707 439.682 75.061C440.269 75.6399 440.84 76.2188 441.403 76.7816C442.41 77.9465 443.349 79.1678 444.217 80.4398C446.923 84.5604 448.556 89.2919 448.968 94.2042C448.968 94.2178 448.971 94.2314 448.978 94.243C448.985 94.2545 448.996 94.2635 449.009 94.2686L454.806 98.0232L456.309 98.9961L456.84 99.3257C456.84 99.3257 456.687 99.2132 456.357 98.9961L454.894 98.0072L449.105 94.1238V94.1882C448.741 89.248 447.14 84.4787 444.45 80.3192C443.575 79.0327 442.631 77.7954 441.62 76.6127L439.891 74.868C439.609 74.5649 439.306 74.2827 438.983 74.0238L437.994 73.2198C435.121 70.9366 431.85 69.2056 428.346 68.1144C424.49 66.9031 420.429 66.482 416.406 66.8763C412.053 67.2866 407.846 68.6598 404.089 70.8963C400.105 73.2951 396.724 76.5766 394.208 80.488C391.572 84.5951 389.992 89.2905 389.609 94.156C389.539 94.7564 389.51 95.3607 389.521 95.965V97.766L389.674 99.5589C389.708 100.153 389.783 100.744 389.899 101.328C390.011 101.915 390.116 102.493 390.22 103.072C390.325 103.651 390.526 104.214 390.679 104.785C390.831 105.356 390.984 105.919 391.185 106.473L391.836 108.081C393.572 112.299 396.267 116.054 399.707 119.048C404.192 122.984 409.756 125.484 415.677 126.223C421.598 126.963 427.605 125.908 432.921 123.196C434.393 122.443 435.807 121.58 437.15 120.616C438.395 119.701 439.565 118.687 440.647 117.585C444.156 114.023 446.711 109.635 448.076 104.825H447.891C447.891 104.849 447.9 104.873 447.916 104.891C447.933 104.908 447.955 104.92 447.98 104.922H448.036L454.629 100.765L456.301 99.7036L456.84 99.3579Z" fill="#263238"/>
<path d="M413.568 91.7358C412.865 91.7358 412.178 91.5272 411.593 91.1363C411.009 90.7455 410.553 90.19 410.284 89.5402C410.016 88.8904 409.946 88.1754 410.084 87.4859C410.221 86.7963 410.561 86.1631 411.058 85.6664C411.556 85.1698 412.19 84.8319 412.88 84.6957C413.57 84.5595 414.285 84.631 414.934 84.9012C415.583 85.1714 416.137 85.6282 416.527 86.2136C416.917 86.7991 417.124 87.487 417.122 88.1901C417.12 89.1312 416.745 90.0331 416.078 90.6978C415.412 91.3625 414.509 91.7358 413.568 91.7358ZM413.568 86.5419C413.252 86.5498 412.945 86.6508 412.686 86.8323C412.427 87.0137 412.227 87.2675 412.112 87.5619C411.996 87.8564 411.97 88.1783 412.036 88.4876C412.103 88.7968 412.259 89.0795 412.486 89.3004C412.712 89.5213 412.999 89.6705 413.309 89.7294C413.62 89.7882 413.941 89.7541 414.233 89.6313C414.524 89.5085 414.773 89.3025 414.948 89.039C415.123 88.7755 415.216 88.4662 415.217 88.1499C415.217 87.9353 415.174 87.7229 415.09 87.5252C415.007 87.3274 414.885 87.1483 414.731 86.9985C414.578 86.8486 414.396 86.731 414.196 86.6526C413.996 86.5742 413.783 86.5366 413.568 86.5419Z" fill="#263238"/>
<path d="M413.568 108.62C412.865 108.62 412.178 108.412 411.594 108.021C411.01 107.631 410.554 107.076 410.285 106.426C410.016 105.777 409.946 105.062 410.083 104.373C410.22 103.684 410.559 103.051 411.055 102.554C411.552 102.057 412.186 101.718 412.875 101.581C413.564 101.444 414.279 101.514 414.928 101.783C415.578 102.052 416.133 102.508 416.523 103.092C416.914 103.676 417.122 104.364 417.122 105.066C417.122 106.009 416.748 106.913 416.081 107.579C415.415 108.246 414.511 108.62 413.568 108.62ZM413.568 103.426C413.252 103.434 412.945 103.535 412.686 103.717C412.427 103.898 412.227 104.152 412.112 104.446C411.996 104.741 411.97 105.063 412.036 105.372C412.103 105.681 412.259 105.964 412.486 106.185C412.712 106.406 412.999 106.555 413.309 106.614C413.62 106.672 413.941 106.638 414.233 106.516C414.524 106.393 414.773 106.187 414.948 105.923C415.123 105.66 415.216 105.351 415.217 105.034C415.217 104.82 415.174 104.607 415.09 104.409C415.007 104.212 414.885 104.033 414.731 103.883C414.578 103.733 414.396 103.615 414.196 103.537C413.996 103.458 413.783 103.421 413.568 103.426Z" fill="#263238"/>
<path d="M427.952 108.62C427.249 108.622 426.561 108.415 425.976 108.025C425.39 107.636 424.934 107.081 424.663 106.432C424.393 105.783 424.322 105.068 424.458 104.378C424.594 103.688 424.932 103.054 425.429 102.556C425.925 102.059 426.558 101.719 427.248 101.582C427.938 101.444 428.653 101.514 429.302 101.782C429.952 102.051 430.508 102.507 430.899 103.091C431.289 103.676 431.498 104.363 431.498 105.066C431.498 106.007 431.125 106.91 430.46 107.576C429.795 108.243 428.893 108.618 427.952 108.62ZM427.952 103.426C427.634 103.426 427.323 103.521 427.059 103.697C426.795 103.874 426.588 104.125 426.467 104.419C426.345 104.713 426.313 105.036 426.375 105.348C426.437 105.66 426.59 105.946 426.815 106.171C427.04 106.396 427.327 106.549 427.639 106.611C427.951 106.673 428.274 106.642 428.568 106.52C428.862 106.398 429.113 106.192 429.289 105.928C429.466 105.663 429.56 105.352 429.56 105.034C429.55 104.611 429.377 104.208 429.078 103.908C428.779 103.609 428.376 103.436 427.952 103.426Z" fill="#263238"/>
<path d="M414.421 90.8271H412.516V102.759H414.421V90.8271Z" fill="#263238"/>
<path d="M429.239 103.209H427.333V93.2639C427.331 92.1621 426.892 91.1061 426.113 90.327C425.334 89.5479 424.278 89.1093 423.177 89.1072H420.7V87.2339H423.177C424.784 87.236 426.324 87.8754 427.461 89.0118C428.597 90.1482 429.237 91.6889 429.239 93.296V103.209Z" fill="#263238"/>
<path d="M422.051 84.6846V91.4623L418.36 88.19L422.051 84.6846Z" fill="#263238"/>
<path d="M144.72 232.814L151.787 227.861C152.14 221.002 155.045 214.524 159.932 209.698C164.819 204.873 171.334 202.05 178.197 201.783C185.059 201.517 191.773 203.827 197.019 208.259C202.265 212.692 205.664 218.926 206.548 225.736C207.431 232.547 205.735 239.442 201.794 245.066C197.852 250.69 191.95 254.637 185.246 256.13C178.543 257.624 171.524 256.556 165.567 253.137C159.611 249.718 155.149 244.195 153.057 237.654L144.72 232.814Z" fill="white"/>
<path d="M144.72 232.814L145.283 233.119L146.891 234.044L153.097 237.59L152.969 237.67C152.968 237.659 152.969 237.647 152.972 237.637C152.976 237.626 152.982 237.616 152.989 237.608C152.997 237.599 153.006 237.593 153.016 237.588C153.027 237.584 153.038 237.581 153.049 237.582C153.068 237.581 153.086 237.587 153.102 237.597C153.117 237.607 153.13 237.621 153.138 237.638C154.554 242.004 157.042 245.945 160.374 249.103C161.398 250.083 162.501 250.978 163.67 251.78C164.93 252.616 166.246 253.363 167.61 254.015C172.001 256.085 176.865 256.947 181.7 256.511C186.535 256.075 191.166 254.358 195.116 251.535C199.067 248.713 202.193 244.889 204.172 240.456C206.152 236.023 206.913 231.143 206.378 226.317C205.898 221.884 204.326 217.638 201.804 213.96C199.408 210.456 196.242 207.547 192.55 205.454C189.07 203.495 185.197 202.336 181.213 202.061C177.529 201.799 173.83 202.28 170.335 203.476C167.168 204.555 164.227 206.209 161.66 208.356L160.776 209.16C160.473 209.405 160.191 209.674 159.931 209.964L158.388 211.572C157.492 212.678 156.657 213.832 155.887 215.029C153.498 218.916 152.116 223.338 151.867 227.893C151.875 227.914 151.875 227.937 151.867 227.958L146.569 231.552L145.202 232.492L144.72 232.814L145.154 232.492L146.489 231.552L151.739 227.813V227.877C151.952 223.283 153.321 218.817 155.718 214.893C156.487 213.68 157.325 212.512 158.227 211.395L159.787 209.739C160.033 209.45 160.302 209.181 160.591 208.935L161.483 208.131C166.989 203.503 174.079 201.197 181.253 201.699C185.292 201.975 189.219 203.145 192.751 205.124C196.497 207.24 199.71 210.185 202.141 213.735C204.683 217.465 206.265 221.765 206.748 226.253C206.831 226.807 206.874 227.366 206.877 227.925L206.941 229.59L206.845 231.246C206.832 231.799 206.778 232.349 206.684 232.894C206.596 233.433 206.515 233.98 206.427 234.502C206.333 235.044 206.209 235.581 206.057 236.11C205.912 236.633 205.8 237.171 205.631 237.718L205.076 239.238C203.574 243.18 201.18 246.722 198.081 249.585C195.272 252.18 191.956 254.166 188.342 255.419C184.728 256.671 180.894 257.162 177.081 256.861C173.748 256.598 170.492 255.726 167.473 254.289C166.077 253.634 164.733 252.873 163.453 252.013C162.281 251.196 161.174 250.29 160.14 249.304C156.789 246.108 154.3 242.118 152.904 237.702H153.073C153.074 237.713 153.073 237.725 153.07 237.735C153.066 237.746 153.06 237.756 153.053 237.764C153.045 237.773 153.036 237.779 153.026 237.784C153.015 237.788 153.004 237.791 152.993 237.791H152.945L146.738 234.116L145.13 233.176L144.72 232.814Z" fill="#263238"/>
<path d="M169.53 229.694L172.368 226.856L177.844 231.72L188.585 221.381L191.222 224.219L177.442 237.196L169.53 229.694Z" fill="#263238"/>
<path d="M507.59 330.934H186.473V331.738H507.59V330.934Z" fill="#263238"/>
<path d="M350.255 164.603H270.779V165.407H350.255V164.603Z" fill="#263238"/>
<path d="M544.358 330.934H525.601V331.738H544.358V330.934Z" fill="#263238"/>
<path d="M520.358 330.934H510.541V331.738H520.358V330.934Z" fill="#263238"/>
<path d="M253.06 178.021H252.256V310.046H253.06V178.021Z" fill="#263238"/>
<path d="M460.492 301.7H459.688V292.052H460.492V301.7ZM459.447 282.469C459.011 279.326 457.983 276.295 456.416 273.536L457.115 273.134C458.733 275.985 459.795 279.117 460.243 282.364L459.447 282.469ZM450.322 266.333C447.858 264.328 445.037 262.808 442.008 261.854L442.249 261.09C445.376 262.07 448.287 263.636 450.828 265.705L450.322 266.333ZM432.634 260.705H422.986V259.901H432.634V260.705ZM413.338 260.705H403.69V259.901H413.338V260.705ZM394.042 260.705C390.767 260.629 387.537 259.933 384.522 258.654L384.836 257.915C387.76 259.152 390.891 259.826 394.066 259.901L394.042 260.705ZM376.386 253.259C374.042 250.969 372.154 248.254 370.822 245.26L371.554 244.938C372.849 247.835 374.68 250.462 376.949 252.681L376.386 253.259ZM368.587 235.781C368.587 235.403 368.587 235.017 368.587 234.631V226.076H369.391V234.591C369.391 234.968 369.391 235.338 369.391 235.708L368.587 235.781ZM369.391 216.485H368.587V206.837H369.391V216.485ZM369.391 197.189H368.587V187.541H369.391V197.189Z" fill="#263238"/>
<path d="M285.628 142.574H205.373C194.339 142.574 185.394 151.517 185.394 162.549C185.394 173.581 194.339 182.524 205.373 182.524H285.628C296.663 182.524 305.608 173.581 305.608 162.549C305.608 151.517 296.663 142.574 285.628 142.574Z" fill="url(#paint0_linear_1550_5693)"/>
<path d="M213.244 161.966C213.244 163.574 212.046 164.539 210.141 164.539H208.927V166.364H206.957V159.385H210.173C212.046 159.385 213.244 160.374 213.244 161.966ZM211.25 161.966C211.25 161.323 210.84 160.945 210.02 160.945H208.927V162.987H210.02C210.84 162.987 211.25 162.609 211.25 161.966Z" fill="white"/>
<path d="M214.064 163.252V159.385H216.042V163.212C216.042 164.402 216.533 164.885 217.361 164.885C218.189 164.885 218.679 164.402 218.679 163.212V159.401H220.617V163.269C220.656 163.706 220.598 164.146 220.447 164.558C220.296 164.97 220.055 165.343 219.742 165.651C219.429 165.958 219.051 166.193 218.637 166.337C218.222 166.481 217.781 166.532 217.345 166.485C215.278 166.501 214.064 165.335 214.064 163.252Z" fill="white"/>
<path d="M221.952 159.385H223.922V164.82H227.251V166.388H221.952V159.385Z" fill="white"/>
<path d="M228.029 159.385H229.999V164.82H233.328V166.388H228.029V159.385Z" fill="white"/>
<path d="M240.049 164.507H238.972V166.364H237.002V159.385H240.218C242.123 159.385 243.321 160.374 243.321 161.966C243.339 162.428 243.219 162.884 242.975 163.277C242.732 163.669 242.376 163.98 241.955 164.169L243.458 166.364H241.344L240.049 164.507ZM240.049 160.945H238.956V162.987H240.049C240.853 162.987 241.279 162.609 241.279 161.966C241.279 161.323 240.885 160.945 240.065 160.945H240.049Z" fill="white"/>
<path d="M249.971 164.821V166.348H244.343V159.37H249.818V160.897H246.296V162.071H249.392V163.55H246.296V164.821H249.971Z" fill="white"/>
<path d="M258.8 167.168C258.564 167.454 258.267 167.681 257.929 167.833C257.592 167.985 257.224 168.058 256.854 168.045C255.712 168.045 254.965 167.659 253.799 166.437C252.935 166.323 252.143 165.897 251.571 165.24C250.999 164.582 250.688 163.738 250.695 162.867C250.759 161.882 251.195 160.959 251.915 160.284C252.634 159.609 253.584 159.233 254.571 159.233C255.557 159.233 256.507 159.609 257.227 160.284C257.947 160.959 258.383 161.882 258.446 162.867C258.454 163.606 258.23 164.33 257.804 164.934C257.378 165.539 256.773 165.994 256.074 166.236C256.17 166.357 256.292 166.456 256.432 166.524C256.571 166.592 256.723 166.628 256.878 166.63C257.077 166.624 257.273 166.578 257.454 166.495C257.635 166.412 257.797 166.294 257.931 166.147L258.8 167.168ZM254.571 164.869C254.969 164.891 255.365 164.794 255.707 164.589C256.05 164.384 256.323 164.081 256.491 163.719C256.659 163.357 256.715 162.954 256.652 162.56C256.588 162.166 256.407 161.8 256.134 161.51C255.86 161.22 255.505 161.018 255.116 160.932C254.726 160.845 254.319 160.878 253.949 161.025C253.578 161.172 253.259 161.427 253.035 161.756C252.81 162.086 252.69 162.476 252.689 162.875C252.672 163.132 252.707 163.39 252.794 163.632C252.881 163.875 253.017 164.097 253.194 164.284C253.37 164.471 253.584 164.62 253.821 164.721C254.058 164.821 254.313 164.872 254.571 164.869Z" fill="white"/>
<path d="M259.418 163.252V159.385H261.388V163.212C261.388 164.402 261.886 164.885 262.714 164.885C263.542 164.885 264.033 164.402 264.033 163.212V159.401H265.971V163.269C266.01 163.706 265.952 164.146 265.801 164.558C265.649 164.97 265.408 165.343 265.095 165.651C264.782 165.958 264.405 166.193 263.99 166.337C263.576 166.481 263.135 166.532 262.698 166.485C260.632 166.501 259.418 165.335 259.418 163.252Z" fill="white"/>
<path d="M272.9 164.821V166.348H267.272V159.37H272.74V160.897H269.258V162.071H272.354V163.55H269.258V164.821H272.9Z" fill="white"/>
<path d="M273.512 165.737L274.155 164.282C274.843 164.719 275.639 164.956 276.454 164.965C277.258 164.965 277.596 164.74 277.596 164.402C277.596 163.293 273.632 164.097 273.632 161.508C273.632 160.262 274.645 159.249 276.72 159.249C277.599 159.234 278.468 159.445 279.244 159.86L278.641 161.323C278.05 160.985 277.384 160.8 276.704 160.784C275.9 160.784 275.578 161.058 275.578 161.411C275.578 162.473 279.534 161.677 279.534 164.25C279.534 165.464 278.521 166.501 276.446 166.501C275.416 166.528 274.398 166.263 273.512 165.737Z" fill="white"/>
<path d="M281.825 160.953H279.687V159.385H285.926V160.953H283.811V166.364H281.841L281.825 160.953Z" fill="white"/>
<path d="M380.678 351.847H345.536C344.385 351.862 343.276 351.42 342.452 350.618C341.627 349.816 341.155 348.719 341.138 347.569V300.262C341.155 299.112 341.627 298.016 342.452 297.214C343.276 296.412 344.385 295.97 345.536 295.985H367.822L385.117 313.279V347.569C385.108 348.142 384.986 348.708 384.758 349.234C384.531 349.759 384.201 350.235 383.788 350.632C383.376 351.03 382.888 351.342 382.355 351.55C381.821 351.759 381.251 351.859 380.678 351.847Z" fill="#455A64"/>
<g opacity="0.2">
<path d="M367.822 295.985V309.299C367.827 309.83 367.938 310.354 368.147 310.842C368.356 311.33 368.659 311.771 369.039 312.141C369.42 312.511 369.87 312.802 370.363 312.998C370.857 313.193 371.384 313.288 371.915 313.279H385.116L367.822 295.985Z" fill="white"/>
</g>
<g opacity="0.2">
<path d="M368.007 310.465C368.007 310.465 367.83 313.681 371.609 314.758L372.043 314.855C373.764 315.152 385.076 317.106 385.076 316.857V313.279H371.915C371.915 313.279 368.626 313.166 368.007 310.465Z" fill="black"/>
</g>
<g opacity="0.3">
<path d="M341.137 334.239H385.116V348.646C385.116 349.499 384.777 350.317 384.174 350.92C383.571 351.524 382.753 351.862 381.9 351.862H344.337C343.484 351.862 342.666 351.524 342.063 350.92C341.46 350.317 341.121 349.499 341.121 348.646V334.239H341.137Z" fill="black"/>
</g>
<path d="M358.913 318.641L353.639 321.053L358.913 323.465V325.958L351.348 322.404V319.815L358.889 316.213L358.913 318.641Z" fill="white"/>
<path d="M367.428 323.505L372.702 321.093L367.428 318.681V316.189L374.969 319.791V322.404L367.428 325.974V323.505Z" fill="white"/>
<path d="M362.749 313.721L365.08 313.673L363.312 328.684L360.996 328.627L362.749 313.721Z" fill="white"/>
<path d="M279.052 351.847H243.91C242.759 351.862 241.65 351.42 240.826 350.618C240.001 349.816 239.529 348.719 239.512 347.569V300.262C239.529 299.112 240.001 298.016 240.826 297.214C241.65 296.412 242.759 295.97 243.91 295.985H266.196L283.45 313.279V347.569C283.433 348.719 282.961 349.816 282.136 350.618C281.312 351.42 280.203 351.862 279.052 351.847Z" fill="#455A64"/>
<g opacity="0.2">
<path d="M266.198 295.984V309.299C266.203 309.829 266.313 310.352 266.522 310.84C266.73 311.327 267.033 311.768 267.413 312.138C267.792 312.508 268.241 312.799 268.734 312.995C269.226 313.191 269.753 313.287 270.283 313.278H283.452L266.198 295.984Z" fill="white"/>
</g>
<g opacity="0.2">
<path d="M266.372 310.465C266.372 310.465 266.203 313.681 269.982 314.758C270.119 314.798 270.272 314.823 270.416 314.855C272.129 315.152 283.449 317.106 283.449 316.857V313.279H270.28C270.28 313.279 266.999 313.166 266.372 310.465Z" fill="black"/>
</g>
<g opacity="0.3">
<path d="M239.512 334.239H283.451V348.647C283.451 349.5 283.112 350.318 282.509 350.921C281.906 351.524 281.088 351.863 280.235 351.863H242.712C241.859 351.863 241.041 351.524 240.438 350.921C239.835 350.318 239.496 349.5 239.496 348.647V334.239H239.512Z" fill="black"/>
</g>
<path d="M257.281 318.641L252.006 321.053L257.281 323.465V325.958L249.747 322.404V319.815L257.289 316.213L257.281 318.641Z" fill="white"/>
<path d="M265.778 323.505L271.053 321.093L265.778 318.681V316.189L273.32 319.791V322.404L265.778 326.014V323.505Z" fill="white"/>
<path d="M261.125 313.721L263.449 313.673L261.68 328.684L259.364 328.627L261.125 313.721Z" fill="white"/>
<path d="M384.586 201.611H350.818C349.713 201.626 348.646 201.202 347.854 200.432C347.061 199.662 346.606 198.608 346.589 197.503V152.013C346.606 150.907 347.061 149.854 347.854 149.084C348.646 148.313 349.713 147.889 350.818 147.904L375.477 148.33L388.839 164.531V197.495C388.832 198.045 388.716 198.588 388.498 199.093C388.28 199.598 387.964 200.055 387.569 200.438C387.173 200.82 386.706 201.121 386.195 201.322C385.683 201.524 385.136 201.622 384.586 201.611Z" fill="#455A64"/>
<g opacity="0.3">
<path d="M346.565 184.688H388.815V198.42C388.815 199.273 388.476 200.091 387.873 200.694C387.27 201.297 386.452 201.636 385.599 201.636H349.74C348.887 201.636 348.069 201.297 347.466 200.694C346.863 200.091 346.524 199.273 346.524 198.42V184.688H346.565Z" fill="black"/>
</g>
<path d="M363.658 169.693L358.585 172.056L363.658 174.38V176.792L356.422 173.327V170.842L363.658 167.369V169.693Z" fill="white"/>
<path d="M371.826 174.364L376.891 172.024L371.826 169.708V167.296L379.062 170.77V173.254L371.826 176.719V174.364Z" fill="white"/>
<path d="M367.349 164.965L369.584 164.909L367.887 179.381L365.66 179.292L367.349 164.965Z" fill="white"/>
<path d="M385.543 167.682C392.43 167.682 398.013 162.099 398.013 155.212C398.013 148.325 392.43 142.742 385.543 142.742C378.656 142.742 373.073 148.325 373.073 155.212C373.073 162.099 378.656 167.682 385.543 167.682Z" fill="white"/>
<path d="M397.981 155.212C397.897 154.194 397.738 153.184 397.506 152.189C397.211 151.029 396.742 149.921 396.116 148.901C394.643 146.445 392.359 144.58 389.658 143.628C386.958 142.675 384.01 142.695 381.322 143.683C379.044 144.515 377.063 146.003 375.63 147.96C374.086 150.057 373.253 152.593 373.253 155.196C373.253 157.8 374.086 160.335 375.63 162.432C377.063 164.389 379.044 165.877 381.322 166.71C384.011 167.685 386.955 167.698 389.652 166.747C392.35 165.795 394.634 163.938 396.116 161.492C396.742 160.472 397.211 159.363 397.506 158.203C397.738 157.208 397.897 156.198 397.981 155.18C397.99 155.247 397.99 155.314 397.981 155.381C397.981 155.542 397.981 155.735 397.981 155.976C397.982 156.299 397.955 156.622 397.9 156.941C397.857 157.38 397.779 157.816 397.667 158.243C397.396 159.43 396.941 160.567 396.317 161.612C394.831 164.146 392.506 166.081 389.743 167.079C386.981 168.078 383.956 168.078 381.193 167.079C380.041 166.671 378.957 166.091 377.977 165.359C376.943 164.614 376.036 163.707 375.292 162.673C373.684 160.506 372.815 157.879 372.815 155.18C372.815 152.481 373.684 149.854 375.292 147.687C375.672 147.168 376.089 146.676 376.538 146.216C376.99 145.779 377.471 145.373 377.977 145.002C378.955 144.266 380.039 143.686 381.193 143.281C383.323 142.517 385.619 142.336 387.842 142.758C389.612 143.093 391.29 143.804 392.761 144.843C394.233 145.882 395.464 147.225 396.373 148.78C396.997 149.826 397.453 150.962 397.724 152.149C397.836 152.576 397.914 153.012 397.957 153.452C398.011 153.77 398.038 154.093 398.037 154.416C398.037 154.658 398.037 154.851 398.037 155.011C398.027 155.08 398.008 155.148 397.981 155.212Z" fill="#263238"/>
<path d="M379.393 156.29L381.081 154.593L384.345 157.496L390.745 151.337L392.313 153.025L384.096 160.752L379.393 156.29Z" fill="url(#paint1_linear_1550_5693)"/>
<path d="M482.312 351.847H447.169C446.019 351.862 444.91 351.42 444.086 350.618C443.261 349.816 442.788 348.719 442.771 347.569V300.262C442.788 299.112 443.261 298.016 444.086 297.214C444.91 296.412 446.019 295.97 447.169 295.985H469.456L486.71 313.279V347.569C486.693 348.719 486.221 349.816 485.396 350.618C484.571 351.42 483.462 351.862 482.312 351.847Z" fill="#455A64"/>
<g opacity="0.2">
<path d="M469.457 295.984V309.299C469.462 309.829 469.572 310.352 469.781 310.84C469.989 311.327 470.292 311.768 470.671 312.138C471.051 312.508 471.5 312.799 471.992 312.995C472.485 313.191 473.011 313.287 473.541 313.278H486.711L469.457 295.984Z" fill="white"/>
</g>
<g opacity="0.2">
<path d="M469.634 310.465C469.634 310.465 469.465 313.681 473.244 314.758C473.381 314.798 473.525 314.823 473.678 314.855C475.391 315.152 486.711 317.106 486.711 316.857V313.279H473.557C473.557 313.279 470.261 313.166 469.634 310.465Z" fill="black"/>
</g>
<g opacity="0.3">
<path d="M442.772 334.239H486.711V348.647C486.711 349.5 486.372 350.318 485.769 350.921C485.165 351.524 484.347 351.863 483.495 351.863H445.972C445.119 351.863 444.301 351.524 443.698 350.921C443.095 350.318 442.756 349.5 442.756 348.647V334.239H442.772Z" fill="black"/>
</g>
<path d="M460.548 318.641L455.274 321.053L460.548 323.465V325.958L453.007 322.404V319.815L460.548 316.213V318.641Z" fill="white"/>
<path d="M469.038 323.505L474.312 321.093L469.038 318.681V316.189L476.58 319.791V322.404L469.038 326.014V323.505Z" fill="white"/>
<path d="M464.383 313.721L466.706 313.673L464.938 328.684L462.622 328.627L464.383 313.721Z" fill="white"/>
<path d="M494.823 42.8773C493.073 42.6311 491.29 42.8483 489.65 43.5072C488.011 44.1661 486.573 45.2435 485.48 46.632C484.253 46.3613 482.974 46.4509 481.797 46.8901C480.619 47.3292 479.594 48.0993 478.844 49.1075C478.094 50.1158 477.651 51.3192 477.569 52.5731C477.487 53.8271 477.769 55.078 478.381 56.1755C477.484 56.8141 476.744 57.6491 476.218 58.6169C475.693 59.5846 475.395 60.6597 475.347 61.76C475.3 62.8603 475.505 63.9569 475.945 64.9662C476.386 65.9755 477.051 66.8709 477.891 67.5842L502.646 49.2369C502.013 47.5844 500.958 46.1272 499.585 45.011C498.212 43.8949 496.57 43.1591 494.823 42.8773Z" fill="#263238"/>
<path d="M477.706 68.7578C478.529 62.4622 481.693 56.7074 486.568 52.6399C491.443 48.5723 497.671 46.4903 504.013 46.8086L505.315 46.873C519.361 48.3925 525.922 61.1761 524.008 75.1738L519.634 121.991L519.401 124.266L486.566 129.17L487.209 117.207C487.209 117.207 473.766 114.433 474.273 100.878C474.514 94.3331 476.114 80.8982 477.706 68.7578Z" fill="#AE7461"/>
<path d="M487.097 117.183C493.386 117.498 499.633 116.002 505.098 112.874C505.098 112.874 500.443 122.409 486.992 120.52L487.097 117.183Z" fill="#6F4439"/>
<path d="M481.314 81.2686C481.283 81.7723 481.449 82.2684 481.778 82.6513C482.107 83.0342 482.572 83.2737 483.075 83.3188C483.317 83.3503 483.564 83.3337 483.8 83.27C484.036 83.2062 484.257 83.0964 484.45 82.9471C484.643 82.7977 484.806 82.6116 484.927 82.3994C485.048 82.1873 485.127 81.9532 485.157 81.7108C485.184 81.4557 485.159 81.1979 485.085 80.9526C485.01 80.7073 484.887 80.4794 484.723 80.2823C484.559 80.0852 484.357 79.923 484.129 79.8052C483.901 79.6874 483.652 79.6163 483.397 79.5962C483.149 79.5638 482.898 79.5818 482.658 79.6491C482.417 79.7165 482.193 79.8317 481.999 79.988C481.804 80.1442 481.643 80.3382 481.525 80.5583C481.408 80.7784 481.336 81.02 481.314 81.2686Z" fill="#263238"/>
<path d="M480.285 75.5275C480.511 75.7929 482.03 74.7798 484.112 74.8924C486.195 75.0049 487.666 76.1145 487.907 75.8733C488.02 75.7687 487.803 75.3024 487.16 74.7798C486.289 74.1111 485.233 73.729 484.137 73.6864C483.056 73.6235 481.984 73.905 481.073 74.4904C480.414 74.9647 480.173 75.415 480.285 75.5275Z" fill="#263238"/>
<path d="M500.682 82.8121C500.651 83.315 500.818 83.8101 501.147 84.1918C501.476 84.5734 501.941 84.8111 502.443 84.8542C502.686 84.8858 502.932 84.8692 503.168 84.8054C503.404 84.7417 503.625 84.6319 503.818 84.4825C504.012 84.3332 504.174 84.1471 504.295 83.9349C504.416 83.7227 504.495 83.4887 504.526 83.2462C504.555 82.7417 504.386 82.2456 504.056 81.863C503.726 81.4803 503.26 81.2411 502.757 81.196C502.514 81.1646 502.268 81.1815 502.032 81.2459C501.796 81.3103 501.575 81.4208 501.382 81.5711C501.189 81.7214 501.028 81.9085 500.908 82.1215C500.788 82.3345 500.711 82.5692 500.682 82.8121Z" fill="#263238"/>
<path d="M500.724 76.935C500.949 77.2003 502.468 76.1873 504.551 76.2998C506.633 76.4124 508.104 77.5219 508.345 77.2807C508.458 77.1682 508.241 76.7018 507.598 76.1873C506.726 75.5203 505.671 75.1359 504.575 75.0858C503.494 75.0229 502.422 75.3044 501.511 75.8898C500.892 76.3802 500.611 76.8144 500.724 76.935Z" fill="#263238"/>
<path d="M492.402 91.9937C492.402 91.8731 491.139 91.5836 489.057 91.1897C488.526 91.1093 488.028 90.9806 487.955 90.6108C487.94 90.059 488.091 89.5154 488.39 89.051L490.158 85.0873C492.627 79.4593 494.444 74.772 494.219 74.6353C493.994 74.4986 491.807 79.0412 489.33 84.6934L487.626 88.7134C487.235 89.353 487.092 90.114 487.224 90.852C487.291 91.0367 487.398 91.2044 487.537 91.3433C487.675 91.4822 487.843 91.589 488.028 91.656C488.316 91.7529 488.616 91.8097 488.92 91.8248C491.083 92.0339 492.386 92.1062 492.402 91.9937Z" fill="#263238"/>
<path d="M498.481 93.7384C498.143 93.7384 498.022 95.9574 496.012 97.4689C494.002 98.9805 491.606 98.6026 491.574 98.9161C491.574 99.0608 492.089 99.3824 493.102 99.4628C494.424 99.5476 495.734 99.1633 496.8 98.3774C497.824 97.6208 498.516 96.4971 498.73 95.2418C498.834 94.3012 498.609 93.7303 498.481 93.7384Z" fill="#263238"/>
<path d="M500.587 68.7503C500.764 69.3292 502.863 69.1604 505.283 69.5543C507.703 69.9483 509.656 70.7362 510.002 70.2458C510.163 70.0046 509.841 69.4418 509.078 68.8709C508.051 68.1372 506.867 67.6552 505.62 67.4639C504.379 67.2501 503.105 67.3384 501.906 67.7212C500.989 68.0589 500.515 68.477 500.587 68.7503Z" fill="#263238"/>
<path d="M481.347 69.5461C481.693 70.0365 483.148 69.6184 484.876 69.6827C486.605 69.7471 488.044 70.1571 488.406 69.6827C488.567 69.4496 488.358 68.9672 487.739 68.4928C486.923 67.8841 485.935 67.5492 484.917 67.5361C483.902 67.5015 482.902 67.7824 482.054 68.3401C481.427 68.8305 481.202 69.3049 481.347 69.5461Z" fill="#263238"/>
<path d="M479.314 62.6154C479.314 62.6154 483.334 54.31 487.498 52.5332C492.564 50.3865 494.429 55.9261 499.213 54.8407C503.996 53.7553 508.861 51.689 513.476 55.5804C518.557 59.8335 515.944 62.5108 515.968 68.5328C516.08 92.9583 520.189 100.074 522.022 88.6328C522.223 87.3866 525.761 86.5585 526.541 81.2762C527.554 74.4181 528.237 66.0726 526.943 61.1039C525.849 56.9231 523.646 53.9563 519.586 50.6117C513.154 45.3294 504.061 44.7666 497.822 45.0882C491.583 45.4098 479.281 51.9704 479.314 62.6154Z" fill="#263238"/>
<path d="M521.177 88.247C521.219 87.7513 521.36 87.2691 521.593 86.8297C521.826 86.3902 522.146 86.0024 522.533 85.6899C522.92 85.3773 523.366 85.1464 523.845 85.011C524.323 84.8757 524.824 84.8387 525.318 84.9023C527.834 85.2722 530.576 86.84 530.142 92.0499C529.386 101.296 520.261 98.6347 520.269 98.3613C520.277 98.0879 520.823 92.1142 521.177 88.247Z" fill="#AE7461"/>
<path d="M522.6 95.0489C522.648 95.0489 522.753 95.1776 523.018 95.3223C523.386 95.5188 523.815 95.5649 524.216 95.4509C525.221 95.1695 526.17 93.6902 526.355 92.0259C526.439 91.2333 526.348 90.432 526.09 89.6782C526.027 89.3825 525.893 89.1065 525.7 88.874C525.506 88.6415 525.259 88.4594 524.98 88.3436C524.798 88.2755 524.598 88.2754 524.416 88.3434C524.235 88.4114 524.084 88.5428 523.991 88.7134C523.846 88.9626 523.895 89.1476 523.846 89.1636C523.798 89.1797 523.653 88.9868 523.766 88.6169C523.832 88.3891 523.978 88.1924 524.176 88.0622C524.446 87.8919 524.772 87.8342 525.085 87.9014C525.462 88.0099 525.805 88.2155 526.079 88.4976C526.352 88.7797 526.547 89.1285 526.644 89.5094C526.978 90.3402 527.099 91.2409 526.998 92.1304C526.781 93.9957 525.688 95.66 524.321 95.9333C524.067 95.9868 523.804 95.982 523.552 95.9193C523.3 95.8566 523.065 95.7377 522.866 95.5715C522.6 95.274 522.536 95.065 522.6 95.0489Z" fill="#6F4439"/>
<path d="M524.667 72.6012C523.393 73.532 521.906 74.129 520.342 74.3378C518.734 74.4182 517.029 73.4293 516.844 71.8696C516.756 71.1701 516.965 70.3741 516.539 69.8113C516.113 69.2485 515.003 69.2968 514.127 69.345C512.655 69.387 511.214 68.9229 510.043 68.0304C508.873 67.1378 508.044 65.8707 507.695 64.4406C506.891 65.518 505.178 65.3813 504.093 64.6014C503.007 63.8215 502.348 62.6075 501.52 61.5623C500.692 60.5171 499.502 59.5523 498.175 59.6729C497.436 59.7452 496.72 60.1472 495.98 60.0427C494.678 59.8658 494.115 58.298 493.978 56.9875C493.842 55.677 493.761 54.1494 492.692 53.3856C491.623 52.6218 490.344 52.9916 489.122 53.1122C487.9 53.2328 486.365 52.871 486.115 51.6731C486.081 51.3534 486.111 51.0301 486.204 50.7222C486.296 50.4143 486.449 50.128 486.654 49.8802C487.528 48.7018 488.777 47.8555 490.196 47.4801C491.614 47.1046 493.118 47.2223 494.461 47.8139C495.06 46.1914 496.114 44.7761 497.498 43.7379C498.881 42.6997 500.534 42.0827 502.26 41.9608C505.693 41.7678 508.893 40.7869 510.388 43.8904C512.591 42.0814 515.96 44.4532 518.709 45.225C520.082 45.6241 521.341 46.3419 522.383 47.32C523.425 48.298 524.222 49.5086 524.707 50.853C525.949 50.5798 527.245 50.6811 528.429 51.1439C529.614 51.6068 530.635 52.4105 531.363 53.4534C532.091 54.4963 532.493 55.7317 532.519 57.0033C532.545 58.2749 532.194 59.5256 531.509 60.5975C533.254 61.707 534.725 63.5723 534.637 65.6386C534.548 67.7048 532.458 69.6586 530.488 69.0234C530.807 69.8507 530.807 70.7669 530.489 71.5945C530.171 72.4221 529.557 73.1021 528.766 73.5026C527.975 73.9031 527.063 73.9956 526.208 73.7622C525.353 73.5288 524.614 72.9862 524.136 72.2394" fill="#263238"/>
<path d="M549.486 202.608L576.822 196.707C576.822 196.707 573.075 176.14 568.412 155.285C564.69 138.65 546.31 134.035 546.31 134.035L525.012 124.62L522.142 113.565C510.436 119.354 499.075 124.925 492.225 127.715L485.954 120.785L483.293 129.106L481.05 129.339C481.05 129.339 471.78 132.153 470.847 132.226C462.365 132.901 451.302 142.396 447.161 152.326C445.448 156.434 438.816 181.004 433.959 206.443C430.438 224.847 428.404 242.711 427.527 245.132L454.863 245.188L461.167 206.443L463.016 245.405L556.063 245.115L549.446 205.961L549.486 202.608Z" fill="url(#paint2_linear_1550_5693)"/>
<path d="M457.092 160.664C457.011 160.664 457.783 170.923 458.82 183.561C459.857 196.2 460.766 206.443 460.854 206.435C460.943 206.427 460.163 196.176 459.126 183.537C458.089 170.898 457.18 160.656 457.092 160.664Z" fill="#263238"/>
<path d="M525.013 124.965L497.347 138.859L492.193 127.603C492.193 127.603 501.455 123.583 509.881 119.128C518.476 114.546 521.821 113.573 521.821 113.573" fill="#E0E0E0"/>
<path d="M485.657 120.793L491.929 127.715L486.276 137.798L482.996 129.114" fill="#E0E0E0"/>
<path d="M552.26 137.886C552.308 137.943 551.391 138.69 550.097 139.985C546.72 143.474 544.379 147.833 543.335 152.575C542.941 154.384 542.845 155.534 542.772 155.534C542.735 155.267 542.735 154.997 542.772 154.73C542.812 153.991 542.901 153.255 543.038 152.527C543.923 147.664 546.32 143.204 549.888 139.784C550.418 139.267 550.982 138.786 551.576 138.345C551.778 138.156 552.009 138.001 552.26 137.886Z" fill="#263238"/>
<path d="M492.225 127.603C492.282 127.603 491.614 128.664 490.617 130.353C489.621 132.041 488.27 134.421 486.991 137.138C486.887 137.364 486.79 137.589 486.694 137.79L486.493 138.224L486.292 137.798C485.247 135.612 484.35 133.358 483.607 131.052C483.333 130.176 483.132 129.444 483.012 128.962C482.922 128.703 482.876 128.431 482.875 128.158C482.931 128.158 483.277 129.211 483.896 130.94C484.515 132.668 485.448 135.024 486.67 137.589H486.276L486.573 136.929C487.671 134.592 488.928 132.332 490.336 130.168C490.875 129.364 491.341 128.68 491.671 128.238C491.826 128.002 492.013 127.789 492.225 127.603Z" fill="#263238"/>
<path d="M522.601 126.228C522.468 126.27 522.339 126.324 522.216 126.389L521.146 126.895L517.247 128.801L504.383 135.193L497.324 138.746L497.517 138.819L493.754 130.73C493.296 129.766 492.95 128.994 492.652 128.431L492.355 127.82C492.323 127.748 492.283 127.681 492.234 127.619C492.249 127.698 492.276 127.774 492.315 127.844L492.572 128.463L493.601 130.803C494.51 132.821 495.78 135.627 497.259 138.931L497.324 139.06L497.452 138.996L504.52 135.466L517.311 128.994L521.17 127L522.216 126.445C522.353 126.39 522.483 126.317 522.601 126.228Z" fill="#263238"/>
<path d="M573.831 182.588C573.831 182.588 579.507 210.013 579.965 216.356C580.874 228.778 574.916 236.223 569.296 239.753C563.459 243.411 530.519 245.14 530.519 245.14L528.525 225.442L549.936 212.473L547.033 190.025L573.831 182.588Z" fill="url(#paint3_linear_1550_5693)"/>
<path d="M549.816 211.717C549.812 211.567 549.799 211.416 549.776 211.267C549.728 210.945 549.672 210.519 549.591 209.981C549.422 208.831 549.181 207.223 548.884 205.253C548.249 201.233 547.388 195.734 546.432 189.664C544.55 177.789 543.216 169.234 542.942 167.626C542.928 167.776 542.928 167.926 542.942 168.076C542.942 168.382 543.015 168.816 543.079 169.371C543.216 170.496 543.441 172.112 543.73 174.114C544.309 178.134 545.153 183.626 546.142 189.712C547.131 195.798 548.007 201.306 548.683 205.285C549.012 207.247 549.294 208.855 549.487 209.997C549.583 210.527 549.664 210.954 549.72 211.275C549.738 211.425 549.77 211.573 549.816 211.717Z" fill="#263238"/>
<path d="M571.065 238.611C571.004 238.648 570.948 238.691 570.896 238.74C570.751 238.88 570.589 239.001 570.414 239.101C569.746 239.515 569.03 239.847 568.283 240.09C565.517 240.996 562.68 241.668 559.801 242.1C550.101 243.622 540.322 244.577 530.511 244.963L530.672 245.091C530.471 243.154 530.27 241.071 530.053 239.029C529.571 234.253 529.104 229.646 528.67 225.401L528.598 225.538L549.349 213.004L555.339 209.353L556.947 208.365L557.349 208.107L557.485 208.011C557.485 208.011 557.437 208.011 557.341 208.083L556.915 208.324L555.307 209.265L549.269 212.851L528.469 225.289L528.389 225.337V225.425C528.815 229.679 529.281 234.269 529.763 239.093C529.973 241.168 530.182 243.218 530.383 245.156V245.3H530.519C540.339 244.91 550.126 243.922 559.825 242.342C562.711 241.886 565.551 241.181 568.315 240.235C569.064 239.978 569.777 239.626 570.438 239.19C570.61 239.079 570.769 238.95 570.912 238.804C570.969 238.745 571.021 238.68 571.065 238.611Z" fill="#263238"/>
<g opacity="0.3">
<path d="M564.409 204.345C564.208 204.094 563.922 203.925 563.605 203.871C561.997 203.509 560.389 204.088 558.926 204.763C554.498 206.882 550.621 209.997 547.598 213.864L547.967 213.655C552.984 210.689 557.423 207.682 562.801 206.25C563.286 206.16 563.745 205.962 564.144 205.672C564.336 205.516 564.467 205.298 564.515 205.056C564.564 204.814 564.526 204.562 564.409 204.345Z" fill="black"/>
</g>
<path d="M528.823 226.64L526.049 226.897C526.049 226.897 525.688 222.877 525.061 221.317C524.433 219.757 523.26 214.933 523.26 214.933C523.26 214.933 510.854 209.715 510.581 209.715C510.307 209.715 498.175 213.06 498.175 213.06C498.175 213.06 498.448 216.38 502.581 216.565C505.055 216.675 507.533 216.464 509.953 215.938L513.821 217.377L506.086 217.868L492.515 226.004C492.515 226.004 492.603 228.416 497.909 227.17C503.216 225.924 505.949 223.665 505.949 223.665L515.927 225.12L505.371 225.618L497.459 229.574C497.459 229.574 497.524 232.854 500.764 232.042C504.004 231.23 506.175 230.748 506.175 230.748L515.614 231.866L507.614 232.308C507.614 232.308 502.219 232.452 502.492 233.916C502.766 235.379 506.721 236.609 506.721 236.609L512.349 237.606C512.349 237.606 512.558 240.123 513.547 240.927C514.536 241.731 516.064 242.864 516.964 242.88C517.865 242.896 530.536 243.572 530.536 243.572L528.823 226.64Z" fill="#AE7461"/>
<path d="M521.909 238.925C522.081 238.839 522.243 238.734 522.392 238.611C522.799 238.291 523.174 237.93 523.509 237.534C524.627 236.205 525.334 234.579 525.543 232.855C525.657 231.908 525.613 230.949 525.415 230.016C525.23 229.164 524.932 228.408 524.844 227.805C524.757 227.307 524.798 226.795 524.964 226.318C525.036 226.145 525.117 225.976 525.206 225.812C525.054 225.934 524.937 226.095 524.868 226.278C524.652 226.765 524.58 227.303 524.659 227.83C524.723 228.497 525.005 229.237 525.173 230.073C525.352 230.978 525.387 231.906 525.278 232.822C525.071 234.499 524.409 236.086 523.364 237.413C522.913 237.948 522.427 238.453 521.909 238.925Z" fill="#6F4439"/>
<path d="M520.382 237.984C519.012 237.801 517.632 237.707 516.25 237.702C514.874 237.615 513.493 237.615 512.117 237.702C513.485 237.885 514.862 237.979 516.242 237.984C517.621 238.071 519.003 238.071 520.382 237.984Z" fill="#6F4439"/>
<path d="M519.769 232.01C519.044 231.889 518.307 231.856 517.575 231.914C516.842 231.88 516.108 231.934 515.388 232.075C516.109 232.202 516.844 232.237 517.575 232.179C518.31 232.213 519.047 232.156 519.769 232.01Z" fill="#6F4439"/>
<path d="M520.189 218.141C520.189 218.061 518.814 218.294 517.134 218.141C515.453 217.988 514.159 217.49 514.135 217.57C515.055 218.053 516.071 218.328 517.11 218.374C518.141 218.519 519.191 218.439 520.189 218.141Z" fill="#6F4439"/>
<path d="M403.609 186.785L415.492 245.123H518.645C519.192 245.123 519.716 244.907 520.103 244.521C520.49 244.135 520.709 243.612 520.711 243.065C520.711 242.517 520.493 241.992 520.106 241.604C519.718 241.217 519.193 240.999 518.645 240.999H497.886L486.863 186.745C486.761 186.24 486.489 185.786 486.093 185.458C485.696 185.13 485.199 184.949 484.684 184.944L405.852 184.116C405.518 184.111 405.188 184.181 404.884 184.32C404.581 184.459 404.312 184.663 404.097 184.919C403.882 185.174 403.727 185.474 403.643 185.797C403.558 186.12 403.547 186.457 403.609 186.785Z" fill="#E0E0E0"/>
<path d="M403.609 186.785C403.606 186.726 403.606 186.667 403.609 186.608C403.583 186.433 403.583 186.254 403.609 186.078C403.648 185.729 403.766 185.393 403.956 185.097C404.146 184.802 404.401 184.554 404.703 184.373C404.915 184.248 405.145 184.158 405.386 184.108C405.651 184.057 405.921 184.038 406.19 184.052H408.048L412.687 184.092L442.491 184.373L463.266 184.582L474.908 184.703L481.019 184.767H484.138C484.403 184.767 484.653 184.767 484.942 184.767C485.221 184.8 485.493 184.878 485.746 185C486.252 185.252 486.653 185.673 486.88 186.19C486.978 186.451 487.051 186.72 487.097 186.994L487.258 187.798C487.362 188.321 487.467 188.844 487.579 189.406C487.788 190.46 488.005 191.521 488.222 192.622C488.657 194.766 489.096 196.929 489.541 199.111C490.436 203.49 491.347 207.968 492.275 212.545C494.14 221.687 496.069 231.206 498.063 241.007L497.927 240.895H518.34C518.609 240.879 518.879 240.895 519.144 240.943C519.693 241.059 520.177 241.381 520.495 241.843C520.676 242.098 520.8 242.388 520.86 242.695C520.92 243.002 520.914 243.318 520.843 243.622C520.771 243.926 520.636 244.211 520.446 244.459C520.255 244.707 520.015 244.912 519.739 245.059C519.438 245.217 519.106 245.304 518.766 245.317H463.909H415.485H415.396V245.228C411.77 227.291 408.811 212.706 406.761 202.616L404.413 190.862C404.148 189.535 403.947 188.514 403.81 187.822C403.674 187.131 403.617 186.785 403.617 186.785C403.617 186.785 403.698 187.131 403.843 187.814C403.987 188.498 404.196 189.519 404.478 190.854C405.024 193.523 405.837 197.446 406.89 202.495C408.964 212.602 411.947 227.178 415.621 245.107L415.517 245.019H463.942H518.726C519.022 245.006 519.31 244.926 519.57 244.786C519.805 244.654 520.009 244.475 520.169 244.259C520.33 244.043 520.443 243.796 520.501 243.533C520.56 243.271 520.562 242.999 520.508 242.735C520.455 242.472 520.346 242.223 520.189 242.004C519.913 241.598 519.494 241.311 519.016 241.2C518.768 241.162 518.518 241.148 518.268 241.16H497.766V241.047C495.772 231.247 493.842 221.751 491.985 212.586L489.268 199.151C488.828 196.953 488.389 194.788 487.949 192.655C487.732 191.585 487.515 190.524 487.306 189.439C487.201 188.916 487.089 188.385 486.984 187.831L486.823 187.027C486.788 186.772 486.72 186.524 486.622 186.287C486.424 185.825 486.068 185.449 485.617 185.226C485.394 185.113 485.151 185.042 484.902 185.017C484.661 185.017 484.387 185.017 484.098 185.017L480.978 184.976L474.876 184.904L463.234 184.775L442.459 184.526L412.654 184.164L408.007 184.1H406.158C405.889 184.087 405.62 184.103 405.354 184.148C404.897 184.243 404.481 184.48 404.167 184.825C403.852 185.17 403.654 185.606 403.601 186.07C403.569 186.307 403.572 186.548 403.609 186.785Z" fill="#263238"/>
<path d="M451.149 213.486C451.149 214.16 450.949 214.819 450.574 215.38C450.2 215.941 449.667 216.378 449.045 216.636C448.422 216.894 447.736 216.961 447.075 216.83C446.414 216.698 445.806 216.373 445.33 215.897C444.853 215.42 444.528 214.812 444.397 214.151C444.265 213.49 444.333 212.804 444.591 212.182C444.849 211.559 445.285 211.026 445.846 210.652C446.407 210.277 447.066 210.077 447.74 210.077C448.188 210.076 448.632 210.164 449.046 210.334C449.46 210.505 449.836 210.756 450.153 211.073C450.47 211.39 450.721 211.766 450.892 212.18C451.063 212.594 451.15 213.038 451.149 213.486Z" fill="white"/>
<path d="M403.722 187.26H404.075H409.125L423.878 187.332L472.528 187.678L479.563 187.734H481.292C481.587 187.725 481.884 187.744 482.176 187.79C482.461 187.856 482.733 187.97 482.98 188.128C483.496 188.453 483.869 188.962 484.025 189.551C484.154 190.122 484.25 190.661 484.371 191.215C485.239 195.605 486.083 199.85 486.879 203.886C488.487 211.926 489.918 219.235 491.124 225.345C492.33 231.456 493.287 236.392 493.955 239.817L494.759 243.757C494.839 244.199 494.903 244.561 494.943 244.778C494.984 244.995 495 245.132 495 245.132C495 245.132 495 245.011 494.919 244.786C494.839 244.561 494.791 244.207 494.702 243.765C494.509 242.856 494.236 241.538 493.898 239.841C493.207 236.416 492.21 231.48 490.972 225.369C489.734 219.259 488.294 211.991 486.67 203.919C485.866 199.899 485.062 195.645 484.138 191.256C484.033 190.709 483.929 190.138 483.808 189.648C483.668 189.126 483.335 188.678 482.875 188.393C482.651 188.247 482.399 188.146 482.136 188.096C481.871 188.049 481.601 188.033 481.332 188.048H479.603L472.568 187.991L423.91 187.565L409.165 187.404L405.145 187.348H404.108L403.722 187.26Z" fill="#263238"/>
<path d="M75.4226 218.447C75.3002 223.996 76.3546 229.508 78.5165 234.62C80.6783 239.732 83.8985 244.329 87.9651 248.106C89.8303 242.698 91.7063 237.287 93.5931 231.874" fill="#263238"/>
<path d="M117.675 186.15C112.851 183.521 107.054 183.143 101.675 184.221C96.2964 185.298 91.2874 187.726 86.5438 190.476C83.8826 192.011 81.2294 193.692 79.3078 196.104C75.8104 200.494 72.3613 207.714 72.0236 213.317C71.7502 217.852 73.4869 229.196 75.4004 233.305C77.1612 237.084 85.3861 239.962 89.4463 240.895L126.704 197.567C126.029 195.161 124.884 192.913 123.334 190.953C121.784 188.993 119.861 187.361 117.675 186.15Z" fill="#263238"/>
<path d="M124.098 191.995L115.166 190.387C120.046 202.013 121.373 228.601 124.163 240.903C127.459 236.127 135.105 221.607 134.695 215.786C134.285 209.965 134.711 191.006 124.098 191.995Z" fill="#263238"/>
<path d="M81.7508 211.348C81.9144 208.083 83.1211 204.956 85.1935 202.428C87.2659 199.9 90.0947 198.103 93.2641 197.302L113.83 192.052C122.715 191.095 128.656 202.029 129.235 210.946C129.878 220.859 130.28 231.319 129.123 238.716C126.791 253.598 115.398 255.512 115.398 255.512C115.398 255.512 115.398 262.587 115.398 266.936L108.516 295.422L86.3336 264.79L81.7428 211.525C81.6946 211.275 81.7267 211.686 81.7508 211.348Z" fill="#FFBE9D"/>
<path d="M124.734 222.185C124.741 222.683 124.553 223.163 124.21 223.523C123.868 223.884 123.398 224.096 122.901 224.115C122.658 224.135 122.415 224.106 122.184 224.03C121.953 223.954 121.739 223.833 121.555 223.673C121.372 223.514 121.222 223.319 121.115 223.101C121.008 222.883 120.945 222.645 120.931 222.403C120.922 221.905 121.11 221.423 121.452 221.062C121.795 220.701 122.266 220.49 122.764 220.473C123.007 220.452 123.251 220.48 123.482 220.556C123.714 220.631 123.928 220.752 124.112 220.912C124.295 221.072 124.445 221.267 124.552 221.486C124.659 221.704 124.721 221.942 124.734 222.185Z" fill="#263238"/>
<path d="M126.969 216.774C126.735 217.024 125.288 215.97 123.238 215.97C121.188 215.97 119.676 217.008 119.459 216.774C119.347 216.662 119.588 216.212 120.263 215.737C121.148 215.115 122.205 214.786 123.286 214.797C124.353 214.79 125.395 215.122 126.261 215.745C126.872 216.212 127.089 216.662 126.969 216.774Z" fill="#263238"/>
<path d="M106.844 222.185C106.851 222.683 106.663 223.163 106.32 223.523C105.978 223.884 105.508 224.096 105.011 224.115C104.769 224.136 104.524 224.108 104.293 224.032C104.061 223.957 103.847 223.836 103.664 223.676C103.48 223.516 103.33 223.321 103.223 223.102C103.116 222.884 103.054 222.646 103.041 222.402C103.033 221.905 103.22 221.423 103.563 221.062C103.906 220.701 104.377 220.49 104.874 220.473C105.117 220.453 105.361 220.482 105.592 220.558C105.823 220.634 106.036 220.755 106.22 220.915C106.403 221.074 106.553 221.269 106.66 221.487C106.767 221.705 106.83 221.943 106.844 222.185Z" fill="#263238"/>
<path d="M107.48 216.775C107.239 217.024 105.791 215.971 103.741 215.971C101.691 215.971 100.187 217.008 99.9624 216.775C99.8578 216.662 100.091 216.212 100.766 215.737C101.65 215.114 102.708 214.785 103.789 214.797C104.856 214.79 105.898 215.122 106.764 215.745C107.375 216.212 107.592 216.662 107.48 216.775Z" fill="#263238"/>
<path d="M113.894 232.895C113.894 232.783 115.156 232.558 117.223 232.284C117.753 232.228 118.244 232.123 118.332 231.77C118.375 231.228 118.251 230.687 117.978 230.218C117.485 228.948 116.965 227.608 116.419 226.198C114.256 220.522 112.688 215.85 112.913 215.746C113.138 215.641 115.084 220.2 117.255 225.876C117.769 227.275 118.276 228.61 118.742 229.896C119.075 230.525 119.175 231.251 119.023 231.946C118.952 232.138 118.837 232.31 118.688 232.45C118.539 232.589 118.359 232.692 118.163 232.75C117.872 232.831 117.573 232.874 117.271 232.879C115.188 233 113.902 233.016 113.894 232.895Z" fill="#263238"/>
<path d="M95.6768 250.221C95.6768 250.221 100.501 260.44 115.399 259.008V255.511C108.462 255.606 101.635 253.775 95.6768 250.221Z" fill="#EB996E"/>
<path d="M106.836 209.362C106.635 209.917 104.585 209.659 102.173 209.957C99.7607 210.254 97.823 210.906 97.5014 210.407C97.3567 210.174 97.6944 209.643 98.4823 209.105C99.5191 208.424 100.705 208.005 101.94 207.882C103.172 207.731 104.423 207.874 105.59 208.301C106.474 208.654 106.932 209.097 106.836 209.362Z" fill="#263238"/>
<path d="M126.3 210.496C125.939 210.962 124.523 210.496 122.827 210.496C121.131 210.496 119.683 210.817 119.354 210.327C119.209 210.094 119.434 209.627 120.061 209.185C120.908 208.647 121.897 208.375 122.9 208.403C123.903 208.432 124.874 208.76 125.689 209.346C126.228 209.788 126.461 210.271 126.3 210.496Z" fill="#263238"/>
<path d="M125.159 197.366C124.25 195.131 121.798 193.78 119.386 193.659C116.953 193.659 114.571 194.354 112.52 195.661C103.676 200.783 99.1173 213.148 90.3617 218.447C88.207 219.749 85.4091 218.551 83.5759 220.28C81.7428 222.008 80.5609 224.766 81.574 227.065C80.3155 225.502 79.2917 223.763 78.5349 221.904C78.1597 220.976 77.9879 219.978 78.0309 218.978C78.0739 217.978 78.3307 216.999 78.7841 216.107C79.5399 214.796 80.8745 213.791 81.2444 212.328C81.566 211.034 81.0514 209.683 81.1077 208.348C81.2582 206.993 81.7265 205.693 82.4745 204.553C85.8995 198.491 90.619 193.008 96.6892 189.599C100.654 187.309 105.168 186.141 109.746 186.222C114.34 186.33 118.743 188.078 122.16 191.151C124.122 192.976 126.18 194.865 125.159 197.342" fill="#263238"/>
<path d="M83.793 222.121C83.6322 221.695 75.8736 218.905 75.753 227.146C75.6484 235.186 83.7367 233.578 83.793 233.345C83.8492 233.112 83.793 222.121 83.793 222.121Z" fill="#FFBE9D"/>
<path d="M81.3339 230.29C81.3339 230.29 81.1892 230.386 80.9561 230.491C80.6209 230.627 80.246 230.627 79.9109 230.491C79.1069 230.177 78.3672 228.827 78.3029 227.38C78.2875 226.692 78.4277 226.011 78.7129 225.386C78.7928 225.13 78.9354 224.898 79.1278 224.711C79.3202 224.524 79.5562 224.389 79.8144 224.316C79.9732 224.281 80.1394 224.3 80.2856 224.372C80.4318 224.444 80.5491 224.563 80.6184 224.71C80.7229 224.935 80.6666 225.096 80.7068 225.104C80.747 225.112 80.8837 224.976 80.8194 224.646C80.7787 224.447 80.6708 224.268 80.5139 224.139C80.4015 224.051 80.2721 223.987 80.1337 223.951C79.9953 223.915 79.851 223.908 79.7099 223.93C79.3801 223.99 79.0714 224.134 78.8137 224.348C78.5559 224.562 78.3578 224.839 78.2385 225.152C77.8939 225.844 77.7201 226.607 77.732 227.38C77.7722 228.988 78.5843 230.515 79.742 230.861C79.9564 230.926 80.1829 230.942 80.4043 230.908C80.6258 230.873 80.8364 230.788 81.0204 230.66C81.3179 230.483 81.3581 230.306 81.3339 230.29Z" fill="#EB996E"/>
<path d="M80.6016 218.005C80.7744 217.935 80.9389 217.846 81.092 217.74C81.3975 217.539 81.896 217.281 82.4347 216.879C84.0115 215.725 85.4614 214.408 86.7602 212.948C88.6494 210.758 90.413 208.463 92.0425 206.074C94.0164 203.151 96.2297 200.397 98.6594 197.841C99.9528 196.566 101.382 195.436 102.921 194.472C104.366 193.591 105.913 192.889 107.528 192.381C110.267 191.504 113.148 191.155 116.018 191.352C117.954 191.469 119.866 191.845 121.702 192.47C122.361 192.671 122.844 192.888 123.189 193.017C123.355 193.1 123.531 193.163 123.712 193.202C123.551 193.108 123.385 193.025 123.214 192.952C122.738 192.718 122.249 192.512 121.75 192.333C119.912 191.657 117.988 191.24 116.034 191.095C113.13 190.867 110.209 191.2 107.431 192.076C105.786 192.584 104.209 193.291 102.736 194.182C101.169 195.158 99.716 196.304 98.4021 197.599C95.9537 200.167 93.7342 202.943 91.7691 205.897C90.1568 208.285 88.4177 210.585 86.5592 212.787C85.2914 214.263 83.8801 215.61 82.3462 216.807C81.7995 217.225 81.3412 217.498 81.0518 217.716C80.7624 217.933 80.6016 217.997 80.6016 218.005Z" fill="#455A64"/>
<path d="M80.4003 231.705C79.9981 231.629 79.5822 231.71 79.2374 231.931C78.8927 232.151 78.645 232.495 78.5449 232.892C78.4448 233.289 78.4998 233.709 78.6987 234.067C78.8975 234.424 79.2253 234.693 79.6152 234.817C80.0051 234.942 80.4278 234.913 80.7971 234.736C81.1664 234.56 81.4545 234.249 81.6028 233.868C81.7511 233.486 81.7484 233.063 81.5952 232.683C81.4419 232.304 81.1498 231.997 80.7782 231.825" fill="white"/>
<path d="M80.7944 231.826C81.1402 232.102 81.3928 232.478 81.518 232.903C81.5733 233.122 81.5736 233.351 81.5189 233.57C81.4642 233.788 81.3561 233.99 81.2044 234.157C81.0233 234.367 80.7842 234.519 80.517 234.594C80.2498 234.669 79.9665 234.663 79.7027 234.577C79.4389 234.491 79.2064 234.329 79.0345 234.111C78.8625 233.893 78.7587 233.63 78.7361 233.353C78.7092 233.129 78.7385 232.901 78.8213 232.691C78.9041 232.48 79.0378 232.293 79.2105 232.147C79.557 231.876 79.9775 231.717 80.4165 231.689C80.4165 231.689 80.2959 231.609 80.0467 231.601C79.683 231.603 79.3302 231.725 79.0417 231.946C78.8201 232.112 78.6453 232.333 78.534 232.586C78.4227 232.84 78.3788 233.118 78.4065 233.394C78.4261 233.74 78.5502 234.072 78.7625 234.346C78.9748 234.62 79.2652 234.823 79.5954 234.928C79.9256 235.034 80.28 235.036 80.6118 234.936C80.9436 234.836 81.2372 234.637 81.4537 234.366C81.6004 234.191 81.7094 233.988 81.7739 233.769C81.8383 233.55 81.8567 233.32 81.828 233.094C81.7994 232.867 81.7241 232.649 81.6071 232.453C81.4901 232.257 81.3339 232.087 81.1481 231.954C80.9391 231.826 80.8024 231.802 80.7944 231.826Z" fill="#263238"/>
<path d="M82.6188 220.296C82.4902 222.483 82.3937 224.799 83.4228 226.728C84.452 228.658 86.9765 230.001 88.882 228.907C90.4337 228.023 90.9 226.037 91.1653 224.268C91.9211 219.163 92.2668 214.009 93.0708 208.912L82.6188 220.296Z" fill="#263238"/>
<path d="M123.189 193.555C123.189 193.603 122.482 193.418 121.195 193.378C119.382 193.349 117.582 193.68 115.897 194.351C114.731 194.797 113.618 195.368 112.576 196.055C111.383 196.86 110.24 197.735 109.151 198.676C106.633 200.812 104.379 203.241 102.438 205.912C101.425 207.344 100.524 208.815 99.5436 210.174C98.6197 211.501 97.54 212.713 96.3276 213.784C94.252 215.547 91.9805 217.066 89.5579 218.31C87.5077 219.395 85.7952 220.159 84.6133 220.722L83.2385 221.301C83.0828 221.38 82.9181 221.439 82.748 221.478C82.8892 221.373 83.0432 221.286 83.2063 221.221L84.541 220.561C85.6987 219.99 87.3871 219.186 89.365 218.077C91.74 216.8 93.9694 215.268 96.014 213.51C97.1907 212.451 98.2403 211.258 99.1416 209.957C100.098 208.614 100.999 207.143 102.028 205.695C103.984 202.995 106.269 200.548 108.83 198.411C109.941 197.467 111.109 196.591 112.327 195.79C113.398 195.104 114.542 194.538 115.736 194.102C117.464 193.444 119.309 193.153 121.155 193.249C121.655 193.285 122.152 193.355 122.643 193.458C122.828 193.466 123.012 193.499 123.189 193.555Z" fill="#455A64"/>
<path d="M82.394 215.327C82.1783 215.514 81.9407 215.673 81.6865 215.802L79.6604 216.992L78.977 217.386C78.709 217.544 78.4101 217.642 78.1006 217.675C77.9115 217.697 77.7206 217.652 77.562 217.546C77.4737 217.487 77.4002 217.409 77.3473 217.317C77.2943 217.225 77.2632 217.122 77.2564 217.016C77.2772 216.648 77.4089 216.294 77.6343 216.003L79.99 212.256L80.3116 212.545C78.7387 213.697 76.8145 214.265 74.8686 214.153C74.6195 214.149 74.3727 214.105 74.1369 214.025C74.0012 213.985 73.8757 213.916 73.7689 213.823C73.6621 213.73 73.5765 213.615 73.5178 213.486C73.473 213.351 73.4621 213.207 73.4859 213.067C73.5097 212.927 73.5676 212.795 73.6545 212.682C73.7907 212.501 73.9442 212.334 74.1128 212.184C75.1684 211.161 76.0848 210.004 76.8384 208.743C77.5035 207.544 78.0838 206.3 78.575 205.02C78.5394 205.389 78.4528 205.752 78.3177 206.097C78.0116 207.061 77.6075 207.99 77.1117 208.871C76.381 210.185 75.4689 211.39 74.4022 212.449C74.1048 212.73 73.8073 213.06 73.9198 213.309C74.0324 213.558 74.4746 213.687 74.8927 213.687C75.8081 213.736 76.725 213.624 77.6022 213.357C78.4688 213.095 79.2844 212.687 80.0142 212.151L80.9709 211.452L80.3358 212.449C79.4755 213.784 78.6634 215.038 77.9238 216.188C77.7364 216.418 77.6167 216.697 77.578 216.992C77.5837 217.046 77.6006 217.098 77.6277 217.146C77.6548 217.193 77.6914 217.234 77.7352 217.267C77.7791 217.299 77.8292 217.322 77.8824 217.335C77.9356 217.347 77.9908 217.348 78.0444 217.337C78.5572 217.231 79.0454 217.029 79.4835 216.742L81.5739 215.665C81.8322 215.519 82.1077 215.405 82.394 215.327Z" fill="#455A64"/>
<path d="M106.129 236.681C106.277 236.071 106.635 235.533 107.141 235.161C107.647 234.789 108.268 234.607 108.894 234.647C109.352 234.704 109.788 234.873 110.164 235.14C110.54 235.406 110.844 235.762 111.049 236.175C111.247 236.592 111.36 237.044 111.381 237.505C111.402 237.966 111.33 238.427 111.17 238.86L111.129 239.045C110.703 239.506 110.143 239.824 109.529 239.955C108.914 240.086 108.274 240.024 107.696 239.777C107.129 239.507 106.668 239.057 106.384 238.496C106.101 237.936 106.011 237.298 106.129 236.681Z" fill="#EB996E"/>
<path d="M112.56 239.094C112.56 238.78 110.486 238.877 108.926 237.18C107.366 235.484 107.479 233.249 107.189 233.249C107.061 233.249 106.811 233.763 106.836 234.696C106.874 235.914 107.344 237.08 108.162 237.984C108.948 238.848 110.036 239.375 111.201 239.455C112.094 239.488 112.56 239.23 112.56 239.094Z" fill="#263238"/>
<path d="M72.2795 262.578L86.5746 260.504L115.165 264.733L123.189 267.571L121.766 285.122L94.2769 290.18L75.7287 284.688L68.7178 274.365L72.2795 262.578Z" fill="#FFBE9D"/>
<path d="M63.2749 264.259L75.2384 261.437C75.2384 261.437 83.6885 287.583 104.56 286.457C121.573 285.541 121.766 266.55 121.766 266.55L134.027 270.474C134.027 270.474 138.714 301.918 133.528 324.197C132.314 329.399 130.69 336.418 130.69 336.418L132.347 368.964L41.6875 369.109L63.2749 264.259Z" fill="url(#paint4_linear_1550_5693)"/>
<g opacity="0.3">
<path d="M98.8122 362.652C94.4063 362.54 90.33 362.91 85.9482 362.805C80.6579 362.677 75.3274 362.548 70.1014 363.408C66.1778 364.051 62.3669 365.249 58.4514 365.868C53.1048 366.672 47.3964 366.407 42.6367 363.834L43.4166 359.388L61.4825 355.039L98.8122 362.652Z" fill="black"/>
</g>
<path d="M144.262 277.806C140.113 272.443 133.223 270.216 133.223 270.216L128.584 310.601L137.372 369.398L166.139 369.261C166.139 369.261 150.268 285.565 144.262 277.806Z" fill="url(#paint5_linear_1550_5693)"/>
<path d="M64.674 263.961C64.674 263.961 45.3056 265.513 38.3591 297.239C35.2154 311.59 31.2437 328.41 30.102 339.714C29.2658 347.907 33.7682 360.747 41.8967 361.8L52.1718 363.183C54.1868 363.475 56.2381 363.398 58.2259 362.958C64.7222 361.471 65.3815 357.016 66.5232 352.281L69.5221 342.818C71.1301 333.813 62.7766 332.133 58.1375 332.229L61.5947 291.129L64.674 263.961Z" fill="url(#paint6_linear_1550_5693)"/>
<path d="M135.62 292.656C135.661 292.801 135.691 292.949 135.708 293.098L135.901 294.377C135.941 294.658 135.99 294.964 136.038 295.301C136.086 295.639 136.11 296.009 136.15 296.411C136.231 297.215 136.327 298.107 136.367 299.112C136.507 301.46 136.523 303.814 136.416 306.163C136.274 309.044 135.987 311.915 135.555 314.766C135.113 317.797 134.55 320.668 133.988 323.265C133.425 325.861 132.854 328.177 132.38 330.131C131.905 332.084 131.479 333.644 131.182 334.73L130.836 335.976C130.803 336.122 130.757 336.264 130.699 336.402C130.708 336.252 130.735 336.103 130.78 335.96L131.069 334.697C131.334 333.572 131.712 332.004 132.171 330.074C132.629 328.145 133.176 325.797 133.714 323.2C134.253 320.603 134.816 317.749 135.258 314.718C135.7 311.687 136.014 308.801 136.134 306.155C136.255 303.51 136.271 301.122 136.134 299.12C136.134 298.115 136.022 297.215 135.957 296.419C135.957 296.025 135.901 295.655 135.877 295.317C135.853 294.98 135.797 294.674 135.764 294.393C135.708 293.854 135.668 293.428 135.628 293.106C135.614 292.957 135.612 292.806 135.62 292.656Z" fill="#263238"/>
<path d="M42.9502 343.348C42.9647 343.075 43.0161 342.804 43.103 342.544C43.2916 341.83 43.5418 341.133 43.8507 340.462C44.8643 338.215 46.4456 336.27 48.439 334.819C50.4324 333.369 52.7691 332.462 55.2192 332.189C55.9528 332.102 56.6925 332.078 57.4302 332.117C57.701 332.118 57.9708 332.15 58.2342 332.213C57.2346 332.225 56.2363 332.289 55.2434 332.406C52.8501 332.736 50.5755 333.652 48.6216 335.073C46.6677 336.494 45.0952 338.375 44.0436 340.55C43.6266 341.462 43.2615 342.396 42.9502 343.348Z" fill="#263238"/>
<path d="M47.4365 327.542C47.4365 327.542 47.6054 327.501 47.9109 327.493C48.335 327.489 48.7591 327.508 49.1812 327.55C52.0113 327.851 54.6929 328.968 56.8996 330.766C57.235 331.031 57.552 331.318 57.8483 331.626C58.0574 331.843 58.1619 331.964 58.1458 331.98C58.1297 331.996 57.6232 331.57 56.7629 330.934C54.5193 329.29 51.9088 328.216 49.1571 327.807C48.0878 327.614 47.4365 327.59 47.4365 327.542Z" fill="#263238"/>
<path d="M67.472 286.457C67.4257 286.176 67.4096 285.89 67.4238 285.605C67.4238 285.058 67.4238 284.271 67.3192 283.306C67.1415 280.777 66.7106 278.272 66.0328 275.829C65.3433 273.39 64.4086 271.028 63.243 268.777C62.7927 267.917 62.439 267.226 62.1334 266.759C61.98 266.521 61.8456 266.271 61.7314 266.012C61.9229 266.222 62.0926 266.451 62.238 266.695C62.5435 267.145 62.9616 267.821 63.4359 268.673C64.668 270.913 65.6391 273.287 66.3303 275.748C67.0134 278.209 67.4179 280.739 67.5363 283.29C67.5363 284.271 67.5363 285.058 67.5363 285.605C67.5447 285.891 67.5232 286.176 67.472 286.457Z" fill="#263238"/>
<path d="M104.561 315.256C104.561 315.256 104.561 315.377 104.472 315.594C104.381 315.91 104.274 316.222 104.151 316.527C103.72 317.663 103.181 318.757 102.543 319.791C100.924 322.47 98.7194 324.748 96.0947 326.454C93.4699 328.159 90.4931 329.249 87.3873 329.64C85.5937 329.87 83.7781 329.87 81.9845 329.64C80.7772 329.484 79.5874 329.215 78.4308 328.836C78.1143 328.74 77.803 328.627 77.4981 328.498C77.3885 328.465 77.2833 328.42 77.1846 328.362C77.1846 328.362 77.6428 328.49 78.4629 328.723C79.6245 329.045 80.8103 329.271 82.0086 329.399C85.9773 329.864 89.9966 329.193 93.5989 327.464C97.2012 325.734 100.239 323.018 102.358 319.63C103.005 318.605 103.569 317.529 104.046 316.414C104.376 315.699 104.521 315.248 104.561 315.256Z" fill="#263238"/>
<path d="M63.7493 359.895C63.7493 359.895 63.4116 360.305 62.688 360.9C61.6337 361.699 60.4271 362.273 59.1424 362.588C57.238 363.062 55.2713 363.235 53.3134 363.103C51.1024 362.942 48.6582 362.685 46.1256 362.299C43.7395 361.991 41.3889 361.452 39.1067 360.691C38.1552 360.272 37.2844 359.69 36.5339 358.97C35.8647 358.348 35.2588 357.661 34.7249 356.92C33.9513 355.845 33.2886 354.695 32.7471 353.487C32.5622 353.053 32.4174 352.683 32.337 352.49C32.2845 352.374 32.2254 352.261 32.1602 352.152C32.1684 352.28 32.1984 352.405 32.2486 352.522C32.321 352.763 32.4496 353.109 32.6184 353.551C33.1339 354.788 33.7894 355.961 34.5722 357.049C35.1045 357.809 35.7104 358.514 36.3812 359.155C37.1476 359.904 38.0404 360.511 39.0183 360.948C41.308 361.742 43.6736 362.297 46.0774 362.604C48.6261 362.982 51.0622 363.231 53.3134 363.408C55.302 363.536 57.2981 363.338 59.2228 362.821C60.5223 362.476 61.7318 361.853 62.7684 360.996C63.0453 360.753 63.2984 360.484 63.5242 360.192C63.6089 360.101 63.6844 360.001 63.7493 359.895Z" fill="#263238"/>
<path d="M66.9415 296.572C66.8611 296.572 64.8189 304.475 62.3828 314.26C59.9467 324.044 58.0412 332.052 58.1216 332.052C58.202 332.052 60.2522 324.149 62.6883 314.364C65.1244 304.58 67.0299 296.588 66.9415 296.572Z" fill="#263238"/>
<path d="M69.4097 341.306C69.4729 341.095 69.5054 340.876 69.5062 340.655C69.5723 340.057 69.5884 339.455 69.5545 338.854C69.4893 337.948 69.1871 337.074 68.6781 336.321C68.3944 335.869 68.0629 335.449 67.6892 335.067C67.2729 334.674 66.8114 334.331 66.3143 334.046C64.5584 333.118 62.6538 332.503 60.6863 332.229C60.0954 332.137 59.4993 332.084 58.9015 332.068C58.6832 332.032 58.4604 332.032 58.2422 332.068C58.2422 332.116 59.1748 332.157 60.6542 332.414C62.5777 332.752 64.4379 333.384 66.1696 334.287C66.6414 334.561 67.0787 334.89 67.4721 335.268C67.8325 335.634 68.1582 336.032 68.4449 336.458C68.938 337.175 69.2422 338.004 69.3293 338.87C69.3839 339.461 69.4027 340.054 69.3856 340.647C69.3673 340.867 69.3754 341.088 69.4097 341.306Z" fill="#263238"/>
<g opacity="0.3">
<path d="M134.726 319.308C139.67 310.939 139.775 300.069 135.465 291.361C136.846 300.644 136.546 310.099 134.581 319.276" fill="black"/>
</g>
<path d="M108.54 340.213L108.363 340.301L108.54 340.213Z" fill="#FFBE9D"/>
<path d="M126.847 356.872C125.287 353.929 113.139 346.179 113.139 346.179L116.427 345.415L120.061 346.951C120.335 348.182 120.866 349.341 121.621 350.351C122.956 352.257 125.223 350.287 125.223 350.287L123.687 342.931L116.508 338.605C116.508 338.605 109.746 339.642 108.653 340.165L105.774 342.802C104.504 343.791 100.854 347.698 99.8567 347.819C98.8598 347.939 67.5359 340.896 67.5359 340.896C63.2345 344.297 60.9753 351.067 60.2999 355.947C60.2999 355.947 59.4959 358.359 60.3643 359.646L98.8598 362.669L107.02 364.92C109.206 365.825 111.445 366.593 113.726 367.219C116.435 367.79 118.268 366.914 118.341 365.418C118.413 363.923 116.307 363.754 116.307 363.754C114.507 363.103 112.753 362.332 111.056 361.447C109.823 360.615 108.808 359.498 108.098 358.19L111.008 358.544C111.008 358.544 117.191 362.83 119.515 364.092C121.838 365.354 122.296 363.039 122.489 362.339C122.682 361.64 115.543 354.653 115.543 354.653C115.543 354.653 122.321 358.834 123.543 359.895C124.765 360.956 126.574 361.262 126.96 360.554C127.346 359.847 128.399 359.815 126.847 356.872Z" fill="#FFBE9D"/>
<path d="M93.3851 357.547C93.3599 357.39 93.3599 357.23 93.3851 357.072C93.3628 356.888 93.3628 356.702 93.3851 356.518C93.4116 356.268 93.4573 356.021 93.5218 355.778C93.9075 354.39 94.5784 353.097 95.4916 351.983C96.3765 350.861 97.3703 349.83 98.4584 348.904C98.8852 348.494 99.3541 348.13 99.8573 347.818C99.461 348.253 99.0395 348.663 98.5951 349.049C97.5565 350.01 96.5942 351.05 95.7167 352.16C94.8294 353.251 94.1507 354.497 93.7148 355.834C93.4173 356.871 93.4414 357.555 93.3851 357.547Z" fill="#EB996E"/>
<path d="M112.858 345.945C112.163 346.095 111.44 346.03 110.783 345.76C110.098 345.581 109.483 345.197 109.022 344.659C109.071 344.586 109.826 345.141 110.872 345.463C111.917 345.784 112.858 345.857 112.858 345.945Z" fill="#EB996E"/>
<path d="M114.876 354.001C113.815 353.715 112.78 353.341 111.781 352.884C110.749 352.509 109.751 352.046 108.798 351.501C109.86 351.783 110.896 352.157 111.893 352.619C112.926 352.992 113.924 353.455 114.876 354.001Z" fill="#EB996E"/>
<path d="M108.364 358.11C107.808 357.99 107.268 357.803 106.756 357.555C106.214 357.393 105.694 357.17 105.204 356.888C105.775 356.9 106.337 357.035 106.852 357.282C107.409 357.449 107.924 357.731 108.364 358.11Z" fill="#EB996E"/>
<path d="M113.88 354.564C113.88 354.644 113.204 354.91 112.682 355.617C112.391 356.063 112.158 356.544 111.99 357.048C111.99 357.048 111.918 356.855 111.99 356.55C112.061 356.147 112.226 355.767 112.473 355.44C112.724 355.117 113.045 354.856 113.413 354.677C113.671 354.516 113.863 354.5 113.88 354.564Z" fill="#EB996E"/>
<path d="M116.733 350.037C116.733 350.118 116.235 350.399 115.889 351.018C115.711 351.411 115.563 351.817 115.447 352.232C115.362 352.008 115.336 351.766 115.37 351.528C115.403 351.291 115.496 351.066 115.64 350.873C116.05 350.166 116.717 349.965 116.733 350.037Z" fill="#EB996E"/>
<path d="M115.776 342.014C115.776 342.014 115.639 341.893 115.551 341.628C115.456 341.278 115.456 340.909 115.551 340.559C115.634 340.204 115.812 339.879 116.066 339.618C116.259 339.417 116.419 339.353 116.435 339.377C116.147 339.745 115.941 340.172 115.832 340.627C115.722 341.081 115.711 341.555 115.8 342.014H115.776Z" fill="#EB996E"/>
<path d="M59.9708 360.731C60.0183 360.438 60.0371 360.142 60.0271 359.846C60.0271 359.565 60.0271 359.211 60.0271 358.809C60.0271 358.407 60.0271 357.949 60.1236 357.442C60.3663 354.812 60.9445 352.224 61.8441 349.74C62.3432 348.376 62.9536 347.056 63.6692 345.792C64.023 345.222 64.3285 344.667 64.6822 344.184L65.1807 343.485L65.6712 342.858C66.9495 341.29 67.9304 340.446 67.8902 340.446C67.6423 340.608 67.4108 340.794 67.1988 341.001C66.9156 341.221 66.647 341.46 66.3948 341.716C66.1134 342.014 65.7837 342.335 65.4621 342.737L64.9476 343.356C64.7787 343.573 64.6099 343.815 64.433 344.056C64.0632 344.53 63.7416 345.093 63.3798 345.664C62.6442 346.948 62.0201 348.293 61.5145 349.684C60.6122 352.194 60.0708 354.82 59.9065 357.483C59.8582 357.997 59.9065 358.455 59.8502 358.865C59.7939 359.275 59.8502 359.613 59.8502 359.903C59.8712 360.181 59.9115 360.458 59.9708 360.731Z" fill="#263238"/>
<g opacity="0.3">
<path d="M46.7618 333.218C50.3767 331.732 54.3553 331.371 58.1786 332.181C54.8955 332.031 51.6477 332.911 48.8888 334.697C46.1299 336.483 43.9977 339.086 42.7901 342.142C42.5087 342.882 41.9861 343.75 41.1821 343.638C40.3781 343.525 40.2012 342.617 40.2012 341.877C40.2012 338.034 43.2162 334.705 46.7618 333.218Z" fill="black"/>
</g>
<path d="M135.875 289.947C136.055 289.92 136.229 289.863 136.39 289.778C136.712 289.649 137.194 289.44 137.733 289.167C139.181 288.434 140.566 287.581 141.873 286.618C143.181 285.651 144.405 284.575 145.531 283.402C145.958 282.944 146.335 282.598 146.512 282.301C146.638 282.169 146.744 282.02 146.826 281.858C146.318 282.294 145.832 282.756 145.371 283.241C144.213 284.363 142.983 285.408 141.688 286.369C140.407 287.322 139.064 288.189 137.668 288.966C136.519 289.569 135.827 289.906 135.875 289.947Z" fill="white"/>
<path d="M67.1914 292.19L67.3442 292.294L67.8024 292.568C68.1964 292.809 68.7994 293.138 69.5873 293.556C71.8214 294.699 74.1381 295.672 76.5178 296.467C80.0529 297.644 83.6811 298.521 87.3638 299.088C91.869 299.759 96.4132 300.135 100.967 300.214C105.791 300.334 110.431 300.214 114.635 300.141C118.355 300.102 122.068 299.833 125.755 299.337C128.242 298.985 130.693 298.415 133.079 297.633C133.923 297.351 134.567 297.11 134.993 296.925L135.491 296.724L135.652 296.644C135.591 296.649 135.531 296.665 135.475 296.692L134.977 296.869C134.534 297.038 133.883 297.255 133.039 297.52C130.648 298.252 128.201 298.79 125.723 299.128C122.043 299.61 118.338 299.878 114.627 299.932C110.439 300.013 105.824 300.093 100.959 299.98C96.417 299.897 91.8842 299.53 87.3879 298.879C83.7204 298.33 80.1038 297.483 76.5741 296.346C74.1995 295.547 71.8837 294.582 69.6436 293.46C68.8396 293.066 68.2366 292.752 67.8266 292.527L67.3602 292.278C67.2557 292.214 67.1994 292.182 67.1914 292.19Z" fill="white"/>
<path d="M135.643 313.367C135.893 313.335 136.141 313.281 136.382 313.206L138.36 312.667C140.024 312.193 142.324 311.526 144.856 310.77C147.389 310.014 149.68 309.307 151.329 308.784L153.274 308.149C153.52 308.085 153.757 307.993 153.982 307.875C153.731 307.906 153.483 307.96 153.242 308.036L151.264 308.575C149.592 309.049 147.301 309.717 144.768 310.472C142.235 311.228 139.944 311.936 138.296 312.458L136.342 313.093C136.098 313.154 135.863 313.246 135.643 313.367Z" fill="white"/>
<path d="M133.914 346.259C133.914 346.339 139.872 344.651 147.172 342.448C154.472 340.245 160.374 338.428 160.35 338.347C160.326 338.267 154.384 339.955 147.084 342.158C139.783 344.361 133.882 346.178 133.914 346.259Z" fill="white"/>
<path d="M47.9502 275.137C48.1481 275.332 48.3665 275.504 48.6014 275.652C49.0356 275.973 49.6788 276.416 50.4828 276.938C52.583 278.284 54.7602 279.505 57.0032 280.596C59.245 281.702 61.5513 282.671 63.9096 283.499C64.8181 283.82 65.5578 284.054 66.0724 284.198C66.3339 284.291 66.6029 284.361 66.8764 284.407C66.6201 284.273 66.3507 284.165 66.0724 284.086L63.9498 283.282C62.1569 282.598 59.7208 281.585 57.0997 280.299C54.4787 279.012 52.1873 277.702 50.5552 276.705L48.6336 275.507C48.4148 275.368 48.1864 275.244 47.9502 275.137Z" fill="white"/>
<path d="M36.1006 308.929C36.4084 309.109 36.7312 309.263 37.0654 309.387C37.6925 309.669 38.6171 310.039 39.7749 310.465C45.8065 312.666 52.1413 313.924 58.5563 314.195C59.7864 314.252 60.7834 314.26 61.4668 314.244C61.8242 314.254 62.1818 314.235 62.5361 314.187C62.1818 314.139 61.8243 314.117 61.4668 314.123C60.7834 314.123 59.7945 314.059 58.5724 313.978C52.1918 313.584 45.8934 312.332 39.8472 310.256C38.6895 309.862 37.7488 309.524 37.1136 309.275C36.7844 309.136 36.4459 309.021 36.1006 308.929Z" fill="white"/>
<path d="M53.2242 362.982C53.2403 362.873 53.2403 362.762 53.2242 362.652C53.2242 362.403 53.1358 362.098 53.0715 361.72C53.0071 361.342 52.9187 360.811 52.8624 360.232C52.8061 359.653 52.7016 358.994 52.6775 358.263C52.6775 357.893 52.6534 357.507 52.6051 357.105C52.6051 356.711 52.6051 356.301 52.6051 355.859C52.6051 354.998 52.6453 354.074 52.6855 353.101C52.9688 348.899 53.9525 344.774 55.596 340.896C55.998 340.012 56.4 339.16 56.7859 338.404C56.9869 338.026 57.1638 337.648 57.3729 337.302L57.9598 336.305C58.3135 335.67 58.7075 335.131 59.0291 334.641C59.3507 334.151 59.6401 333.741 59.8894 333.411L60.4441 332.647C60.5172 332.561 60.5793 332.467 60.6291 332.366C60.5426 332.437 60.4644 332.518 60.3959 332.607L59.7929 333.339C59.5276 333.66 59.214 334.054 58.8844 334.537C58.5547 335.019 58.1447 335.558 57.7668 336.193L57.1638 337.182C56.9548 337.527 56.7699 337.905 56.5608 338.283C56.1267 339.039 55.7568 339.891 55.3387 340.784C54.4961 342.731 53.8157 344.746 53.3046 346.806C52.8208 348.872 52.5062 350.975 52.3639 353.093C52.3639 354.074 52.2675 354.998 52.3077 355.867C52.3077 356.301 52.3077 356.727 52.3077 357.129C52.3077 357.531 52.3639 357.933 52.3961 358.287C52.3961 359.026 52.5489 359.686 52.6293 360.265C52.6904 360.762 52.779 361.256 52.8946 361.744C52.975 362.122 53.0393 362.427 53.0956 362.677C53.1253 362.783 53.1686 362.886 53.2242 362.982Z" fill="white"/>
<path d="M30.2464 344.755C30.2866 344.755 30.2947 344.273 30.4313 343.413C30.6367 342.204 31.0301 341.035 31.5971 339.948C32.4466 338.34 33.586 336.904 34.9579 335.71C36.6372 334.248 38.5763 333.113 40.6743 332.366C42.7912 331.671 44.9994 331.295 47.2269 331.248C49.0491 331.197 50.8726 331.264 52.6861 331.449C54.2378 331.602 55.492 331.755 56.3603 331.851L57.3653 331.964H57.7111C57.6036 331.919 57.4896 331.892 57.3734 331.883L56.3764 331.715C55.5161 331.578 54.2619 331.393 52.7102 331.216C50.8855 330.999 49.048 330.908 47.2108 330.943C44.9536 330.973 42.7142 331.347 40.5698 332.052C38.4343 332.809 36.4657 333.972 34.7729 335.477C33.38 336.696 32.2361 338.173 31.4042 339.827C30.8427 340.939 30.473 342.138 30.3107 343.373C30.2674 343.706 30.2459 344.042 30.2464 344.378C30.2343 344.503 30.2343 344.63 30.2464 344.755Z" fill="white"/>
<path d="M94.2363 327.542L94.574 327.598L95.5388 327.694L99.1086 327.992C102.124 328.225 106.288 328.514 110.895 328.748C115.502 328.981 119.675 329.141 122.706 329.174C124.217 329.174 125.44 329.174 126.284 329.174H127.257C127.368 329.193 127.483 329.193 127.594 329.174H127.257H126.284L122.706 329.085C119.691 328.997 115.518 328.82 110.911 328.579L99.1246 327.911L95.5468 327.71L94.574 327.67C94.4701 327.607 94.3557 327.564 94.2363 327.542Z" fill="white"/>
<g opacity="0.3">
<path d="M90.7801 328.772C87.0335 329.873 81.8396 330.147 78.1895 328.772C81.0437 332.792 86.5591 334.295 91.3429 332.977C96.1267 331.658 100.541 326.866 100.91 321.914C98.311 325.178 94.7766 327.571 90.7801 328.772Z" fill="black"/>
</g>
<path d="M60.3965 324.856L60.694 324.937L61.5623 325.122C62.31 325.274 63.4034 325.483 64.7783 325.717C67.4878 326.191 71.2103 326.778 75.3991 327.284C79.588 327.791 83.3426 328.129 86.0843 328.322C87.4591 328.418 88.5686 328.482 89.3003 328.515H90.1847C90.2886 328.531 90.3944 328.531 90.4982 328.515L90.1927 328.466L89.3083 328.378L86.0923 328.088C83.3587 327.839 79.588 327.469 75.4313 326.963C71.2746 326.456 67.5199 325.902 64.8104 325.483L61.5944 324.985L60.7181 324.856C60.501 324.816 60.3965 324.816 60.3965 324.856Z" fill="white"/>
<g opacity="0.3">
<path d="M66.6283 298.373C67.569 309.138 64.6344 319.823 61.732 330.235C61.6 330.885 61.3254 331.497 60.928 332.028C60.7244 332.288 60.4428 332.476 60.1244 332.565C59.806 332.653 59.4677 332.637 59.1592 332.518C58.2506 332.06 58.3552 330.742 58.6285 329.761L66.6685 298.815" fill="black"/>
</g>
<path d="M217.217 309.098L205.02 369.108H98.8919C98.3311 369.108 97.7932 368.886 97.3967 368.489C97.0001 368.092 96.7773 367.555 96.7773 366.994C96.7773 366.432 96.9999 365.894 97.3962 365.496C97.7925 365.098 98.3303 364.873 98.8919 364.871H120.254L131.583 309.066C131.688 308.545 131.969 308.076 132.379 307.738C132.789 307.399 133.302 307.213 133.834 307.208L214.925 306.324C215.27 306.319 215.612 306.392 215.926 306.537C216.239 306.682 216.516 306.895 216.736 307.162C216.956 307.428 217.113 307.74 217.196 308.075C217.279 308.41 217.286 308.76 217.217 309.098Z" fill="#E0E0E0"/>
<path d="M217.218 309.098C217.218 309.098 217.218 309.042 217.258 308.921C217.318 308.47 217.244 308.012 217.045 307.603C216.847 307.194 216.532 306.853 216.141 306.621C215.935 306.488 215.71 306.388 215.473 306.324C215.207 306.281 214.938 306.265 214.669 306.276H212.764H207.988L177.323 306.565L155.953 306.782L143.973 306.903L137.694 306.967H134.478C134.205 306.967 133.948 306.967 133.674 306.967C133.394 306.995 133.122 307.074 132.87 307.2C132.347 307.454 131.933 307.888 131.704 308.422C131.601 308.682 131.526 308.951 131.479 309.226L131.319 310.03C131.206 310.569 131.101 311.108 130.989 311.638C130.764 312.724 130.547 313.809 130.322 314.911C129.871 317.114 129.421 319.333 128.963 321.584C128.046 326.097 127.111 330.704 126.157 335.405L120.199 364.686L120.344 364.566H99.247C98.978 364.552 98.7083 364.568 98.443 364.614C97.8936 364.719 97.4025 365.023 97.0648 365.469C96.7271 365.915 96.5668 366.47 96.6148 367.027C96.6628 367.585 96.9158 368.104 97.3248 368.486C97.7338 368.867 98.2697 369.083 98.8289 369.092H155.173H205.021H205.11V369.004C208.84 350.56 211.879 335.557 213.954 325.154C214.999 319.96 215.819 315.916 216.366 313.166C216.639 311.799 216.848 310.754 216.985 310.038C217.121 309.323 217.186 308.969 217.186 308.969L216.953 310.03C216.808 310.746 216.591 311.791 216.301 313.158C215.739 315.9 214.902 319.944 213.833 325.13L204.852 368.964L205.021 369.036H155.173H98.8128C98.5105 369.018 98.215 368.939 97.9445 368.803C97.7012 368.67 97.4887 368.487 97.3207 368.266C97.1527 368.046 97.0329 367.792 96.9692 367.522C96.9056 367.252 96.8993 366.972 96.951 366.699C97.0027 366.427 97.1111 366.168 97.2691 365.941C97.5532 365.528 97.9849 365.24 98.4751 365.137C98.7406 365.091 99.0105 365.078 99.2791 365.096H120.408V364.984L126.342 335.702C127.296 330.996 128.231 326.389 129.148 321.881C129.603 319.63 130.054 317.406 130.498 315.208C130.724 314.107 130.941 313.013 131.166 311.928C131.27 311.389 131.383 310.842 131.487 310.32L131.656 309.516C131.693 309.241 131.76 308.971 131.857 308.712C132.067 308.237 132.437 307.85 132.902 307.618C133.13 307.5 133.379 307.427 133.634 307.401C133.883 307.401 134.165 307.401 134.438 307.401L137.654 307.361L143.933 307.289L155.905 307.152L177.283 306.903L207.94 306.525L212.715 306.461H214.621C214.89 306.449 215.159 306.465 215.425 306.509C215.893 306.61 216.319 306.853 216.643 307.206C216.967 307.559 217.173 308.004 217.234 308.479C217.252 308.685 217.247 308.893 217.218 309.098Z" fill="#263238"/>
<path d="M168.325 336.563C168.325 337.256 168.531 337.934 168.916 338.51C169.301 339.087 169.849 339.536 170.489 339.801C171.13 340.066 171.835 340.136 172.515 340.001C173.194 339.865 173.819 339.532 174.309 339.041C174.8 338.551 175.133 337.926 175.269 337.246C175.404 336.566 175.335 335.862 175.069 335.221C174.804 334.581 174.355 334.033 173.778 333.648C173.202 333.263 172.524 333.057 171.831 333.057C170.901 333.057 170.009 333.426 169.352 334.084C168.695 334.741 168.325 335.633 168.325 336.563Z" fill="white"/>
<path d="M217.121 309.588H216.759H211.558L196.386 309.661L146.337 310.014L139.101 310.071H137.316C137.012 310.062 136.708 310.081 136.408 310.127C136.104 310.193 135.813 310.31 135.547 310.473C135.022 310.811 134.64 311.332 134.478 311.936C134.341 312.523 134.245 313.078 134.124 313.649C133.232 318.167 132.364 322.533 131.544 326.681C129.895 334.987 128.416 342.472 127.178 348.759L124.259 363.649C123.922 365.394 123.664 366.761 123.455 367.669C123.375 368.125 123.311 368.479 123.262 368.731C123.222 368.964 123.206 369.084 123.206 369.084C123.206 369.084 123.206 368.972 123.294 368.731C123.383 368.489 123.415 368.136 123.512 367.685L124.316 363.665C125.031 360.144 126.052 355.071 127.323 348.799C128.593 342.528 130.08 335.035 131.745 326.738C132.549 322.581 133.449 318.223 134.349 313.705C134.47 313.142 134.575 312.563 134.695 312.016C134.842 311.481 135.183 311.019 135.652 310.722C135.897 310.565 136.17 310.459 136.456 310.408C136.738 310.367 137.023 310.351 137.308 310.36H139.093L146.329 310.304L196.378 309.862L211.55 309.693L215.674 309.637H216.751L217.121 309.588Z" fill="#263238"/>
<path d="M42.6514 365.145H42.7961L43.2061 365.185L44.8141 365.313C46.197 365.426 48.1909 365.563 50.6672 365.707C55.6038 365.997 62.4458 366.294 69.9632 366.423C77.4806 366.552 84.3709 366.479 89.3155 366.351C91.7918 366.286 93.7938 366.222 95.1767 366.158L96.7847 366.077H97.2028H97.3395H96.7847H95.1767L89.3155 366.174C84.3629 366.246 77.5208 366.278 69.9713 366.174C62.4217 366.069 55.5877 365.78 50.6753 365.547L44.8222 365.249L43.2142 365.177H42.6514V365.145Z" fill="white"/>
<defs>
<linearGradient id="paint0_linear_1550_5693" x1="185.394" y1="162.549" x2="305.608" y2="162.549" gradientUnits="userSpaceOnUse">
<stop stop-color="#08E6FD"/>
<stop offset="0.5" stop-color="#00A5FD"/>
<stop offset="1" stop-color="#001EEE"/>
</linearGradient>
<linearGradient id="paint1_linear_1550_5693" x1="379.393" y1="156.044" x2="392.313" y2="156.044" gradientUnits="userSpaceOnUse">
<stop stop-color="#08E6FD"/>
<stop offset="0.5" stop-color="#00A5FD"/>
<stop offset="1" stop-color="#001EEE"/>
</linearGradient>
<linearGradient id="paint2_linear_1550_5693" x1="427.527" y1="179.485" x2="576.822" y2="179.485" gradientUnits="userSpaceOnUse">
<stop stop-color="#08E6FD"/>
<stop offset="0.5" stop-color="#00A5FD"/>
<stop offset="1" stop-color="#001EEE"/>
</linearGradient>
<linearGradient id="paint3_linear_1550_5693" x1="528.525" y1="213.864" x2="580.058" y2="213.864" gradientUnits="userSpaceOnUse">
<stop stop-color="#08E6FD"/>
<stop offset="0.5" stop-color="#00A5FD"/>
<stop offset="1" stop-color="#001EEE"/>
</linearGradient>
<linearGradient id="paint4_linear_1550_5693" x1="41.6875" y1="315.273" x2="135.97" y2="315.273" gradientUnits="userSpaceOnUse">
<stop stop-color="#08E6FD"/>
<stop offset="0.5" stop-color="#00A5FD"/>
<stop offset="1" stop-color="#001EEE"/>
</linearGradient>
<linearGradient id="paint5_linear_1550_5693" x1="128.584" y1="319.807" x2="166.139" y2="319.807" gradientUnits="userSpaceOnUse">
<stop stop-color="#08E6FD"/>
<stop offset="0.5" stop-color="#00A5FD"/>
<stop offset="1" stop-color="#001EEE"/>
</linearGradient>
<linearGradient id="paint6_linear_1550_5693" x1="30.0029" y1="313.659" x2="69.7247" y2="313.659" gradientUnits="userSpaceOnUse">
<stop stop-color="#08E6FD"/>
<stop offset="0.5" stop-color="#00A5FD"/>
<stop offset="1" stop-color="#001EEE"/>
</linearGradient>
</defs>
</svg>
