<svg width="48" height="48" viewBox="0 0 48 48" fill="none" xmlns="http://www.w3.org/2000/svg">
<path d="M24 40.7993C32.271 40.7993 39 34.0703 39 25.7993C39 17.5283 32.271 10.7993 24 10.7993C15.729 10.7993 9 17.5283 9 25.7993C9 34.0703 15.729 40.7993 24 40.7993ZM23.4 12.0143V12.5999C23.4 12.759 23.4632 12.9117 23.5757 13.0242C23.6883 13.1367 23.8409 13.1999 24 13.1999C24.1591 13.1999 24.3117 13.1367 24.4243 13.0242C24.5368 12.9117 24.6 12.759 24.6 12.5999V12.0149C31.7328 12.3215 37.4778 18.0665 37.785 25.1999H37.2C37.0409 25.1999 36.8883 25.2631 36.7757 25.3757C36.6632 25.4882 36.6 25.6408 36.6 25.7999C36.6 25.959 36.6632 26.1117 36.7757 26.2242C36.8883 26.3367 37.0409 26.3999 37.2 26.3999H37.785C37.4778 33.5321 31.7328 39.2771 24.6 39.5843V38.9993C24.6 38.8402 24.5368 38.6876 24.4243 38.5751C24.3117 38.4625 24.1591 38.3993 24 38.3993C23.8409 38.3993 23.6883 38.4625 23.5757 38.5751C23.4632 38.6876 23.4 38.8402 23.4 38.9993V39.5843C16.2672 39.2771 10.5222 33.5321 10.215 26.3993H10.8C10.9591 26.3993 11.1117 26.3361 11.2243 26.2236C11.3368 26.1111 11.4 25.9584 11.4 25.7993C11.4 25.6402 11.3368 25.4876 11.2243 25.3751C11.1117 25.2625 10.9591 25.1993 10.8 25.1993H10.215C10.5222 18.0665 16.2672 12.3215 23.4 12.0143Z" fill="white"/>
<path d="M12.146 8.90531C11.7975 8.21096 11.2624 7.62744 10.6008 7.22016C9.93914 6.81289 9.17714 6.59797 8.40022 6.59951C6.08422 6.59951 4.20022 8.48351 4.20022 10.7995C4.19776 11.5252 4.38478 12.2389 4.74278 12.87C5.10078 13.5012 5.61736 14.028 6.24142 14.3983C6.36689 14.473 6.51521 14.4995 6.65879 14.4731C6.80238 14.4466 6.93145 14.3688 7.02202 14.2543C7.54361 13.6006 8.10212 12.9771 8.69482 12.3871L10.7948 14.4877C8.18422 17.5321 6.60022 21.4837 6.60022 25.8001C6.60022 30.7849 8.71042 35.2831 12.0806 38.4583L10.9022 40.4995C10.64 40.9554 10.5021 41.4722 10.5023 41.9981C10.5025 42.524 10.6407 43.0407 10.9032 43.4964C11.1656 43.9522 11.5431 44.331 11.9979 44.5951C12.4527 44.8592 12.9689 44.9993 13.4948 45.0013C13.7558 45.0013 14.018 44.9665 14.2766 44.8975C14.6576 44.7964 15.0147 44.6208 15.3274 44.3809C15.64 44.1409 15.902 43.8414 16.0982 43.4995L17.0978 41.7691C19.2152 42.6877 21.5486 43.2001 24.0002 43.2001C26.4518 43.2001 28.7852 42.6877 30.9026 41.7691L31.9022 43.4995C32.0984 43.8414 32.3604 44.1409 32.6731 44.3809C32.9857 44.6208 33.3429 44.7964 33.7238 44.8975C34.1042 45.0003 34.5012 45.0268 34.892 44.9754C35.2827 44.924 35.6593 44.7958 36.0002 44.5981C36.6884 44.1994 37.1905 43.544 37.3963 42.7757C37.6021 42.0075 37.4949 41.1889 37.0982 40.4995L35.9198 38.4583C39.29 35.2825 41.4002 30.7837 41.4002 25.8001C41.4002 21.4837 39.8168 17.5327 37.205 14.4883L39.3056 12.3883C39.8924 12.9799 40.4576 13.5943 40.9784 14.2555C41.0685 14.3705 41.1975 14.4487 41.3412 14.4752C41.4848 14.5017 41.6332 14.4748 41.7584 14.3995C42.3829 14.0291 42.8997 13.5021 43.2578 12.8706C43.616 12.239 43.8029 11.5249 43.8002 10.7989C43.8002 8.48291 41.9162 6.59891 39.6002 6.59891C38.8233 6.59737 38.0613 6.81229 37.3997 7.21956C36.7381 7.62684 36.203 8.21036 35.8544 8.90471C35.7884 9.03523 35.7723 9.18538 35.8092 9.32692C35.8461 9.46846 35.9335 9.59164 36.0548 9.67331C36.896 10.2403 37.6886 10.8733 38.4422 11.5537L36.3938 13.6015C34.4426 11.6173 32.0445 10.1292 29.4002 9.26171V6.59951H30.0002C30.9926 6.59951 31.8002 5.79191 31.8002 4.79951C31.8002 3.80711 30.9926 2.99951 30.0002 2.99951H18.0002C17.0078 2.99951 16.2002 3.80711 16.2002 4.79951C16.2002 5.79191 17.0078 6.59951 18.0002 6.59951H18.6002V9.26171C15.9559 10.1293 13.5578 11.6176 11.6066 13.6021L9.55822 11.5543C10.3089 10.872 11.1069 10.2436 11.9462 9.67391C12.0675 9.59215 12.1547 9.46893 12.1915 9.3274C12.2283 9.18586 12.2121 9.03577 12.146 8.90531ZM37.1978 9.00671C37.4757 8.63136 37.8379 8.32655 38.2552 8.11686C38.6725 7.90717 39.1332 7.79847 39.6002 7.79951C41.2544 7.79951 42.6002 9.14531 42.6002 10.7995C42.6018 11.2301 42.5097 11.6559 42.3302 12.0473C42.1508 12.4388 41.8883 12.7865 41.561 13.0663C40.2899 11.5287 38.823 10.1639 37.1978 9.00671ZM15.059 42.8989C14.8202 43.3122 14.4271 43.6138 13.9661 43.7374C13.505 43.861 13.0138 43.7966 12.6002 43.5583C12.187 43.3193 11.8856 42.926 11.762 42.4649C11.6385 42.0038 11.703 41.5125 11.9414 41.0989L12.9986 39.2683C13.9317 40.0309 14.9413 40.6949 16.0112 41.2495L15.059 42.8989ZM36.059 41.0989C36.2972 41.5125 36.3617 42.0038 36.2382 42.4648C36.1147 42.9259 35.8133 43.3192 35.4002 43.5583C34.9867 43.7966 34.4954 43.861 34.0344 43.7374C33.5733 43.6138 33.1802 43.3122 32.9414 42.8989L31.9892 41.2489C33.0591 40.6945 34.0687 40.0307 35.0018 39.2683L36.059 41.0989ZM18.0002 5.39951C17.8457 5.3926 17.6999 5.32637 17.593 5.2146C17.4861 5.10284 17.4265 4.95415 17.4265 4.79951C17.4265 4.64487 17.4861 4.49619 17.593 4.38442C17.6999 4.27266 17.8457 4.20642 18.0002 4.19951H30.0002C30.1547 4.20642 30.3006 4.27266 30.4075 4.38442C30.5143 4.49619 30.574 4.64487 30.574 4.79951C30.574 4.95415 30.5143 5.10284 30.4075 5.2146C30.3006 5.32637 30.1547 5.3926 30.0002 5.39951H18.0002ZM28.2002 6.59951V8.91551C25.4424 8.22829 22.5581 8.22829 19.8002 8.91551V6.59951H28.2002ZM24.0002 9.59951C32.933 9.59951 40.2002 16.8667 40.2002 25.7995C40.2002 34.7323 32.933 41.9995 24.0002 41.9995C15.0674 41.9995 7.80022 34.7323 7.80022 25.7995C7.80022 16.8667 15.0674 9.59951 24.0002 9.59951ZM6.43942 13.0663C6.11222 12.7865 5.8498 12.4389 5.67035 12.0476C5.49091 11.6563 5.39873 11.2306 5.40022 10.8001C5.40022 9.14591 6.74602 7.80011 8.40022 7.80011C9.36022 7.80011 10.2422 8.25191 10.8026 9.00611C9.17737 10.1637 7.71052 11.5288 6.43942 13.0669V13.0663Z" fill="white"/>
<path d="M23.8204 26.3719C23.9421 26.4103 24.0729 26.4089 24.1937 26.3679C24.3146 26.3269 24.4192 26.2484 24.4924 26.1439L28.6924 20.1439C28.7376 20.0793 28.7696 20.0064 28.7866 19.9294C28.8036 19.8524 28.8053 19.7729 28.7916 19.6952C28.7779 19.6176 28.749 19.5434 28.7066 19.4769C28.6642 19.4105 28.6091 19.353 28.5445 19.3078C28.4799 19.2626 28.407 19.2306 28.33 19.2136C28.253 19.1965 28.1734 19.1949 28.0958 19.2086C28.0182 19.2223 27.944 19.2512 27.8775 19.2936C27.811 19.336 27.7536 19.3911 27.7084 19.4557L24.6004 23.8963V16.2001C24.6004 16.041 24.5372 15.8884 24.4247 15.7758C24.3121 15.6633 24.1595 15.6001 24.0004 15.6001C23.8413 15.6001 23.6886 15.6633 23.5761 15.7758C23.4636 15.8884 23.4004 16.041 23.4004 16.2001V25.8001C23.4004 26.0623 23.5702 26.2933 23.8204 26.3725V26.3719Z" fill="white"/>
</svg>
