<svg width="48" height="48" viewBox="0 0 48 48" fill="none" xmlns="http://www.w3.org/2000/svg">
<path d="M38.2497 2.25C37.2727 2.25381 36.306 2.45041 35.4051 2.82853C34.5042 3.20665 33.6868 3.75886 32.9997 4.4535C31.1847 6.2685 30.6297 8.7615 31.0782 11.109L23.7657 18.4215L22.9692 17.625C22.9539 17.6088 22.9379 17.5933 22.9212 17.5785C22.7733 17.4592 22.587 17.398 22.3971 17.4066C22.2073 17.4151 22.0272 17.4928 21.8907 17.625L20.2962 19.2195L10.7337 9.6555L11.8122 8.5785C11.8818 8.49933 11.9347 8.40692 11.9678 8.30681C12.0008 8.20669 12.0133 8.10093 12.0045 7.99588C11.9956 7.89082 11.9657 7.78863 11.9164 7.69543C11.8671 7.60223 11.7995 7.51994 11.7177 7.4535L8.01569 4.8285C7.92425 4.75634 7.81747 4.70611 7.70358 4.68167C7.58968 4.65723 7.4717 4.65922 7.35869 4.6875C7.23559 4.72133 7.12308 4.78584 7.03169 4.875L4.91969 7.032C4.8032 7.15626 4.73094 7.31547 4.71413 7.48497C4.69732 7.65447 4.73688 7.82478 4.82669 7.9695L7.49969 11.67C7.75319 12.0135 8.31869 12.06 8.62469 11.7645L9.70319 10.7325L19.2177 20.2485L17.6247 21.843C17.4862 21.9881 17.409 22.1809 17.409 22.3815C17.409 22.5821 17.4862 22.7749 17.6247 22.92L18.4692 23.7165L11.1087 31.077C8.76119 30.627 6.26819 31.185 4.45319 32.9985C3.52712 33.9271 2.86196 35.0833 2.52464 36.3507C2.18733 37.618 2.18976 38.9519 2.53169 40.218C2.68169 40.6935 3.37919 40.881 3.74969 40.545L7.54619 36.75L10.3122 37.6875L11.2497 40.4535L7.45319 44.25C7.11719 44.6205 7.30319 45.3165 7.78019 45.4695C9.04664 45.8101 10.3804 45.8116 11.6476 45.4738C12.9148 45.136 14.0709 44.4708 14.9997 43.545C16.8147 41.73 17.3697 39.237 16.9212 36.8895L23.2032 30.6075L35.6712 43.077C35.8164 43.2159 36.0095 43.2934 36.2104 43.2934C36.4114 43.2934 36.6045 43.2159 36.7497 43.077L38.2962 41.4825L39.3747 40.4055L41.1567 38.6235L41.4837 38.295L43.0782 36.702C43.2042 36.5596 43.2738 36.3761 43.2738 36.186C43.2738 35.9959 43.2042 35.8124 43.0782 35.67L30.6087 23.202L36.8907 16.92C39.2382 17.37 41.7312 16.815 43.5462 14.9985C44.4725 14.07 45.138 12.9139 45.4756 11.6466C45.8131 10.3792 45.8109 9.04525 45.4692 7.779C45.3162 7.3035 44.6202 7.116 44.2497 7.452L40.4532 11.25L37.6872 10.3125L36.7497 7.5465L40.5462 3.75C40.8822 3.3795 40.6962 2.6835 40.2192 2.5305C39.5777 2.35147 38.9156 2.25717 38.2497 2.25ZM38.2497 3.75C38.3112 3.75 38.3742 3.795 38.4372 3.7965L35.3907 6.843C35.2957 6.9401 35.2282 7.06076 35.1952 7.19257C35.1623 7.32439 35.165 7.4626 35.2032 7.593L36.3747 11.1555C36.4497 11.373 36.6267 11.5515 36.8442 11.625L40.4067 12.7965C40.5371 12.8347 40.6753 12.8374 40.8071 12.8045C40.9389 12.7715 41.0596 12.704 41.1567 12.609L44.0622 9.7035C44.0592 11.268 43.6452 12.8385 42.5157 13.968C41.7749 14.7093 40.8522 15.2426 39.84 15.5143C38.8279 15.786 37.7621 15.7866 36.7497 15.516C36.6261 15.4863 36.497 15.488 36.3742 15.5207C36.2514 15.5534 36.1386 15.6163 36.0462 15.7035L29.5797 22.17C28.4922 21.024 25.8297 18.4665 25.8297 18.4665L32.2947 11.955C32.3819 11.8625 32.4448 11.7498 32.4775 11.627C32.5102 11.5042 32.5119 11.3751 32.4822 11.2515C32.2114 10.2391 32.2119 9.17325 32.4837 8.1611C32.7554 7.14895 33.2888 6.22617 34.0302 5.4855C35.1512 4.37075 36.6688 3.74655 38.2497 3.75ZM7.64069 6.4215L10.1247 8.157L8.20319 10.077L6.41969 7.6425L7.64069 6.4215ZM22.4052 19.2195L23.1102 19.9215L23.4372 20.25L22.4052 21.3285L20.2962 23.4375L20.0157 23.2035C19.9871 23.1693 19.9554 23.1376 19.9212 23.109L19.2177 22.4055L22.4052 19.2195ZM25.5942 20.25L29.0622 23.7195C29.1162 23.775 29.1807 23.823 29.2497 23.859L41.5317 36.1875L40.4517 37.266L24.5622 21.3285L25.5942 20.25ZM23.4837 22.407L39.3747 38.295L38.2962 39.3735L22.4067 23.4825L22.9677 22.92L23.4837 22.407ZM21.3747 24.516L37.2657 40.4055L36.1872 41.4855L23.7657 29.1105C23.7509 29.0938 23.7354 29.0778 23.7192 29.0625L20.2962 25.593L20.7177 25.125L20.7657 25.0785L20.8122 25.0305L20.8587 24.9855L21.3747 24.516ZM18.4677 25.7805C18.4903 25.8471 18.5221 25.9102 18.5622 25.968C18.5908 26.0022 18.6224 26.0339 18.6567 26.0625C18.6562 26.078 18.6562 26.0935 18.6567 26.109C18.6717 26.1094 18.6867 26.1094 18.7017 26.109L22.1712 29.5785L15.7032 36.0465C15.616 36.139 15.5531 36.2517 15.5204 36.3745C15.4877 36.4973 15.486 36.6264 15.5157 36.75C15.7866 37.7623 15.7864 38.828 15.5149 39.8402C15.2434 40.8523 14.7103 41.7752 13.9692 42.516C12.8367 43.644 11.2692 44.0595 9.70319 44.0625L12.6087 41.1555C12.7037 41.0584 12.7712 40.9377 12.8042 40.8059C12.8371 40.6741 12.8344 40.5359 12.7962 40.4055L11.6247 36.843C11.5867 36.7347 11.5248 36.6363 11.4435 36.5553C11.3622 36.4742 11.2636 36.4126 11.1552 36.375L7.59269 35.2035C7.46228 35.1655 7.32411 35.1628 7.19232 35.1958C7.06054 35.2287 6.93988 35.2961 6.84269 35.391L3.93719 38.295C3.94019 36.729 4.35419 35.16 5.48369 34.0305C6.22453 33.2893 7.14733 32.7561 8.15941 32.4844C9.1715 32.2127 10.2373 32.212 11.2497 32.4825C11.3733 32.5122 11.5024 32.5105 11.6252 32.4778C11.748 32.4451 11.8607 32.3822 11.9532 32.295L18.4677 25.7805Z" fill="white"/>
</svg>
