<svg width="48" height="48" viewBox="0 0 48 48" fill="none" xmlns="http://www.w3.org/2000/svg">
<path d="M40.9376 41.8486C40.7366 41.8486 40.5401 41.7676 40.3991 41.6206L38.3066 39.4531C38.0186 39.1546 38.0261 38.6791 38.3246 38.3926C38.6246 38.1061 39.1016 38.1121 39.3851 38.4106L40.5566 39.6256L42.1676 33.6316L36.1196 35.0326L37.2911 36.2476C37.5791 36.5461 37.5716 37.0216 37.2731 37.3081C36.9746 37.5961 36.4976 37.5886 36.2126 37.2901L34.1201 35.1226C33.9311 34.9276 33.8636 34.6471 33.9401 34.3891C34.0166 34.1296 34.2266 33.9316 34.4906 33.8701L43.0466 31.8901C43.3031 31.8301 43.5731 31.9111 43.7546 32.1001C43.9376 32.2906 44.0081 32.5621 43.9391 32.8171L41.6591 41.2981C41.5901 41.5591 41.3846 41.7631 41.1236 41.8291C41.0636 41.8426 41.0006 41.8486 40.9376 41.8486Z" fill="white"/>
<path d="M25.356 44.961C25.2345 44.961 25.113 44.9595 24.9915 44.958C19.947 44.8695 15.1365 42.9285 11.4465 39.4935C11.1435 39.2115 11.127 38.736 11.409 38.433C11.691 38.1315 12.1665 38.112 12.4695 38.3955C15.888 41.5785 20.3445 43.377 25.0185 43.458C29.889 43.5225 34.554 41.7735 38.142 38.472C38.448 38.1945 38.9235 38.214 39.2025 38.5155C39.483 38.82 39.4636 39.2955 39.159 39.576C35.376 43.056 30.486 44.961 25.356 44.961ZM9.20555 37.5525C9.00905 37.5525 8.81705 37.4745 8.67455 37.3335L2.46905 31.119C2.27705 30.927 2.20355 30.6495 2.27705 30.3885C2.34905 30.1275 2.55605 29.9265 2.81705 29.8605L5.74055 29.133C6.14705 29.034 6.54905 29.277 6.64955 29.679C6.74855 30.0825 6.50405 30.489 6.10355 30.588L4.46405 30.9945L8.85005 35.3865L10.6635 29.4495L9.02255 29.856C8.61455 29.9505 8.21405 29.7075 8.11505 29.3085C8.01605 28.9065 8.26055 28.5 8.66255 28.401L11.586 27.675C11.8425 27.6105 12.126 27.69 12.309 27.888C12.495 28.083 12.5625 28.3635 12.483 28.6215L9.91955 37.0215C9.84155 37.2735 9.63755 37.467 9.38405 37.5315C9.32705 37.545 9.26555 37.5525 9.20555 37.5525Z" fill="white"/>
<path d="M5.94039 30.3944C5.59689 30.3944 5.28639 30.1574 5.20839 29.8079C4.06089 24.6719 4.92189 19.3589 7.63089 14.8469C10.2334 10.5164 14.3239 7.31988 19.1494 5.84538C19.5499 5.72538 19.9654 5.94888 20.0869 6.34338C20.2069 6.74088 19.9849 7.15938 19.5889 7.28088C15.1189 8.64588 11.3284 11.6084 8.91789 15.6209C6.40689 19.7999 5.61039 24.7214 6.67389 29.4794C6.76389 29.8844 6.51039 30.2849 6.10539 30.3764C6.04839 30.3884 5.99289 30.3944 5.94039 30.3944ZM28.5799 12.4244C28.3744 12.4244 28.1749 12.3389 28.0324 12.1859L22.0399 5.76738C21.8599 5.57538 21.7939 5.30238 21.8674 5.04888C21.9394 4.79538 22.1404 4.59888 22.3954 4.52988L30.8794 2.26188C31.1374 2.19438 31.4194 2.26938 31.6069 2.46138C31.7974 2.65488 31.8679 2.93388 31.7929 3.19338L30.9604 6.08988C30.8464 6.48888 30.4279 6.72288 30.0334 6.60438C29.6344 6.49038 29.4049 6.07338 29.5189 5.67738L29.9854 4.05588L23.9899 5.65788L28.2244 10.1954L28.6924 8.57238C28.8049 8.17188 29.2234 7.93788 29.6194 8.05788C30.0184 8.17188 30.2479 8.58888 30.1339 8.98488L29.3014 11.8814C29.2264 12.1424 29.0194 12.3419 28.7569 12.4049C28.6969 12.4169 28.6384 12.4244 28.5799 12.4244Z" fill="white"/>
<path d="M43.8677 29.0926C43.8212 29.0926 43.7747 29.0881 43.7282 29.0791C43.3217 29.0041 43.0532 28.6111 43.1297 28.2046C43.9292 23.9071 43.2002 19.4281 41.0746 15.5956C38.7107 11.3311 34.8481 8.18105 30.1951 6.72305C29.7991 6.59855 29.5802 6.17855 29.7032 5.78255C29.8277 5.38655 30.2522 5.16755 30.6437 5.29055C35.6657 6.86555 39.8357 10.2661 42.3872 14.8696C44.6792 19.0066 45.4682 23.8396 44.6042 28.4806C44.5367 28.8406 44.2202 29.0926 43.8677 29.0926Z" fill="white"/>
<path d="M25.9046 35.9401H23.2061C22.8536 35.9401 22.5491 35.6956 22.4741 35.3506L22.0301 33.3211C21.4061 33.1396 20.8076 32.8906 20.2391 32.5771L18.4901 33.6976C18.1931 33.8866 17.8061 33.8461 17.5556 33.5971L15.6491 31.6906C15.4001 31.4416 15.3581 31.0531 15.5486 30.7561L16.6676 29.0071C16.3541 28.4356 16.1051 27.8371 15.9251 27.2161L13.8971 26.7721C13.5536 26.6971 13.3076 26.3926 13.3076 26.0401V23.3431C13.3076 22.9921 13.5521 22.6861 13.8971 22.6111L15.9251 22.1656C16.1051 21.5461 16.3541 20.9461 16.6676 20.3761L15.5486 18.6271C15.3581 18.3316 15.4001 17.9416 15.6491 17.6926L17.5556 15.7846C17.8061 15.5356 18.1931 15.4951 18.4901 15.6841L20.2406 16.8046C20.8106 16.4926 21.4091 16.2436 22.0301 16.0621L22.4741 14.0341C22.5491 13.6891 22.8536 13.4431 23.2061 13.4431H25.9046C26.2571 13.4431 26.5616 13.6876 26.6366 14.0341L27.0806 16.0621C27.7016 16.2436 28.3001 16.4926 28.8701 16.8046L30.6221 15.6856C30.9191 15.4936 31.3061 15.5356 31.5566 15.7861L33.4631 17.6926C33.7121 17.9416 33.7541 18.3316 33.5636 18.6271L32.4431 20.3761C32.7566 20.9476 33.0056 21.5461 33.1871 22.1671L35.2166 22.6111C35.5601 22.6861 35.8061 22.9906 35.8061 23.3431V26.0401C35.8061 26.3926 35.5601 26.6971 35.2151 26.7721L33.1856 27.2161C33.0056 27.8371 32.7566 28.4356 32.4431 29.0071L33.5636 30.7561C33.7541 31.0516 33.7121 31.4401 33.4631 31.6906L31.5566 33.6001C31.3076 33.8506 30.9176 33.8896 30.6221 33.7006L28.8701 32.5786C28.3016 32.8906 27.7031 33.1396 27.0806 33.3211L26.6366 35.3506C26.5616 35.6956 26.2571 35.9401 25.9046 35.9401ZM23.8091 34.4401H25.3001L25.7126 32.5546C25.7741 32.2726 25.9931 32.0506 26.2736 31.9846C27.0581 31.7986 27.8051 31.4896 28.4921 31.0636C28.7381 30.9121 29.0471 30.9121 29.2916 31.0696L30.9206 32.1121L31.9736 31.0576L30.9311 29.4301C30.7751 29.1871 30.7736 28.8766 30.9251 28.6321C31.3526 27.9391 31.6631 27.1921 31.8446 26.4106C31.9106 26.1286 32.1326 25.9111 32.4161 25.8496L34.3031 25.4371V23.9476L32.4176 23.5351C32.1356 23.4736 31.9136 23.2546 31.8476 22.9741C31.6631 22.1926 31.3526 21.4441 30.9251 20.7526C30.7721 20.5081 30.7751 20.1976 30.9311 19.9546L31.9736 18.3271L30.9206 17.2741L29.2916 18.3151C29.0486 18.4696 28.7366 18.4726 28.4936 18.3226C27.8021 17.8951 27.0551 17.5846 26.2736 17.4001C25.9916 17.3341 25.7741 17.1136 25.7126 16.8316L25.3001 14.9446H23.8091L23.3966 16.8316C23.3351 17.1136 23.1161 17.3341 22.8356 17.4001C22.0541 17.5846 21.3056 17.8951 20.6156 18.3226C20.3711 18.4741 20.0591 18.4696 19.8176 18.3151L18.1901 17.2741L17.1371 18.3286L18.1781 19.9546C18.3341 20.1976 18.3356 20.5081 18.1841 20.7526C17.7551 21.4471 17.4461 22.1926 17.2646 22.9726C17.1986 23.2546 16.9766 23.4721 16.6946 23.5336L14.8091 23.9476V25.4371L16.6946 25.8496C16.9766 25.9111 17.1986 26.1301 17.2646 26.4106C17.4461 27.1921 17.7566 27.9406 18.1841 28.6291C18.3371 28.8751 18.3341 29.1856 18.1781 29.4286L17.1371 31.0561L18.1901 32.1106L19.8176 31.0681C20.0621 30.9121 20.3756 30.9121 20.6171 31.0621C21.3041 31.4881 22.0496 31.7986 22.8356 31.9846C23.1176 32.0506 23.3351 32.2711 23.3966 32.5546L23.8091 34.4401ZM24.5546 29.9416C21.6596 29.9416 19.3046 27.5866 19.3046 24.6916C19.3046 21.7966 21.6596 19.4416 24.5546 19.4416C27.4496 19.4416 29.8046 21.7966 29.8046 24.6916C29.8046 25.1056 29.4686 25.4416 29.0546 25.4416C28.6406 25.4416 28.3046 25.1056 28.3046 24.6916C28.3046 22.6231 26.6231 20.9416 24.5546 20.9416C22.4861 20.9416 20.8046 22.6231 20.8046 24.6916C20.8046 26.7601 22.4861 28.4416 24.5546 28.4416C24.9686 28.4416 25.3046 28.7776 25.3046 29.1916C25.3046 29.6056 24.9686 29.9416 24.5546 29.9416Z" fill="white"/>
<path d="M27.5547 28.4417C27.9689 28.4417 28.3047 28.1059 28.3047 27.6917C28.3047 27.2774 27.9689 26.9417 27.5547 26.9417C27.1405 26.9417 26.8047 27.2774 26.8047 27.6917C26.8047 28.1059 27.1405 28.4417 27.5547 28.4417Z" fill="white"/>
</svg>
